M48
; DRILL file KiCad 10.0.3 date 2026-07-10T11:23:35
; FORMAT={-:-/ absolute / metric / decimal}
; #@! TF.CreationDate,2026-07-10T11:23:35+05:30
; #@! TF.GenerationSoftware,Kicad,Pcbnew,10.0.3
; #@! TF.FileFunction,Plated,1,2,PTH
FMAT,2
METRIC
; #@! TA.AperFunction,Plated,PTH,ComponentDrill
T1C0.200
; #@! TA.AperFunction,Plated,PTH,ComponentDrill
T2C0.300
; #@! TA.AperFunction,Plated,PTH,ComponentDrill
T3C0.600
; #@! TA.AperFunction,Plated,PTH,ComponentDrill
T4C0.750
; #@! TA.AperFunction,Plated,PTH,ComponentDrill
T5C0.800
; #@! TA.AperFunction,Plated,PTH,ComponentDrill
T6C1.000
; #@! TA.AperFunction,Plated,PTH,ComponentDrill
T7C1.200
; #@! TA.AperFunction,Plated,PTH,ComponentDrill
T8C1.400
%
G90
G05
T1
X111.41Y-119.41
X111.41Y-120.59
X112.59Y-119.41
X112.59Y-120.59
T2
X135.9Y-140.0
T4
X133.0Y-125.0
X135.0Y-125.0
T5
X131.5Y-99.7
X132.5Y-112.3
X133.5Y-99.7
X134.5Y-112.3
X135.5Y-99.7
X136.5Y-112.3
X137.5Y-99.7
X138.5Y-112.3
T6
X107.0Y-133.0
X107.0Y-135.54
X107.0Y-138.08
X107.0Y-140.62
X107.0Y-143.16
X117.0Y-59.0
X117.0Y-61.0
X117.0Y-63.0
T7
X103.92Y-48.0
X106.0Y-76.92
X106.0Y-82.0
X106.0Y-87.08
X107.2Y-91.92
X107.2Y-97.0
X107.2Y-102.08
X109.0Y-48.0
X114.08Y-48.0
X149.92Y-62.0
X154.92Y-50.0
X155.0Y-62.0
X160.0Y-50.0
X160.08Y-62.0
X165.08Y-50.0
T8
X113.5Y-55.5
X113.5Y-66.5
T3
X114.68Y-144.25G85X114.68Y-143.65
G05
X114.68Y-148.68G85X114.68Y-147.58
G05
X123.32Y-144.25G85X123.32Y-143.65
G05
X123.32Y-148.68G85X123.32Y-147.58
G05
M30
