%TF.GenerationSoftware,KiCad,Pcbnew,10.0.3*%
%TF.CreationDate,2026-07-10T11:23:34+05:30*%
%TF.ProjectId,hakai_mouse_final,68616b61-695f-46d6-9f75-73655f66696e,5.3*%
%TF.SameCoordinates,Original*%
%TF.FileFunction,Profile,NP*%
%FSLAX46Y46*%
G04 Gerber Fmt 4.6, Leading zero omitted, Abs format (unit mm)*
G04 Created by KiCad (PCBNEW 10.0.3) date 2026-07-10 11:23:34*
%MOMM*%
%LPD*%
G01*
G04 APERTURE LIST*
%TA.AperFunction,Profile*%
%ADD10C,0.100000*%
%TD*%
G04 APERTURE END LIST*
D10*
X100000000Y-44000000D02*
X104000000Y-40000000D01*
X100000000Y-88000000D02*
X100000000Y-44000000D01*
X104000000Y-40000000D02*
X123000000Y-40000000D01*
X104000000Y-96000000D02*
X100000000Y-88000000D01*
X104000000Y-144000000D02*
X104000000Y-96000000D01*
X110000000Y-150000000D02*
X104000000Y-144000000D01*
X123000000Y-40000000D02*
X123000000Y-78000000D01*
X123000000Y-78000000D02*
X147000000Y-78000000D01*
X147000000Y-40000000D02*
X166000000Y-40000000D01*
X147000000Y-78000000D02*
X147000000Y-40000000D01*
X160000000Y-150000000D02*
X110000000Y-150000000D01*
X166000000Y-40000000D02*
X170000000Y-44000000D01*
X166000000Y-96000000D02*
X166000000Y-144000000D01*
X166000000Y-144000000D02*
X160000000Y-150000000D01*
X170000000Y-44000000D02*
X170000000Y-88000000D01*
X170000000Y-88000000D02*
X166000000Y-96000000D01*
%TO.C,U5*%
X127940000Y-105200000D02*
X127941927Y-105160793D01*
X127940000Y-106800000D02*
X127940000Y-105200000D01*
X127941927Y-105160793D02*
X127947686Y-105121963D01*
X127941927Y-106839206D02*
X127940000Y-106800000D01*
X127947686Y-105121963D02*
X127957224Y-105083886D01*
X127947686Y-106878036D02*
X127941927Y-106839206D01*
X127957224Y-105083886D02*
X127970449Y-105046926D01*
X127957224Y-106916113D02*
X127947686Y-106878036D01*
X127970449Y-105046926D02*
X127987232Y-105011441D01*
X127970449Y-106953073D02*
X127957224Y-106916113D01*
X127987232Y-105011441D02*
X128007413Y-104977771D01*
X127987232Y-106988558D02*
X127970449Y-106953073D01*
X128007413Y-104977771D02*
X128030796Y-104946242D01*
X128007413Y-107022228D02*
X127987232Y-106988558D01*
X128030796Y-104946242D02*
X128057158Y-104917157D01*
X128030796Y-107053757D02*
X128007413Y-107022228D01*
X128057158Y-104917157D02*
X128086243Y-104890795D01*
X128057158Y-107082842D02*
X128030796Y-107053757D01*
X128086243Y-104890795D02*
X128117772Y-104867412D01*
X128086243Y-107109204D02*
X128057158Y-107082842D01*
X128117772Y-104867412D02*
X128151442Y-104847231D01*
X128117772Y-107132587D02*
X128086243Y-107109204D01*
X128151442Y-104847231D02*
X128186927Y-104830448D01*
X128151442Y-107152768D02*
X128117772Y-107132587D01*
X128186927Y-104830448D02*
X128223887Y-104817223D01*
X128186927Y-107169551D02*
X128151442Y-107152768D01*
X128223887Y-104817223D02*
X128261964Y-104807685D01*
X128223887Y-107182776D02*
X128186927Y-107169551D01*
X128261964Y-104807685D02*
X128300794Y-104801926D01*
X128261964Y-107192314D02*
X128223887Y-107182776D01*
X128300794Y-104801926D02*
X128340000Y-104800000D01*
X128300794Y-107198073D02*
X128261964Y-107192314D01*
X128340000Y-104800000D02*
X129240000Y-104800000D01*
X128340000Y-107200000D02*
X128300794Y-107198073D01*
X129240000Y-104800000D02*
X129279207Y-104798073D01*
X129240000Y-107200000D02*
X128340000Y-107200000D01*
X129279207Y-104798073D02*
X129318037Y-104792314D01*
X129279207Y-107201926D02*
X129240000Y-107200000D01*
X129318037Y-104792314D02*
X129356114Y-104782776D01*
X129318037Y-107207685D02*
X129279207Y-107201926D01*
X129356114Y-104782776D02*
X129393074Y-104769551D01*
X129356114Y-107217223D02*
X129318037Y-107207685D01*
X129393074Y-104769551D02*
X129428559Y-104752768D01*
X129393074Y-107230448D02*
X129356114Y-107217223D01*
X129428559Y-104752768D02*
X129462229Y-104732587D01*
X129428559Y-107247231D02*
X129393074Y-107230448D01*
X129462229Y-104732587D02*
X129493758Y-104709204D01*
X129462229Y-107267412D02*
X129428559Y-107247231D01*
X129493758Y-104709204D02*
X129522843Y-104682842D01*
X129493758Y-107290795D02*
X129462229Y-107267412D01*
X129522843Y-104682842D02*
X129549205Y-104653757D01*
X129522843Y-107317157D02*
X129493758Y-107290795D01*
X129549205Y-104653757D02*
X129572588Y-104622228D01*
X129549205Y-107346242D02*
X129522843Y-107317157D01*
X129572588Y-104622228D02*
X129592769Y-104588558D01*
X129572588Y-107377771D02*
X129549205Y-107346242D01*
X129592769Y-104588558D02*
X129609552Y-104553073D01*
X129592769Y-107411441D02*
X129572588Y-107377771D01*
X129609552Y-104553073D02*
X129622777Y-104516113D01*
X129609552Y-107446926D02*
X129592769Y-107411441D01*
X129622777Y-104516113D02*
X129632315Y-104478036D01*
X129622777Y-107483886D02*
X129609552Y-107446926D01*
X129632315Y-104478036D02*
X129638074Y-104439206D01*
X129632315Y-107521963D02*
X129622777Y-107483886D01*
X129638074Y-104439206D02*
X129640001Y-104399999D01*
X129638074Y-107560793D02*
X129632315Y-107521963D01*
X129640000Y-101479999D02*
X129641927Y-101440793D01*
X129640000Y-110530000D02*
X129640001Y-107600000D01*
X129640001Y-104399999D02*
X129640000Y-101479999D01*
X129640001Y-107600000D02*
X129638074Y-107560793D01*
X129641927Y-101440793D02*
X129647686Y-101401963D01*
X129641927Y-110569206D02*
X129640000Y-110530000D01*
X129647686Y-101401963D02*
X129657224Y-101363886D01*
X129647686Y-110608036D02*
X129641927Y-110569206D01*
X129657224Y-101363886D02*
X129670449Y-101326926D01*
X129657224Y-110646113D02*
X129647686Y-110608036D01*
X129670449Y-101326926D02*
X129687232Y-101291441D01*
X129670449Y-110683073D02*
X129657224Y-110646113D01*
X129687232Y-101291441D02*
X129707413Y-101257771D01*
X129687232Y-110718558D02*
X129670449Y-110683073D01*
X129707413Y-101257771D02*
X129730796Y-101226242D01*
X129707413Y-110752228D02*
X129687232Y-110718558D01*
X129730796Y-101226242D02*
X129757158Y-101197157D01*
X129730796Y-110783757D02*
X129707413Y-110752228D01*
X129757158Y-101197157D02*
X129786243Y-101170795D01*
X129757158Y-110812842D02*
X129730796Y-110783757D01*
X129786243Y-101170795D02*
X129817772Y-101147412D01*
X129786243Y-110839204D02*
X129757158Y-110812842D01*
X129817772Y-101147412D02*
X129851442Y-101127231D01*
X129817772Y-110862587D02*
X129786243Y-110839204D01*
X129851442Y-101127231D02*
X129886927Y-101110448D01*
X129851442Y-110882768D02*
X129817772Y-110862587D01*
X129886927Y-101110448D02*
X129923887Y-101097223D01*
X129886927Y-110899551D02*
X129851442Y-110882768D01*
X129923887Y-101097223D02*
X129961964Y-101087685D01*
X129923887Y-110912776D02*
X129886927Y-110899551D01*
X129961964Y-101087685D02*
X130000794Y-101081926D01*
X129961964Y-110922314D02*
X129923887Y-110912776D01*
X130000794Y-101081926D02*
X130040000Y-101080000D01*
X130000794Y-110928073D02*
X129961964Y-110922314D01*
X130040000Y-101080000D02*
X138739999Y-101080000D01*
X130040000Y-110930000D02*
X130000794Y-110928073D01*
X138739999Y-101080000D02*
X138779206Y-101081926D01*
X138739999Y-110930000D02*
X130040000Y-110930000D01*
X138779206Y-101081926D02*
X138818036Y-101087685D01*
X138779206Y-110928073D02*
X138739999Y-110930000D01*
X138818036Y-101087685D02*
X138856113Y-101097223D01*
X138818036Y-110922314D02*
X138779206Y-110928073D01*
X138856113Y-101097223D02*
X138893073Y-101110448D01*
X138856113Y-110912776D02*
X138818036Y-110922314D01*
X138893073Y-101110448D02*
X138928558Y-101127231D01*
X138893073Y-110899551D02*
X138856113Y-110912776D01*
X138928558Y-101127231D02*
X138962228Y-101147412D01*
X138928558Y-110882768D02*
X138893073Y-110899551D01*
X138962228Y-101147412D02*
X138993757Y-101170795D01*
X138962228Y-110862587D02*
X138928558Y-110882768D01*
X138993757Y-101170795D02*
X139022842Y-101197157D01*
X138993757Y-110839204D02*
X138962228Y-110862587D01*
X139022842Y-101197157D02*
X139049204Y-101226242D01*
X139022842Y-110812842D02*
X138993757Y-110839204D01*
X139049204Y-101226242D02*
X139072587Y-101257771D01*
X139049204Y-110783757D02*
X139022842Y-110812842D01*
X139072587Y-101257771D02*
X139092768Y-101291441D01*
X139072587Y-110752228D02*
X139049204Y-110783757D01*
X139092768Y-101291441D02*
X139109551Y-101326926D01*
X139092768Y-110718558D02*
X139072587Y-110752228D01*
X139109551Y-101326926D02*
X139122776Y-101363886D01*
X139109551Y-110683073D02*
X139092768Y-110718558D01*
X139122776Y-101363886D02*
X139132314Y-101401963D01*
X139122776Y-110646113D02*
X139109551Y-110683073D01*
X139132314Y-101401963D02*
X139138073Y-101440793D01*
X139132314Y-110608036D02*
X139122776Y-110646113D01*
X139138073Y-101440793D02*
X139139999Y-101479999D01*
X139138073Y-110569206D02*
X139132314Y-110608036D01*
X139139999Y-101479999D02*
X139139999Y-110530000D01*
X139139999Y-110530000D02*
X139138073Y-110569206D01*
X140250000Y-106000000D02*
X140254333Y-105911784D01*
X140254333Y-105911784D02*
X140267293Y-105824418D01*
X140254333Y-106088215D02*
X140250000Y-106000000D01*
X140267293Y-105824418D02*
X140288753Y-105738743D01*
X140267293Y-106175581D02*
X140254333Y-106088215D01*
X140288753Y-105738743D02*
X140318508Y-105655584D01*
X140288753Y-106261256D02*
X140267293Y-106175581D01*
X140318508Y-105655584D02*
X140356270Y-105575742D01*
X140318508Y-106344415D02*
X140288753Y-106261256D01*
X140356270Y-105575742D02*
X140401677Y-105499986D01*
X140356270Y-106424257D02*
X140318508Y-106344415D01*
X140401677Y-105499986D02*
X140454290Y-105429046D01*
X140401677Y-106500013D02*
X140356270Y-106424257D01*
X140454290Y-105429046D02*
X140513603Y-105363603D01*
X140454290Y-106570953D02*
X140401677Y-106500013D01*
X140513603Y-105363603D02*
X140579046Y-105304290D01*
X140513603Y-106636396D02*
X140454290Y-106570953D01*
X140579046Y-105304290D02*
X140649986Y-105251677D01*
X140579046Y-106695709D02*
X140513603Y-106636396D01*
X140649986Y-105251677D02*
X140725742Y-105206270D01*
X140649986Y-106748322D02*
X140579046Y-106695709D01*
X140725742Y-105206270D02*
X140805584Y-105168508D01*
X140725742Y-106793729D02*
X140649986Y-106748322D01*
X140805584Y-105168508D02*
X140888743Y-105138753D01*
X140805584Y-106831491D02*
X140725742Y-106793729D01*
X140888743Y-105138753D02*
X140974418Y-105117293D01*
X140888743Y-106861246D02*
X140805584Y-106831491D01*
X140974418Y-105117293D02*
X141061784Y-105104333D01*
X140974418Y-106882706D02*
X140888743Y-106861246D01*
X141061784Y-105104333D02*
X141150000Y-105100000D01*
X141061784Y-106895666D02*
X140974418Y-106882706D01*
X141150000Y-105100000D02*
X141350000Y-105100000D01*
X141150000Y-106900000D02*
X141061784Y-106895666D01*
X141350000Y-105100000D02*
X141438215Y-105104333D01*
X141350000Y-106900000D02*
X141150000Y-106900000D01*
X141438215Y-105104333D02*
X141525581Y-105117293D01*
X141438215Y-106895666D02*
X141350000Y-106900000D01*
X141525581Y-105117293D02*
X141611256Y-105138753D01*
X141525581Y-106882706D02*
X141438215Y-106895666D01*
X141611256Y-105138753D02*
X141694415Y-105168508D01*
X141611256Y-106861246D02*
X141525581Y-106882706D01*
X141694415Y-105168508D02*
X141774257Y-105206270D01*
X141694415Y-106831491D02*
X141611256Y-106861246D01*
X141774257Y-105206270D02*
X141850013Y-105251677D01*
X141774257Y-106793729D02*
X141694415Y-106831491D01*
X141850013Y-105251677D02*
X141920953Y-105304290D01*
X141850013Y-106748322D02*
X141774257Y-106793729D01*
X141920953Y-105304290D02*
X141986396Y-105363603D01*
X141920953Y-106695709D02*
X141850013Y-106748322D01*
X141986396Y-105363603D02*
X142045709Y-105429046D01*
X141986396Y-106636396D02*
X141920953Y-106695709D01*
X142045709Y-105429046D02*
X142098322Y-105499986D01*
X142045709Y-106570953D02*
X141986396Y-106636396D01*
X142080000Y-101600000D02*
X142081926Y-101560793D01*
X142080000Y-102400000D02*
X142080000Y-101600000D01*
X142080000Y-109600000D02*
X142081926Y-109560793D01*
X142080000Y-110400000D02*
X142080000Y-109600000D01*
X142081926Y-101560793D02*
X142087685Y-101521963D01*
X142081926Y-102439206D02*
X142080000Y-102400000D01*
X142081926Y-109560793D02*
X142087685Y-109521963D01*
X142081926Y-110439206D02*
X142080000Y-110400000D01*
X142087685Y-101521963D02*
X142097223Y-101483886D01*
X142087685Y-102478036D02*
X142081926Y-102439206D01*
X142087685Y-109521963D02*
X142097223Y-109483886D01*
X142087685Y-110478036D02*
X142081926Y-110439206D01*
X142097223Y-101483886D02*
X142110448Y-101446926D01*
X142097223Y-102516113D02*
X142087685Y-102478036D01*
X142097223Y-109483886D02*
X142110448Y-109446926D01*
X142097223Y-110516113D02*
X142087685Y-110478036D01*
X142098322Y-105499986D02*
X142143729Y-105575742D01*
X142098322Y-106500013D02*
X142045709Y-106570953D01*
X142110448Y-101446926D02*
X142127231Y-101411441D01*
X142110448Y-102553073D02*
X142097223Y-102516113D01*
X142110448Y-109446926D02*
X142127231Y-109411441D01*
X142110448Y-110553073D02*
X142097223Y-110516113D01*
X142127231Y-101411441D02*
X142147412Y-101377771D01*
X142127231Y-102588558D02*
X142110448Y-102553073D01*
X142127231Y-109411441D02*
X142147412Y-109377771D01*
X142127231Y-110588558D02*
X142110448Y-110553073D01*
X142143729Y-105575742D02*
X142181491Y-105655584D01*
X142143729Y-106424257D02*
X142098322Y-106500013D01*
X142147412Y-101377771D02*
X142170795Y-101346242D01*
X142147412Y-102622228D02*
X142127231Y-102588558D01*
X142147412Y-109377771D02*
X142170795Y-109346242D01*
X142147412Y-110622228D02*
X142127231Y-110588558D01*
X142170795Y-101346242D02*
X142197157Y-101317157D01*
X142170795Y-102653757D02*
X142147412Y-102622228D01*
X142170795Y-109346242D02*
X142197157Y-109317157D01*
X142170795Y-110653757D02*
X142147412Y-110622228D01*
X142181491Y-105655584D02*
X142211246Y-105738743D01*
X142181491Y-106344415D02*
X142143729Y-106424257D01*
X142197157Y-101317157D02*
X142226242Y-101290795D01*
X142197157Y-102682842D02*
X142170795Y-102653757D01*
X142197157Y-109317157D02*
X142226242Y-109290795D01*
X142197157Y-110682842D02*
X142170795Y-110653757D01*
X142211246Y-105738743D02*
X142232706Y-105824418D01*
X142211246Y-106261256D02*
X142181491Y-106344415D01*
X142226242Y-101290795D02*
X142257771Y-101267412D01*
X142226242Y-102709204D02*
X142197157Y-102682842D01*
X142226242Y-109290795D02*
X142257771Y-109267412D01*
X142226242Y-110709204D02*
X142197157Y-110682842D01*
X142232706Y-105824418D02*
X142245666Y-105911784D01*
X142232706Y-106175581D02*
X142211246Y-106261256D01*
X142245666Y-105911784D02*
X142250000Y-106000000D01*
X142245666Y-106088215D02*
X142232706Y-106175581D01*
X142250000Y-106000000D02*
X142245666Y-106088215D01*
X142257771Y-101267412D02*
X142291441Y-101247231D01*
X142257771Y-102732587D02*
X142226242Y-102709204D01*
X142257771Y-109267412D02*
X142291441Y-109247231D01*
X142257771Y-110732587D02*
X142226242Y-110709204D01*
X142291441Y-101247231D02*
X142326926Y-101230448D01*
X142291441Y-102752768D02*
X142257771Y-102732587D01*
X142291441Y-109247231D02*
X142326926Y-109230448D01*
X142291441Y-110752768D02*
X142257771Y-110732587D01*
X142326926Y-101230448D02*
X142363886Y-101217223D01*
X142326926Y-102769551D02*
X142291441Y-102752768D01*
X142326926Y-109230448D02*
X142363886Y-109217223D01*
X142326926Y-110769551D02*
X142291441Y-110752768D01*
X142363886Y-101217223D02*
X142401963Y-101207685D01*
X142363886Y-102782776D02*
X142326926Y-102769551D01*
X142363886Y-109217223D02*
X142401963Y-109207685D01*
X142363886Y-110782776D02*
X142326926Y-110769551D01*
X142401963Y-101207685D02*
X142440793Y-101201926D01*
X142401963Y-102792314D02*
X142363886Y-102782776D01*
X142401963Y-109207685D02*
X142440793Y-109201926D01*
X142401963Y-110792314D02*
X142363886Y-110782776D01*
X142440793Y-101201926D02*
X142480000Y-101200000D01*
X142440793Y-102798073D02*
X142401963Y-102792314D01*
X142440793Y-109201926D02*
X142480000Y-109200000D01*
X142440793Y-110798073D02*
X142401963Y-110792314D01*
X142480000Y-101200000D02*
X143680000Y-101200000D01*
X142480000Y-102800000D02*
X142440793Y-102798073D01*
X142480000Y-109200000D02*
X143680000Y-109200000D01*
X142480000Y-110800000D02*
X142440793Y-110798073D01*
X143680000Y-101200000D02*
X143719206Y-101201926D01*
X143680000Y-102800000D02*
X142480000Y-102800000D01*
X143680000Y-109200000D02*
X143719206Y-109201926D01*
X143680000Y-110800000D02*
X142480000Y-110800000D01*
X143719206Y-101201926D02*
X143758036Y-101207685D01*
X143719206Y-102798073D02*
X143680000Y-102800000D01*
X143719206Y-109201926D02*
X143758036Y-109207685D01*
X143719206Y-110798073D02*
X143680000Y-110800000D01*
X143758036Y-101207685D02*
X143796113Y-101217223D01*
X143758036Y-102792314D02*
X143719206Y-102798073D01*
X143758036Y-109207685D02*
X143796113Y-109217223D01*
X143758036Y-110792314D02*
X143719206Y-110798073D01*
X143796113Y-101217223D02*
X143833073Y-101230448D01*
X143796113Y-102782776D02*
X143758036Y-102792314D01*
X143796113Y-109217223D02*
X143833073Y-109230448D01*
X143796113Y-110782776D02*
X143758036Y-110792314D01*
X143833073Y-101230448D02*
X143868558Y-101247231D01*
X143833073Y-102769551D02*
X143796113Y-102782776D01*
X143833073Y-109230448D02*
X143868558Y-109247231D01*
X143833073Y-110769551D02*
X143796113Y-110782776D01*
X143868558Y-101247231D02*
X143902228Y-101267412D01*
X143868558Y-102752768D02*
X143833073Y-102769551D01*
X143868558Y-109247231D02*
X143902228Y-109267412D01*
X143868558Y-110752768D02*
X143833073Y-110769551D01*
X143902228Y-101267412D02*
X143933757Y-101290795D01*
X143902228Y-102732587D02*
X143868558Y-102752768D01*
X143902228Y-109267412D02*
X143933757Y-109290795D01*
X143902228Y-110732587D02*
X143868558Y-110752768D01*
X143933757Y-101290795D02*
X143962842Y-101317157D01*
X143933757Y-102709204D02*
X143902228Y-102732587D01*
X143933757Y-109290795D02*
X143962842Y-109317157D01*
X143933757Y-110709204D02*
X143902228Y-110732587D01*
X143962842Y-101317157D02*
X143989204Y-101346242D01*
X143962842Y-102682842D02*
X143933757Y-102709204D01*
X143962842Y-109317157D02*
X143989204Y-109346242D01*
X143962842Y-110682842D02*
X143933757Y-110709204D01*
X143989204Y-101346242D02*
X144012587Y-101377771D01*
X143989204Y-102653757D02*
X143962842Y-102682842D01*
X143989204Y-109346242D02*
X144012587Y-109377771D01*
X143989204Y-110653757D02*
X143962842Y-110682842D01*
X144012587Y-101377771D02*
X144032768Y-101411441D01*
X144012587Y-102622228D02*
X143989204Y-102653757D01*
X144012587Y-109377771D02*
X144032768Y-109411441D01*
X144012587Y-110622228D02*
X143989204Y-110653757D01*
X144032768Y-101411441D02*
X144049551Y-101446926D01*
X144032768Y-102588558D02*
X144012587Y-102622228D01*
X144032768Y-109411441D02*
X144049551Y-109446926D01*
X144032768Y-110588558D02*
X144012587Y-110622228D01*
X144049551Y-101446926D02*
X144062776Y-101483886D01*
X144049551Y-102553073D02*
X144032768Y-102588558D01*
X144049551Y-109446926D02*
X144062776Y-109483886D01*
X144049551Y-110553073D02*
X144032768Y-110588558D01*
X144062776Y-101483886D02*
X144072314Y-101521963D01*
X144062776Y-102516113D02*
X144049551Y-102553073D01*
X144062776Y-109483886D02*
X144072314Y-109521963D01*
X144062776Y-110516113D02*
X144049551Y-110553073D01*
X144072314Y-101521963D02*
X144078073Y-101560793D01*
X144072314Y-102478036D02*
X144062776Y-102516113D01*
X144072314Y-109521963D02*
X144078073Y-109560793D01*
X144072314Y-110478036D02*
X144062776Y-110516113D01*
X144078073Y-101560793D02*
X144080000Y-101600000D01*
X144078073Y-102439206D02*
X144072314Y-102478036D01*
X144078073Y-109560793D02*
X144080000Y-109600000D01*
X144078073Y-110439206D02*
X144072314Y-110478036D01*
X144080000Y-101600000D02*
X144080000Y-102400000D01*
X144080000Y-102400000D02*
X144078073Y-102439206D01*
X144080000Y-109600000D02*
X144080000Y-110400000D01*
X144080000Y-110400000D02*
X144078073Y-110439206D01*
%TD*%
M02*
