%TF.GenerationSoftware,KiCad,Pcbnew,10.0.3*%
%TF.CreationDate,2026-07-10T11:23:34+05:30*%
%TF.ProjectId,hakai_mouse_final,68616b61-695f-46d6-9f75-73655f66696e,5.3*%
%TF.SameCoordinates,Original*%
%TF.FileFunction,Copper,L2,Bot*%
%TF.FilePolarity,Positive*%
%FSLAX46Y46*%
G04 Gerber Fmt 4.6, Leading zero omitted, Abs format (unit mm)*
G04 Created by KiCad (PCBNEW 10.0.3) date 2026-07-10 11:23:34*
%MOMM*%
%LPD*%
G01*
G04 APERTURE LIST*
G04 Aperture macros list*
%AMRoundRect*
0 Rectangle with rounded corners*
0 $1 Rounding radius*
0 $2 $3 $4 $5 $6 $7 $8 $9 X,Y pos of 4 corners*
0 Add a 4 corners polygon primitive as box body*
4,1,4,$2,$3,$4,$5,$6,$7,$8,$9,$2,$3,0*
0 Add four circle primitives for the rounded corners*
1,1,$1+$1,$2,$3*
1,1,$1+$1,$4,$5*
1,1,$1+$1,$6,$7*
1,1,$1+$1,$8,$9*
0 Add four rect primitives between the rounded corners*
20,1,$1+$1,$2,$3,$4,$5,0*
20,1,$1+$1,$4,$5,$6,$7,0*
20,1,$1+$1,$6,$7,$8,$9,0*
20,1,$1+$1,$8,$9,$2,$3,0*%
G04 Aperture macros list end*
%TA.AperFunction,ComponentPad*%
%ADD10RoundRect,0.250000X-0.350000X-0.625000X0.350000X-0.625000X0.350000X0.625000X-0.350000X0.625000X0*%
%TD*%
%TA.AperFunction,ComponentPad*%
%ADD11O,1.200000X1.750000*%
%TD*%
%TA.AperFunction,ComponentPad*%
%ADD12C,2.100000*%
%TD*%
%TA.AperFunction,ComponentPad*%
%ADD13C,1.700000*%
%TD*%
%TA.AperFunction,ComponentPad*%
%ADD14C,2.300000*%
%TD*%
%TA.AperFunction,ComponentPad*%
%ADD15R,1.700000X1.700000*%
%TD*%
%TA.AperFunction,ComponentPad*%
%ADD16C,1.500000*%
%TD*%
%TA.AperFunction,ComponentPad*%
%ADD17R,0.900000X0.500000*%
%TD*%
%TA.AperFunction,ComponentPad*%
%ADD18O,1.000000X2.100000*%
%TD*%
%TA.AperFunction,ComponentPad*%
%ADD19O,1.000000X1.600000*%
%TD*%
%TA.AperFunction,HeatsinkPad*%
%ADD20C,0.500000*%
%TD*%
%TA.AperFunction,HeatsinkPad*%
%ADD21R,1.680000X1.680000*%
%TD*%
G04 APERTURE END LIST*
D10*
%TO.P,J2,1*%
%TO.N,VBAT*%
X133000000Y-125000000D03*
D11*
%TO.P,J2,2*%
%TO.N,GND*%
X135000000Y-125000000D03*
%TD*%
D12*
%TO.P,SW5,1*%
%TO.N,GND*%
X149920000Y-62000000D03*
%TO.P,SW5,2*%
%TO.N,ENC_SW*%
X155000000Y-62000000D03*
%TO.P,SW5,3*%
%TO.N,unconnected-(SW5-NC-Pad3)*%
X160080000Y-62000000D03*
%TD*%
D13*
%TO.P,EC1,A*%
%TO.N,ENC_A*%
X117000000Y-59000000D03*
%TO.P,EC1,B*%
%TO.N,ENC_B*%
X117000000Y-63000000D03*
%TO.P,EC1,C*%
%TO.N,GND*%
X117000000Y-61000000D03*
D14*
%TO.P,EC1,MP1*%
%TO.N,N/C*%
X113500000Y-55500000D03*
%TO.P,EC1,MP2*%
X113500000Y-66500000D03*
%TD*%
D15*
%TO.P,J3,1*%
%TO.N,1V9_A*%
X107000000Y-133000000D03*
D13*
%TO.P,J3,2*%
%TO.N,SWDIO*%
X107000000Y-135540000D03*
%TO.P,J3,3*%
%TO.N,SWDCLK*%
X107000000Y-138080000D03*
%TO.P,J3,4*%
%TO.N,nRESET*%
X107000000Y-140620000D03*
%TO.P,J3,5*%
%TO.N,GND*%
X107000000Y-143160000D03*
%TD*%
D12*
%TO.P,SW3,1*%
%TO.N,GND*%
X106000000Y-87080000D03*
%TO.P,SW3,2*%
%TO.N,BTN_SIDE_BACK*%
X106000000Y-82000000D03*
%TO.P,SW3,3*%
%TO.N,unconnected-(SW3-NC-Pad3)*%
X106000000Y-76920000D03*
%TD*%
D16*
%TO.P,U5,1*%
%TO.N,SENS_LED*%
X137500000Y-99700000D03*
%TO.P,U5,2*%
%TO.N,VDDREG*%
X135500000Y-99700000D03*
%TO.P,U5,3*%
%TO.N,1V9_A*%
X133500000Y-99700000D03*
%TO.P,U5,4*%
%TO.N,SPI_SCK*%
X131500000Y-99700000D03*
%TO.P,U5,5*%
%TO.N,SENS_MOTION*%
X132500000Y-112300000D03*
%TO.P,U5,6*%
%TO.N,GND*%
X134500000Y-112300000D03*
%TO.P,U5,7*%
%TO.N,SENS_SDIO*%
X136500000Y-112300000D03*
%TO.P,U5,8*%
%TO.N,SENS_NCS*%
X138500000Y-112300000D03*
%TD*%
D12*
%TO.P,SW2,1*%
%TO.N,GND*%
X154920000Y-50000000D03*
%TO.P,SW2,2*%
%TO.N,BTN_RIGHT*%
X160000000Y-50000000D03*
%TO.P,SW2,3*%
%TO.N,unconnected-(SW2-NC-Pad3)*%
X165080000Y-50000000D03*
%TD*%
D17*
%TO.P,ANT1,2*%
%TO.N,GND*%
X135900000Y-140000000D03*
%TD*%
D18*
%TO.P,J1,SH*%
%TO.N,GND*%
X123320000Y-148130000D03*
D19*
X123320000Y-143950000D03*
D18*
X114680000Y-148130000D03*
D19*
X114680000Y-143950000D03*
%TD*%
D12*
%TO.P,SW1,1*%
%TO.N,GND*%
X103920000Y-48000000D03*
%TO.P,SW1,2*%
%TO.N,BTN_LEFT*%
X109000000Y-48000000D03*
%TO.P,SW1,3*%
%TO.N,unconnected-(SW1-NC-Pad3)*%
X114080000Y-48000000D03*
%TD*%
D20*
%TO.P,U2,17*%
%TO.N,GND*%
X111410000Y-119410000D03*
X111410000Y-120590000D03*
D21*
X112000000Y-120000000D03*
D20*
X112590000Y-119410000D03*
X112590000Y-120590000D03*
%TD*%
D12*
%TO.P,SW4,1*%
%TO.N,GND*%
X107200000Y-102080000D03*
%TO.P,SW4,2*%
%TO.N,BTN_SIDE_FWD*%
X107200000Y-97000000D03*
%TO.P,SW4,3*%
%TO.N,unconnected-(SW4-NC-Pad3)*%
X107200000Y-91920000D03*
%TD*%
%TA.AperFunction,Conductor*%
%TO.N,GND*%
G36*
X133806094Y-111050185D02*
G01*
X133851849Y-111102989D01*
X133861793Y-111172147D01*
X133832768Y-111235703D01*
X133811937Y-111254820D01*
X133809873Y-111256319D01*
X133809872Y-111256320D01*
X134453554Y-111900000D01*
X134447339Y-111900000D01*
X134345606Y-111927259D01*
X134254394Y-111979920D01*
X134179920Y-112054394D01*
X134127259Y-112145606D01*
X134100000Y-112247339D01*
X134100000Y-112253552D01*
X133456320Y-111609872D01*
X133440875Y-111611088D01*
X133418658Y-111628222D01*
X133349045Y-111634203D01*
X133287249Y-111601598D01*
X133285986Y-111600353D01*
X133169657Y-111484024D01*
X133083626Y-111426541D01*
X132997598Y-111369059D01*
X132806420Y-111289870D01*
X132806412Y-111289868D01*
X132737281Y-111276117D01*
X132675370Y-111243732D01*
X132640796Y-111183017D01*
X132644535Y-111113247D01*
X132685401Y-111056575D01*
X132750420Y-111030994D01*
X132761472Y-111030500D01*
X133739055Y-111030500D01*
X133806094Y-111050185D01*
G37*
%TD.AperFunction*%
%TA.AperFunction,Conductor*%
G36*
X136305567Y-111050185D02*
G01*
X136351322Y-111102989D01*
X136361266Y-111172147D01*
X136332241Y-111235703D01*
X136273463Y-111273477D01*
X136262719Y-111276117D01*
X136193587Y-111289868D01*
X136193579Y-111289870D01*
X136002403Y-111369058D01*
X135830344Y-111484023D01*
X135714012Y-111600355D01*
X135652689Y-111633839D01*
X135582997Y-111628855D01*
X135559281Y-111611101D01*
X135543677Y-111609873D01*
X134900000Y-112253551D01*
X134900000Y-112247339D01*
X134872741Y-112145606D01*
X134820080Y-112054394D01*
X134745606Y-111979920D01*
X134654394Y-111927259D01*
X134552661Y-111900000D01*
X134546447Y-111900000D01*
X135190125Y-111256320D01*
X135190125Y-111256319D01*
X135188060Y-111254819D01*
X135145394Y-111199490D01*
X135139413Y-111129877D01*
X135172018Y-111068081D01*
X135232856Y-111033723D01*
X135260944Y-111030500D01*
X136238528Y-111030500D01*
X136305567Y-111050185D01*
G37*
%TD.AperFunction*%
%TA.AperFunction,Conductor*%
G36*
X122842539Y-40120185D02*
G01*
X122888294Y-40172989D01*
X122899500Y-40224500D01*
X122899500Y-78019992D01*
X122914799Y-78056928D01*
X122914800Y-78056929D01*
X122943071Y-78085200D01*
X122980009Y-78100500D01*
X122980011Y-78100500D01*
X147019989Y-78100500D01*
X147019991Y-78100500D01*
X147056929Y-78085200D01*
X147085200Y-78056929D01*
X147100500Y-78019991D01*
X147100500Y-73878711D01*
X158149500Y-73878711D01*
X158149500Y-74121288D01*
X158181161Y-74361785D01*
X158243947Y-74596104D01*
X158336773Y-74820205D01*
X158336776Y-74820212D01*
X158458064Y-75030289D01*
X158458066Y-75030292D01*
X158458067Y-75030293D01*
X158605733Y-75222736D01*
X158605739Y-75222743D01*
X158777256Y-75394260D01*
X158777262Y-75394265D01*
X158969711Y-75541936D01*
X159179788Y-75663224D01*
X159403900Y-75756054D01*
X159638211Y-75818838D01*
X159818586Y-75842584D01*
X159878711Y-75850500D01*
X159878712Y-75850500D01*
X160121289Y-75850500D01*
X160169388Y-75844167D01*
X160361789Y-75818838D01*
X160596100Y-75756054D01*
X160820212Y-75663224D01*
X161030289Y-75541936D01*
X161222738Y-75394265D01*
X161394265Y-75222738D01*
X161541936Y-75030289D01*
X161663224Y-74820212D01*
X161756054Y-74596100D01*
X161818838Y-74361789D01*
X161850500Y-74121288D01*
X161850500Y-73878712D01*
X161818838Y-73638211D01*
X161756054Y-73403900D01*
X161752063Y-73394266D01*
X161681014Y-73222738D01*
X161663224Y-73179788D01*
X161541936Y-72969711D01*
X161394265Y-72777262D01*
X161394260Y-72777256D01*
X161222743Y-72605739D01*
X161222736Y-72605733D01*
X161030293Y-72458067D01*
X161030292Y-72458066D01*
X161030289Y-72458064D01*
X160820212Y-72336776D01*
X160820205Y-72336773D01*
X160596104Y-72243947D01*
X160361785Y-72181161D01*
X160121289Y-72149500D01*
X160121288Y-72149500D01*
X159878712Y-72149500D01*
X159878711Y-72149500D01*
X159638214Y-72181161D01*
X159403895Y-72243947D01*
X159179794Y-72336773D01*
X159179785Y-72336777D01*
X158969706Y-72458067D01*
X158777263Y-72605733D01*
X158777256Y-72605739D01*
X158605739Y-72777256D01*
X158605733Y-72777263D01*
X158458067Y-72969706D01*
X158336777Y-73179785D01*
X158336773Y-73179794D01*
X158243947Y-73403895D01*
X158181161Y-73638214D01*
X158149500Y-73878711D01*
X147100500Y-73878711D01*
X147100500Y-61878006D01*
X148370000Y-61878006D01*
X148370000Y-62121993D01*
X148408165Y-62362959D01*
X148483560Y-62594998D01*
X148594323Y-62812380D01*
X148661543Y-62904901D01*
X148661544Y-62904902D01*
X149355387Y-62211059D01*
X149360889Y-62231591D01*
X149439881Y-62368408D01*
X149551592Y-62480119D01*
X149688409Y-62559111D01*
X149708940Y-62564612D01*
X149015096Y-63258454D01*
X149015097Y-63258456D01*
X149107619Y-63325676D01*
X149325001Y-63436439D01*
X149557040Y-63511834D01*
X149798007Y-63550000D01*
X150041993Y-63550000D01*
X150282959Y-63511834D01*
X150514998Y-63436439D01*
X150732377Y-63325678D01*
X150824901Y-63258454D01*
X150824902Y-63258454D01*
X150131059Y-62564612D01*
X150151591Y-62559111D01*
X150288408Y-62480119D01*
X150400119Y-62368408D01*
X150479111Y-62231591D01*
X150484612Y-62211060D01*
X151178454Y-62904902D01*
X151178454Y-62904901D01*
X151245678Y-62812377D01*
X151356439Y-62594998D01*
X151431834Y-62362959D01*
X151470000Y-62121993D01*
X151470000Y-61893713D01*
X153649500Y-61893713D01*
X153649500Y-62106286D01*
X153672341Y-62250502D01*
X153682754Y-62316243D01*
X153708994Y-62397002D01*
X153748444Y-62518414D01*
X153844951Y-62707820D01*
X153969890Y-62879786D01*
X154120213Y-63030109D01*
X154292179Y-63155048D01*
X154292181Y-63155049D01*
X154292184Y-63155051D01*
X154481588Y-63251557D01*
X154683757Y-63317246D01*
X154893713Y-63350500D01*
X154893714Y-63350500D01*
X155106286Y-63350500D01*
X155106287Y-63350500D01*
X155316243Y-63317246D01*
X155518412Y-63251557D01*
X155707816Y-63155051D01*
X155729789Y-63139086D01*
X155879786Y-63030109D01*
X155879788Y-63030106D01*
X155879792Y-63030104D01*
X156030104Y-62879792D01*
X156030106Y-62879788D01*
X156030109Y-62879786D01*
X156155048Y-62707820D01*
X156155047Y-62707820D01*
X156155051Y-62707816D01*
X156251557Y-62518412D01*
X156317246Y-62316243D01*
X156350500Y-62106287D01*
X156350500Y-61893713D01*
X158729500Y-61893713D01*
X158729500Y-62106286D01*
X158752341Y-62250502D01*
X158762754Y-62316243D01*
X158788994Y-62397002D01*
X158828444Y-62518414D01*
X158924951Y-62707820D01*
X159049890Y-62879786D01*
X159200213Y-63030109D01*
X159372179Y-63155048D01*
X159372181Y-63155049D01*
X159372184Y-63155051D01*
X159561588Y-63251557D01*
X159763757Y-63317246D01*
X159973713Y-63350500D01*
X159973714Y-63350500D01*
X160186286Y-63350500D01*
X160186287Y-63350500D01*
X160396243Y-63317246D01*
X160598412Y-63251557D01*
X160787816Y-63155051D01*
X160809789Y-63139086D01*
X160959786Y-63030109D01*
X160959788Y-63030106D01*
X160959792Y-63030104D01*
X161110104Y-62879792D01*
X161110106Y-62879788D01*
X161110109Y-62879786D01*
X161235048Y-62707820D01*
X161235047Y-62707820D01*
X161235051Y-62707816D01*
X161331557Y-62518412D01*
X161397246Y-62316243D01*
X161430500Y-62106287D01*
X161430500Y-61893713D01*
X161397246Y-61683757D01*
X161331557Y-61481588D01*
X161235051Y-61292184D01*
X161235049Y-61292181D01*
X161235048Y-61292179D01*
X161110109Y-61120213D01*
X160959786Y-60969890D01*
X160787820Y-60844951D01*
X160598414Y-60748444D01*
X160598413Y-60748443D01*
X160598412Y-60748443D01*
X160396243Y-60682754D01*
X160396241Y-60682753D01*
X160396240Y-60682753D01*
X160234957Y-60657208D01*
X160186287Y-60649500D01*
X159973713Y-60649500D01*
X159925042Y-60657208D01*
X159763760Y-60682753D01*
X159561585Y-60748444D01*
X159372179Y-60844951D01*
X159200213Y-60969890D01*
X159049890Y-61120213D01*
X158924951Y-61292179D01*
X158828444Y-61481585D01*
X158762753Y-61683760D01*
X158729500Y-61893713D01*
X156350500Y-61893713D01*
X156317246Y-61683757D01*
X156251557Y-61481588D01*
X156155051Y-61292184D01*
X156155049Y-61292181D01*
X156155048Y-61292179D01*
X156030109Y-61120213D01*
X155879786Y-60969890D01*
X155707820Y-60844951D01*
X155518414Y-60748444D01*
X155518413Y-60748443D01*
X155518412Y-60748443D01*
X155316243Y-60682754D01*
X155316241Y-60682753D01*
X155316240Y-60682753D01*
X155154957Y-60657208D01*
X155106287Y-60649500D01*
X154893713Y-60649500D01*
X154845042Y-60657208D01*
X154683760Y-60682753D01*
X154481585Y-60748444D01*
X154292179Y-60844951D01*
X154120213Y-60969890D01*
X153969890Y-61120213D01*
X153844951Y-61292179D01*
X153748444Y-61481585D01*
X153682753Y-61683760D01*
X153649500Y-61893713D01*
X151470000Y-61893713D01*
X151470000Y-61878006D01*
X151431834Y-61637040D01*
X151356439Y-61405001D01*
X151245676Y-61187619D01*
X151178456Y-61095097D01*
X151178454Y-61095096D01*
X150484612Y-61788939D01*
X150479111Y-61768409D01*
X150400119Y-61631592D01*
X150288408Y-61519881D01*
X150151591Y-61440889D01*
X150131058Y-61435387D01*
X150824902Y-60741544D01*
X150824901Y-60741543D01*
X150732380Y-60674323D01*
X150514998Y-60563560D01*
X150282959Y-60488165D01*
X150041993Y-60450000D01*
X149798007Y-60450000D01*
X149557040Y-60488165D01*
X149325001Y-60563560D01*
X149107626Y-60674319D01*
X149015097Y-60741544D01*
X149708941Y-61435387D01*
X149688409Y-61440889D01*
X149551592Y-61519881D01*
X149439881Y-61631592D01*
X149360889Y-61768409D01*
X149355387Y-61788940D01*
X148661544Y-61095097D01*
X148594319Y-61187626D01*
X148483560Y-61405001D01*
X148408165Y-61637040D01*
X148370000Y-61878006D01*
X147100500Y-61878006D01*
X147100500Y-49878006D01*
X153370000Y-49878006D01*
X153370000Y-50121993D01*
X153408165Y-50362959D01*
X153483560Y-50594998D01*
X153594323Y-50812380D01*
X153661543Y-50904901D01*
X153661544Y-50904902D01*
X154355387Y-50211059D01*
X154360889Y-50231591D01*
X154439881Y-50368408D01*
X154551592Y-50480119D01*
X154688409Y-50559111D01*
X154708940Y-50564612D01*
X154015096Y-51258454D01*
X154015097Y-51258456D01*
X154107619Y-51325676D01*
X154325001Y-51436439D01*
X154557040Y-51511834D01*
X154798007Y-51550000D01*
X155041993Y-51550000D01*
X155282959Y-51511834D01*
X155514998Y-51436439D01*
X155732377Y-51325678D01*
X155824901Y-51258454D01*
X155824902Y-51258454D01*
X155131059Y-50564612D01*
X155151591Y-50559111D01*
X155288408Y-50480119D01*
X155400119Y-50368408D01*
X155479111Y-50231591D01*
X155484612Y-50211060D01*
X156178454Y-50904902D01*
X156178454Y-50904901D01*
X156245678Y-50812377D01*
X156356439Y-50594998D01*
X156431834Y-50362959D01*
X156470000Y-50121993D01*
X156470000Y-49893713D01*
X158649500Y-49893713D01*
X158649500Y-50106286D01*
X158682753Y-50316239D01*
X158748444Y-50518414D01*
X158844951Y-50707820D01*
X158969890Y-50879786D01*
X159120213Y-51030109D01*
X159292179Y-51155048D01*
X159292181Y-51155049D01*
X159292184Y-51155051D01*
X159481588Y-51251557D01*
X159683757Y-51317246D01*
X159893713Y-51350500D01*
X159893714Y-51350500D01*
X160106286Y-51350500D01*
X160106287Y-51350500D01*
X160316243Y-51317246D01*
X160518412Y-51251557D01*
X160707816Y-51155051D01*
X160729789Y-51139086D01*
X160879786Y-51030109D01*
X160879788Y-51030106D01*
X160879792Y-51030104D01*
X161030104Y-50879792D01*
X161030106Y-50879788D01*
X161030109Y-50879786D01*
X161155048Y-50707820D01*
X161155047Y-50707820D01*
X161155051Y-50707816D01*
X161251557Y-50518412D01*
X161317246Y-50316243D01*
X161350500Y-50106287D01*
X161350500Y-49893713D01*
X163729500Y-49893713D01*
X163729500Y-50106286D01*
X163762753Y-50316239D01*
X163828444Y-50518414D01*
X163924951Y-50707820D01*
X164049890Y-50879786D01*
X164200213Y-51030109D01*
X164372179Y-51155048D01*
X164372181Y-51155049D01*
X164372184Y-51155051D01*
X164561588Y-51251557D01*
X164763757Y-51317246D01*
X164973713Y-51350500D01*
X164973714Y-51350500D01*
X165186286Y-51350500D01*
X165186287Y-51350500D01*
X165396243Y-51317246D01*
X165598412Y-51251557D01*
X165787816Y-51155051D01*
X165809789Y-51139086D01*
X165959786Y-51030109D01*
X165959788Y-51030106D01*
X165959792Y-51030104D01*
X166110104Y-50879792D01*
X166110106Y-50879788D01*
X166110109Y-50879786D01*
X166235048Y-50707820D01*
X166235047Y-50707820D01*
X166235051Y-50707816D01*
X166331557Y-50518412D01*
X166397246Y-50316243D01*
X166430500Y-50106287D01*
X166430500Y-49893713D01*
X166397246Y-49683757D01*
X166331557Y-49481588D01*
X166235051Y-49292184D01*
X166235049Y-49292181D01*
X166235048Y-49292179D01*
X166110109Y-49120213D01*
X165959786Y-48969890D01*
X165787820Y-48844951D01*
X165598414Y-48748444D01*
X165598413Y-48748443D01*
X165598412Y-48748443D01*
X165396243Y-48682754D01*
X165396241Y-48682753D01*
X165396240Y-48682753D01*
X165234957Y-48657208D01*
X165186287Y-48649500D01*
X164973713Y-48649500D01*
X164925042Y-48657208D01*
X164763760Y-48682753D01*
X164561585Y-48748444D01*
X164372179Y-48844951D01*
X164200213Y-48969890D01*
X164049890Y-49120213D01*
X163924951Y-49292179D01*
X163828444Y-49481585D01*
X163762753Y-49683760D01*
X163729500Y-49893713D01*
X161350500Y-49893713D01*
X161317246Y-49683757D01*
X161251557Y-49481588D01*
X161155051Y-49292184D01*
X161155049Y-49292181D01*
X161155048Y-49292179D01*
X161030109Y-49120213D01*
X160879786Y-48969890D01*
X160707820Y-48844951D01*
X160518414Y-48748444D01*
X160518413Y-48748443D01*
X160518412Y-48748443D01*
X160316243Y-48682754D01*
X160316241Y-48682753D01*
X160316240Y-48682753D01*
X160154957Y-48657208D01*
X160106287Y-48649500D01*
X159893713Y-48649500D01*
X159845042Y-48657208D01*
X159683760Y-48682753D01*
X159481585Y-48748444D01*
X159292179Y-48844951D01*
X159120213Y-48969890D01*
X158969890Y-49120213D01*
X158844951Y-49292179D01*
X158748444Y-49481585D01*
X158682753Y-49683760D01*
X158649500Y-49893713D01*
X156470000Y-49893713D01*
X156470000Y-49878006D01*
X156431834Y-49637040D01*
X156356439Y-49405001D01*
X156245676Y-49187619D01*
X156178456Y-49095097D01*
X156178454Y-49095096D01*
X155484612Y-49788939D01*
X155479111Y-49768409D01*
X155400119Y-49631592D01*
X155288408Y-49519881D01*
X155151591Y-49440889D01*
X155131058Y-49435387D01*
X155824902Y-48741544D01*
X155824901Y-48741543D01*
X155732380Y-48674323D01*
X155514998Y-48563560D01*
X155282959Y-48488165D01*
X155041993Y-48450000D01*
X154798007Y-48450000D01*
X154557040Y-48488165D01*
X154325001Y-48563560D01*
X154107626Y-48674319D01*
X154015097Y-48741544D01*
X154708941Y-49435387D01*
X154688409Y-49440889D01*
X154551592Y-49519881D01*
X154439881Y-49631592D01*
X154360889Y-49768409D01*
X154355387Y-49788940D01*
X153661544Y-49095097D01*
X153594319Y-49187626D01*
X153483560Y-49405001D01*
X153408165Y-49637040D01*
X153370000Y-49878006D01*
X147100500Y-49878006D01*
X147100500Y-40224500D01*
X147120185Y-40157461D01*
X147172989Y-40111706D01*
X147224500Y-40100500D01*
X165907010Y-40100500D01*
X165974049Y-40120185D01*
X165994691Y-40136819D01*
X169863181Y-44005309D01*
X169896666Y-44066632D01*
X169899500Y-44092990D01*
X169899500Y-87947002D01*
X169886409Y-88002456D01*
X165923454Y-95928363D01*
X165923455Y-95928364D01*
X165917404Y-95940466D01*
X165914800Y-95943071D01*
X165908511Y-95958252D01*
X165901168Y-95972938D01*
X165900766Y-95974408D01*
X165900401Y-95975473D01*
X165899800Y-95978498D01*
X165899799Y-95978502D01*
X165899500Y-95980005D01*
X165899500Y-95992024D01*
X165899188Y-96000815D01*
X165898334Y-96012816D01*
X165898525Y-96014323D01*
X165899500Y-96029839D01*
X165899500Y-134876000D01*
X165879815Y-134943039D01*
X165827011Y-134988794D01*
X165775500Y-135000000D01*
X135000000Y-135000000D01*
X135000000Y-149775500D01*
X134980315Y-149842539D01*
X134927511Y-149888294D01*
X134876000Y-149899500D01*
X123573985Y-149899500D01*
X123506946Y-149879815D01*
X123461191Y-149827011D01*
X123451247Y-149757853D01*
X123480272Y-149694297D01*
X123539050Y-149656523D01*
X123549794Y-149653883D01*
X123611681Y-149641572D01*
X123611693Y-149641569D01*
X123793671Y-149566192D01*
X123793684Y-149566185D01*
X123957462Y-149456751D01*
X123957466Y-149456748D01*
X124096748Y-149317466D01*
X124096751Y-149317462D01*
X124206185Y-149153684D01*
X124206192Y-149153671D01*
X124281569Y-148971693D01*
X124281572Y-148971681D01*
X124319999Y-148778495D01*
X124320000Y-148778492D01*
X124320000Y-148380000D01*
X123620000Y-148380000D01*
X123620000Y-147880000D01*
X124320000Y-147880000D01*
X124320000Y-147481508D01*
X124319999Y-147481504D01*
X124281572Y-147288318D01*
X124281569Y-147288306D01*
X124206192Y-147106328D01*
X124206185Y-147106315D01*
X124096751Y-146942537D01*
X124096748Y-146942533D01*
X123957466Y-146803251D01*
X123957462Y-146803248D01*
X123793684Y-146693814D01*
X123793671Y-146693807D01*
X123611691Y-146618429D01*
X123611683Y-146618427D01*
X123570000Y-146610135D01*
X123570000Y-147413011D01*
X123560060Y-147395795D01*
X123504205Y-147339940D01*
X123435796Y-147300444D01*
X123359496Y-147280000D01*
X123280504Y-147280000D01*
X123204204Y-147300444D01*
X123135795Y-147339940D01*
X123079940Y-147395795D01*
X123070000Y-147413011D01*
X123070000Y-146610136D01*
X123069999Y-146610135D01*
X123028316Y-146618427D01*
X123028308Y-146618429D01*
X122846328Y-146693807D01*
X122846315Y-146693814D01*
X122682537Y-146803248D01*
X122682533Y-146803251D01*
X122543248Y-146942536D01*
X122430427Y-147111387D01*
X122429003Y-147110435D01*
X122385742Y-147154451D01*
X122317600Y-147169892D01*
X122251927Y-147146041D01*
X122249907Y-147144306D01*
X122249811Y-147144432D01*
X122243367Y-147139487D01*
X122243365Y-147139485D01*
X122177750Y-147101602D01*
X122112136Y-147063719D01*
X122038950Y-147044109D01*
X121965766Y-147024500D01*
X121814234Y-147024500D01*
X121667863Y-147063719D01*
X121536635Y-147139485D01*
X121536632Y-147139487D01*
X121429487Y-147246632D01*
X121429485Y-147246635D01*
X121353719Y-147377863D01*
X121314500Y-147524234D01*
X121314500Y-147675765D01*
X121353719Y-147822136D01*
X121391602Y-147887750D01*
X121429485Y-147953365D01*
X121536635Y-148060515D01*
X121667865Y-148136281D01*
X121814234Y-148175500D01*
X121814236Y-148175500D01*
X121965764Y-148175500D01*
X121965766Y-148175500D01*
X122112135Y-148136281D01*
X122243365Y-148060515D01*
X122350515Y-147953365D01*
X122357077Y-147942000D01*
X122407644Y-147893784D01*
X122464464Y-147880000D01*
X123020000Y-147880000D01*
X123020000Y-148380000D01*
X122320000Y-148380000D01*
X122320000Y-148778495D01*
X122358427Y-148971681D01*
X122358430Y-148971693D01*
X122433807Y-149153671D01*
X122433814Y-149153684D01*
X122543248Y-149317462D01*
X122543251Y-149317466D01*
X122682533Y-149456748D01*
X122682537Y-149456751D01*
X122846315Y-149566185D01*
X122846328Y-149566192D01*
X123028306Y-149641569D01*
X123028318Y-149641572D01*
X123090206Y-149653883D01*
X123152117Y-149686267D01*
X123186691Y-149746983D01*
X123182952Y-149816753D01*
X123142086Y-149873425D01*
X123077068Y-149899006D01*
X123066015Y-149899500D01*
X114933985Y-149899500D01*
X114866946Y-149879815D01*
X114821191Y-149827011D01*
X114811247Y-149757853D01*
X114840272Y-149694297D01*
X114899050Y-149656523D01*
X114909794Y-149653883D01*
X114971681Y-149641572D01*
X114971693Y-149641569D01*
X115153671Y-149566192D01*
X115153684Y-149566185D01*
X115317462Y-149456751D01*
X115317466Y-149456748D01*
X115456748Y-149317466D01*
X115456751Y-149317462D01*
X115566185Y-149153684D01*
X115566192Y-149153671D01*
X115641569Y-148971693D01*
X115641572Y-148971681D01*
X115679999Y-148778495D01*
X115680000Y-148778492D01*
X115680000Y-148380000D01*
X114980000Y-148380000D01*
X114980000Y-147880000D01*
X115535536Y-147880000D01*
X115602575Y-147899685D01*
X115642923Y-147942000D01*
X115649482Y-147953361D01*
X115649484Y-147953364D01*
X115649485Y-147953365D01*
X115756635Y-148060515D01*
X115887865Y-148136281D01*
X116034234Y-148175500D01*
X116034236Y-148175500D01*
X116185764Y-148175500D01*
X116185766Y-148175500D01*
X116332135Y-148136281D01*
X116463365Y-148060515D01*
X116570515Y-147953365D01*
X116646281Y-147822135D01*
X116685500Y-147675766D01*
X116685500Y-147524234D01*
X116646281Y-147377865D01*
X116570515Y-147246635D01*
X116463365Y-147139485D01*
X116397750Y-147101602D01*
X116332136Y-147063719D01*
X116258950Y-147044109D01*
X116185766Y-147024500D01*
X116034234Y-147024500D01*
X115887863Y-147063719D01*
X115756635Y-147139485D01*
X115750189Y-147144432D01*
X115748099Y-147141709D01*
X115700217Y-147167466D01*
X115630558Y-147162043D01*
X115574888Y-147119821D01*
X115569299Y-147110976D01*
X115456751Y-146942537D01*
X115456748Y-146942533D01*
X115317466Y-146803251D01*
X115317462Y-146803248D01*
X115153684Y-146693814D01*
X115153671Y-146693807D01*
X114971691Y-146618429D01*
X114971683Y-146618427D01*
X114930000Y-146610135D01*
X114930000Y-147413011D01*
X114920060Y-147395795D01*
X114864205Y-147339940D01*
X114795796Y-147300444D01*
X114719496Y-147280000D01*
X114640504Y-147280000D01*
X114564204Y-147300444D01*
X114495795Y-147339940D01*
X114439940Y-147395795D01*
X114430000Y-147413011D01*
X114430000Y-146610136D01*
X114429999Y-146610135D01*
X114388316Y-146618427D01*
X114388308Y-146618429D01*
X114206328Y-146693807D01*
X114206315Y-146693814D01*
X114042537Y-146803248D01*
X114042533Y-146803251D01*
X113903251Y-146942533D01*
X113903248Y-146942537D01*
X113793814Y-147106315D01*
X113793807Y-147106328D01*
X113718430Y-147288306D01*
X113718427Y-147288318D01*
X113680000Y-147481504D01*
X113680000Y-147880000D01*
X114380000Y-147880000D01*
X114380000Y-148380000D01*
X113680000Y-148380000D01*
X113680000Y-148778495D01*
X113718427Y-148971681D01*
X113718430Y-148971693D01*
X113793807Y-149153671D01*
X113793814Y-149153684D01*
X113903248Y-149317462D01*
X113903251Y-149317466D01*
X114042533Y-149456748D01*
X114042537Y-149456751D01*
X114206315Y-149566185D01*
X114206328Y-149566192D01*
X114388306Y-149641569D01*
X114388318Y-149641572D01*
X114450206Y-149653883D01*
X114512117Y-149686267D01*
X114546691Y-149746983D01*
X114542952Y-149816753D01*
X114502086Y-149873425D01*
X114437068Y-149899006D01*
X114426015Y-149899500D01*
X110092991Y-149899500D01*
X110025952Y-149879815D01*
X110005310Y-149863181D01*
X104136819Y-143994690D01*
X104103334Y-143933367D01*
X104100500Y-143907009D01*
X104100500Y-143053753D01*
X105650000Y-143053753D01*
X105650000Y-143266246D01*
X105683242Y-143476127D01*
X105683242Y-143476130D01*
X105748904Y-143678217D01*
X105845375Y-143867550D01*
X105884728Y-143921716D01*
X106517037Y-143289408D01*
X106534075Y-143352993D01*
X106599901Y-143467007D01*
X106692993Y-143560099D01*
X106807007Y-143625925D01*
X106870590Y-143642962D01*
X106238282Y-144275269D01*
X106238282Y-144275270D01*
X106292449Y-144314624D01*
X106481782Y-144411095D01*
X106683870Y-144476757D01*
X106893754Y-144510000D01*
X107106246Y-144510000D01*
X107316127Y-144476757D01*
X107316130Y-144476757D01*
X107518217Y-144411095D01*
X107707554Y-144314622D01*
X107761716Y-144275270D01*
X107761717Y-144275270D01*
X107722766Y-144236319D01*
X107129408Y-143642962D01*
X107192993Y-143625925D01*
X107307007Y-143560099D01*
X107400099Y-143467007D01*
X107465925Y-143352993D01*
X107482962Y-143289409D01*
X108115270Y-143921717D01*
X108115270Y-143921716D01*
X108154622Y-143867554D01*
X108251095Y-143678217D01*
X108292267Y-143551504D01*
X113680000Y-143551504D01*
X113680000Y-143700000D01*
X114380000Y-143700000D01*
X114380000Y-144200000D01*
X113680000Y-144200000D01*
X113680000Y-144348495D01*
X113718427Y-144541681D01*
X113718430Y-144541693D01*
X113793807Y-144723671D01*
X113793814Y-144723684D01*
X113903248Y-144887462D01*
X113903251Y-144887466D01*
X114042533Y-145026748D01*
X114042537Y-145026751D01*
X114206315Y-145136185D01*
X114206328Y-145136192D01*
X114388308Y-145211569D01*
X114430000Y-145219862D01*
X114430000Y-144416988D01*
X114439940Y-144434205D01*
X114495795Y-144490060D01*
X114564204Y-144529556D01*
X114640504Y-144550000D01*
X114719496Y-144550000D01*
X114795796Y-144529556D01*
X114864205Y-144490060D01*
X114920060Y-144434205D01*
X114930000Y-144416988D01*
X114930000Y-145219862D01*
X114971690Y-145211569D01*
X114971692Y-145211569D01*
X115153671Y-145136192D01*
X115153684Y-145136185D01*
X115317462Y-145026751D01*
X115317466Y-145026748D01*
X115456748Y-144887466D01*
X115456751Y-144887462D01*
X115566185Y-144723684D01*
X115566192Y-144723671D01*
X115641569Y-144541693D01*
X115641572Y-144541681D01*
X115679999Y-144348495D01*
X115680000Y-144348492D01*
X115680000Y-144200000D01*
X114980000Y-144200000D01*
X114980000Y-143700000D01*
X115680000Y-143700000D01*
X115680000Y-143551508D01*
X115679999Y-143551504D01*
X122320000Y-143551504D01*
X122320000Y-143700000D01*
X123020000Y-143700000D01*
X123020000Y-144200000D01*
X122320000Y-144200000D01*
X122320000Y-144348495D01*
X122358427Y-144541681D01*
X122358430Y-144541693D01*
X122433807Y-144723671D01*
X122433814Y-144723684D01*
X122543248Y-144887462D01*
X122543251Y-144887466D01*
X122682533Y-145026748D01*
X122682537Y-145026751D01*
X122846315Y-145136185D01*
X122846328Y-145136192D01*
X123028308Y-145211569D01*
X123070000Y-145219862D01*
X123070000Y-144416988D01*
X123079940Y-144434205D01*
X123135795Y-144490060D01*
X123204204Y-144529556D01*
X123280504Y-144550000D01*
X123359496Y-144550000D01*
X123435796Y-144529556D01*
X123504205Y-144490060D01*
X123560060Y-144434205D01*
X123570000Y-144416988D01*
X123570000Y-145219862D01*
X123611690Y-145211569D01*
X123611692Y-145211569D01*
X123793671Y-145136192D01*
X123793684Y-145136185D01*
X123957462Y-145026751D01*
X123957466Y-145026748D01*
X124096748Y-144887466D01*
X124096751Y-144887462D01*
X124206185Y-144723684D01*
X124206192Y-144723671D01*
X124281569Y-144541693D01*
X124281572Y-144541681D01*
X124319999Y-144348495D01*
X124320000Y-144348492D01*
X124320000Y-144200000D01*
X123620000Y-144200000D01*
X123620000Y-143700000D01*
X124320000Y-143700000D01*
X124320000Y-143551508D01*
X124319999Y-143551504D01*
X124281572Y-143358318D01*
X124281569Y-143358306D01*
X124206192Y-143176328D01*
X124206185Y-143176315D01*
X124096751Y-143012537D01*
X124096748Y-143012533D01*
X123957466Y-142873251D01*
X123957462Y-142873248D01*
X123793684Y-142763814D01*
X123793671Y-142763807D01*
X123611691Y-142688429D01*
X123611683Y-142688427D01*
X123570000Y-142680135D01*
X123570000Y-143483011D01*
X123560060Y-143465795D01*
X123504205Y-143409940D01*
X123435796Y-143370444D01*
X123359496Y-143350000D01*
X123280504Y-143350000D01*
X123204204Y-143370444D01*
X123135795Y-143409940D01*
X123079940Y-143465795D01*
X123070000Y-143483011D01*
X123070000Y-142680136D01*
X123069999Y-142680135D01*
X123028316Y-142688427D01*
X123028308Y-142688429D01*
X122846328Y-142763807D01*
X122846315Y-142763814D01*
X122682537Y-142873248D01*
X122682533Y-142873251D01*
X122543251Y-143012533D01*
X122543248Y-143012537D01*
X122433814Y-143176315D01*
X122433807Y-143176328D01*
X122358430Y-143358306D01*
X122358427Y-143358318D01*
X122320000Y-143551504D01*
X115679999Y-143551504D01*
X115641572Y-143358318D01*
X115641569Y-143358306D01*
X115566192Y-143176328D01*
X115566185Y-143176315D01*
X115456751Y-143012537D01*
X115456748Y-143012533D01*
X115317466Y-142873251D01*
X115317462Y-142873248D01*
X115153684Y-142763814D01*
X115153671Y-142763807D01*
X114971691Y-142688429D01*
X114971683Y-142688427D01*
X114930000Y-142680135D01*
X114930000Y-143483011D01*
X114920060Y-143465795D01*
X114864205Y-143409940D01*
X114795796Y-143370444D01*
X114719496Y-143350000D01*
X114640504Y-143350000D01*
X114564204Y-143370444D01*
X114495795Y-143409940D01*
X114439940Y-143465795D01*
X114430000Y-143483011D01*
X114430000Y-142680136D01*
X114429999Y-142680135D01*
X114388316Y-142688427D01*
X114388308Y-142688429D01*
X114206328Y-142763807D01*
X114206315Y-142763814D01*
X114042537Y-142873248D01*
X114042533Y-142873251D01*
X113903251Y-143012533D01*
X113903248Y-143012537D01*
X113793814Y-143176315D01*
X113793807Y-143176328D01*
X113718430Y-143358306D01*
X113718427Y-143358318D01*
X113680000Y-143551504D01*
X108292267Y-143551504D01*
X108306695Y-143507099D01*
X108316757Y-143476130D01*
X108316757Y-143476127D01*
X108350000Y-143266246D01*
X108350000Y-143053753D01*
X108316757Y-142843872D01*
X108316757Y-142843869D01*
X108251095Y-142641782D01*
X108154624Y-142452449D01*
X108115270Y-142398282D01*
X108115269Y-142398282D01*
X107482962Y-143030590D01*
X107465925Y-142967007D01*
X107400099Y-142852993D01*
X107307007Y-142759901D01*
X107192993Y-142694075D01*
X107129409Y-142677037D01*
X107761716Y-142044728D01*
X107707550Y-142005375D01*
X107518217Y-141908904D01*
X107489292Y-141899506D01*
X107431616Y-141860068D01*
X107404418Y-141795710D01*
X107416333Y-141726863D01*
X107463577Y-141675388D01*
X107471315Y-141671090D01*
X107602994Y-141603996D01*
X107749501Y-141497553D01*
X107877553Y-141369501D01*
X107983996Y-141222994D01*
X108066211Y-141061639D01*
X108122171Y-140889409D01*
X108136765Y-140797259D01*
X108150500Y-140710551D01*
X108150500Y-140529448D01*
X108134019Y-140425397D01*
X108122171Y-140350591D01*
X108066211Y-140178361D01*
X108066211Y-140178360D01*
X108037740Y-140122484D01*
X107983996Y-140017006D01*
X107970396Y-139998287D01*
X107877558Y-139870505D01*
X107877554Y-139870500D01*
X107749499Y-139742445D01*
X107749494Y-139742441D01*
X107602997Y-139636006D01*
X107602996Y-139636005D01*
X107602994Y-139636004D01*
X107551300Y-139609664D01*
X107441639Y-139553788D01*
X107441636Y-139553787D01*
X107269410Y-139497829D01*
X107109321Y-139472473D01*
X107046186Y-139442544D01*
X107009255Y-139383232D01*
X107010253Y-139313370D01*
X107048863Y-139255137D01*
X107109321Y-139227527D01*
X107179425Y-139216422D01*
X107269409Y-139202171D01*
X107441639Y-139146211D01*
X107602994Y-139063996D01*
X107749501Y-138957553D01*
X107877553Y-138829501D01*
X107983996Y-138682994D01*
X108066211Y-138521639D01*
X108122171Y-138349409D01*
X108136765Y-138257259D01*
X108150500Y-138170551D01*
X108150500Y-137989448D01*
X108134019Y-137885397D01*
X108122171Y-137810591D01*
X108066211Y-137638361D01*
X108066211Y-137638360D01*
X108037740Y-137582484D01*
X107983996Y-137477006D01*
X107970396Y-137458287D01*
X107877558Y-137330505D01*
X107877554Y-137330500D01*
X107749499Y-137202445D01*
X107749494Y-137202441D01*
X107602997Y-137096006D01*
X107602996Y-137096005D01*
X107602994Y-137096004D01*
X107551300Y-137069664D01*
X107441639Y-137013788D01*
X107441636Y-137013787D01*
X107269410Y-136957829D01*
X107109321Y-136932473D01*
X107046186Y-136902544D01*
X107009255Y-136843232D01*
X107010253Y-136773370D01*
X107048863Y-136715137D01*
X107109321Y-136687527D01*
X107179425Y-136676422D01*
X107269409Y-136662171D01*
X107441639Y-136606211D01*
X107602994Y-136523996D01*
X107749501Y-136417553D01*
X107877553Y-136289501D01*
X107983996Y-136142994D01*
X108066211Y-135981639D01*
X108122171Y-135809409D01*
X108136765Y-135717259D01*
X108150500Y-135630551D01*
X108150500Y-135449448D01*
X108134019Y-135345397D01*
X108122171Y-135270591D01*
X108066211Y-135098361D01*
X108066211Y-135098360D01*
X108010383Y-134988794D01*
X107983996Y-134937006D01*
X107939673Y-134876000D01*
X107877558Y-134790505D01*
X107877554Y-134790500D01*
X107749499Y-134662445D01*
X107749494Y-134662441D01*
X107602997Y-134556006D01*
X107602996Y-134556005D01*
X107602994Y-134556004D01*
X107551300Y-134529664D01*
X107441639Y-134473788D01*
X107441636Y-134473787D01*
X107269410Y-134417829D01*
X107137728Y-134396972D01*
X107074594Y-134367042D01*
X107037663Y-134307731D01*
X107038661Y-134237868D01*
X107077271Y-134179636D01*
X107141235Y-134151522D01*
X107157120Y-134150499D01*
X107894864Y-134150499D01*
X107894879Y-134150497D01*
X107894882Y-134150497D01*
X107919987Y-134147586D01*
X107919988Y-134147585D01*
X107919991Y-134147585D01*
X108022765Y-134102206D01*
X108102206Y-134022765D01*
X108147585Y-133919991D01*
X108150500Y-133894865D01*
X108150499Y-132105136D01*
X108150497Y-132105117D01*
X108147586Y-132080012D01*
X108147585Y-132080010D01*
X108147585Y-132080009D01*
X108102206Y-131977235D01*
X108022765Y-131897794D01*
X108022763Y-131897793D01*
X107919992Y-131852415D01*
X107894865Y-131849500D01*
X106105143Y-131849500D01*
X106105117Y-131849502D01*
X106080012Y-131852413D01*
X106080008Y-131852415D01*
X105977235Y-131897793D01*
X105897794Y-131977234D01*
X105852415Y-132080006D01*
X105852415Y-132080008D01*
X105849500Y-132105131D01*
X105849500Y-133894856D01*
X105849502Y-133894882D01*
X105852413Y-133919987D01*
X105852415Y-133919991D01*
X105897793Y-134022764D01*
X105897794Y-134022765D01*
X105977235Y-134102206D01*
X106080009Y-134147585D01*
X106105135Y-134150500D01*
X106842873Y-134150499D01*
X106909910Y-134170183D01*
X106955665Y-134222987D01*
X106965609Y-134292146D01*
X106936584Y-134355702D01*
X106877806Y-134393476D01*
X106862270Y-134396972D01*
X106730589Y-134417829D01*
X106558363Y-134473787D01*
X106558360Y-134473788D01*
X106397002Y-134556006D01*
X106250505Y-134662441D01*
X106250500Y-134662445D01*
X106122445Y-134790500D01*
X106122441Y-134790505D01*
X106016006Y-134937002D01*
X105933788Y-135098360D01*
X105933787Y-135098363D01*
X105877829Y-135270589D01*
X105849500Y-135449448D01*
X105849500Y-135630551D01*
X105877829Y-135809410D01*
X105933787Y-135981636D01*
X105933788Y-135981639D01*
X106016006Y-136142997D01*
X106122441Y-136289494D01*
X106122445Y-136289499D01*
X106250500Y-136417554D01*
X106250505Y-136417558D01*
X106378287Y-136510396D01*
X106397006Y-136523996D01*
X106502484Y-136577740D01*
X106558360Y-136606211D01*
X106558363Y-136606212D01*
X106644476Y-136634191D01*
X106730591Y-136662171D01*
X106803639Y-136673740D01*
X106890678Y-136687527D01*
X106953813Y-136717456D01*
X106990744Y-136776768D01*
X106989746Y-136846631D01*
X106951136Y-136904863D01*
X106890678Y-136932473D01*
X106730589Y-136957829D01*
X106558363Y-137013787D01*
X106558360Y-137013788D01*
X106397002Y-137096006D01*
X106250505Y-137202441D01*
X106250500Y-137202445D01*
X106122445Y-137330500D01*
X106122441Y-137330505D01*
X106016006Y-137477002D01*
X105933788Y-137638360D01*
X105933787Y-137638363D01*
X105877829Y-137810589D01*
X105849500Y-137989448D01*
X105849500Y-138170551D01*
X105877829Y-138349410D01*
X105933787Y-138521636D01*
X105933788Y-138521639D01*
X106016006Y-138682997D01*
X106122441Y-138829494D01*
X106122445Y-138829499D01*
X106250500Y-138957554D01*
X106250505Y-138957558D01*
X106378287Y-139050396D01*
X106397006Y-139063996D01*
X106502484Y-139117740D01*
X106558360Y-139146211D01*
X106558363Y-139146212D01*
X106644476Y-139174191D01*
X106730591Y-139202171D01*
X106803639Y-139213740D01*
X106890678Y-139227527D01*
X106953813Y-139257456D01*
X106990744Y-139316768D01*
X106989746Y-139386631D01*
X106951136Y-139444863D01*
X106890678Y-139472473D01*
X106730589Y-139497829D01*
X106558363Y-139553787D01*
X106558360Y-139553788D01*
X106397002Y-139636006D01*
X106250505Y-139742441D01*
X106250500Y-139742445D01*
X106122445Y-139870500D01*
X106122441Y-139870505D01*
X106016006Y-140017002D01*
X105933788Y-140178360D01*
X105933787Y-140178363D01*
X105877829Y-140350589D01*
X105849500Y-140529448D01*
X105849500Y-140710551D01*
X105877829Y-140889410D01*
X105933787Y-141061636D01*
X105933788Y-141061639D01*
X106016006Y-141222997D01*
X106122441Y-141369494D01*
X106122445Y-141369499D01*
X106250500Y-141497554D01*
X106250505Y-141497558D01*
X106378287Y-141590396D01*
X106397006Y-141603996D01*
X106498780Y-141655853D01*
X106528684Y-141671090D01*
X106579480Y-141719065D01*
X106596275Y-141786886D01*
X106573737Y-141853021D01*
X106519022Y-141896472D01*
X106510708Y-141899506D01*
X106481781Y-141908905D01*
X106292439Y-142005380D01*
X106238282Y-142044727D01*
X106238282Y-142044728D01*
X106870591Y-142677037D01*
X106807007Y-142694075D01*
X106692993Y-142759901D01*
X106599901Y-142852993D01*
X106534075Y-142967007D01*
X106517037Y-143030591D01*
X105884728Y-142398282D01*
X105884727Y-142398282D01*
X105845380Y-142452439D01*
X105748904Y-142641782D01*
X105683242Y-142843869D01*
X105683242Y-142843872D01*
X105650000Y-143053753D01*
X104100500Y-143053753D01*
X104100500Y-129878711D01*
X153149500Y-129878711D01*
X153149500Y-130121288D01*
X153181161Y-130361785D01*
X153243947Y-130596104D01*
X153336773Y-130820205D01*
X153336776Y-130820212D01*
X153458064Y-131030289D01*
X153458066Y-131030292D01*
X153458067Y-131030293D01*
X153605733Y-131222736D01*
X153605739Y-131222743D01*
X153777256Y-131394260D01*
X153777262Y-131394265D01*
X153969711Y-131541936D01*
X154179788Y-131663224D01*
X154403900Y-131756054D01*
X154638211Y-131818838D01*
X154818586Y-131842584D01*
X154878711Y-131850500D01*
X154878712Y-131850500D01*
X155121289Y-131850500D01*
X155169388Y-131844167D01*
X155361789Y-131818838D01*
X155596100Y-131756054D01*
X155820212Y-131663224D01*
X156030289Y-131541936D01*
X156222738Y-131394265D01*
X156394265Y-131222738D01*
X156541936Y-131030289D01*
X156663224Y-130820212D01*
X156756054Y-130596100D01*
X156818838Y-130361789D01*
X156850500Y-130121288D01*
X156850500Y-129878712D01*
X156818838Y-129638211D01*
X156756054Y-129403900D01*
X156663224Y-129179788D01*
X156541936Y-128969711D01*
X156394265Y-128777262D01*
X156394260Y-128777256D01*
X156222743Y-128605739D01*
X156222736Y-128605733D01*
X156030293Y-128458067D01*
X156030292Y-128458066D01*
X156030289Y-128458064D01*
X155820212Y-128336776D01*
X155820205Y-128336773D01*
X155596104Y-128243947D01*
X155361785Y-128181161D01*
X155121289Y-128149500D01*
X155121288Y-128149500D01*
X154878712Y-128149500D01*
X154878711Y-128149500D01*
X154638214Y-128181161D01*
X154403895Y-128243947D01*
X154179794Y-128336773D01*
X154179785Y-128336777D01*
X153969706Y-128458067D01*
X153777263Y-128605733D01*
X153777256Y-128605739D01*
X153605739Y-128777256D01*
X153605733Y-128777263D01*
X153458067Y-128969706D01*
X153336777Y-129179785D01*
X153336773Y-129179794D01*
X153243947Y-129403895D01*
X153181161Y-129638214D01*
X153149500Y-129878711D01*
X104100500Y-129878711D01*
X104100500Y-124331898D01*
X132099500Y-124331898D01*
X132099500Y-125668102D01*
X132103001Y-125697257D01*
X132110122Y-125756561D01*
X132165639Y-125897343D01*
X132257077Y-126017922D01*
X132377656Y-126109360D01*
X132377657Y-126109360D01*
X132377658Y-126109361D01*
X132518436Y-126164877D01*
X132606898Y-126175500D01*
X132606903Y-126175500D01*
X133393097Y-126175500D01*
X133393102Y-126175500D01*
X133481564Y-126164877D01*
X133622342Y-126109361D01*
X133742922Y-126017922D01*
X133834361Y-125897342D01*
X133842292Y-125877228D01*
X133885195Y-125822086D01*
X133951102Y-125798890D01*
X134019087Y-125815008D01*
X134057965Y-125849832D01*
X134160961Y-125991596D01*
X134283397Y-126114032D01*
X134423475Y-126215804D01*
X134577744Y-126294408D01*
X134742415Y-126347914D01*
X134742414Y-126347914D01*
X134749999Y-126349115D01*
X134750000Y-126349114D01*
X134750000Y-125280330D01*
X134769745Y-125300075D01*
X134855255Y-125349444D01*
X134950630Y-125375000D01*
X135049370Y-125375000D01*
X135144745Y-125349444D01*
X135230255Y-125300075D01*
X135250000Y-125280330D01*
X135250000Y-126349115D01*
X135257584Y-126347914D01*
X135422255Y-126294408D01*
X135576524Y-126215804D01*
X135716602Y-126114032D01*
X135839032Y-125991602D01*
X135940804Y-125851524D01*
X136019408Y-125697257D01*
X136072914Y-125532584D01*
X136100000Y-125361571D01*
X136100000Y-125250000D01*
X135280330Y-125250000D01*
X135300075Y-125230255D01*
X135349444Y-125144745D01*
X135375000Y-125049370D01*
X135375000Y-124950630D01*
X135349444Y-124855255D01*
X135300075Y-124769745D01*
X135280330Y-124750000D01*
X136100000Y-124750000D01*
X136100000Y-124638428D01*
X136072914Y-124467415D01*
X136019408Y-124302742D01*
X135940804Y-124148475D01*
X135839032Y-124008397D01*
X135716602Y-123885967D01*
X135576524Y-123784195D01*
X135422257Y-123705591D01*
X135257589Y-123652087D01*
X135257581Y-123652085D01*
X135250000Y-123650884D01*
X135250000Y-124719670D01*
X135230255Y-124699925D01*
X135144745Y-124650556D01*
X135049370Y-124625000D01*
X134950630Y-124625000D01*
X134855255Y-124650556D01*
X134769745Y-124699925D01*
X134750000Y-124719670D01*
X134750000Y-123650884D01*
X134749999Y-123650884D01*
X134742418Y-123652085D01*
X134742410Y-123652087D01*
X134577742Y-123705591D01*
X134423475Y-123784195D01*
X134283397Y-123885967D01*
X134160965Y-124008399D01*
X134160961Y-124008404D01*
X134057965Y-124150167D01*
X134002635Y-124192833D01*
X133933022Y-124198812D01*
X133871227Y-124166206D01*
X133842292Y-124122771D01*
X133834361Y-124102658D01*
X133834360Y-124102657D01*
X133834360Y-124102656D01*
X133742922Y-123982077D01*
X133622343Y-123890639D01*
X133481561Y-123835122D01*
X133435926Y-123829642D01*
X133393102Y-123824500D01*
X132606898Y-123824500D01*
X132567853Y-123829188D01*
X132518438Y-123835122D01*
X132377656Y-123890639D01*
X132257077Y-123982077D01*
X132165639Y-124102656D01*
X132110122Y-124243438D01*
X132104188Y-124292853D01*
X132099500Y-124331898D01*
X104100500Y-124331898D01*
X104100500Y-105217007D01*
X127838542Y-105217007D01*
X127839500Y-105229977D01*
X127839500Y-106770024D01*
X127838543Y-106783001D01*
X127839350Y-106799410D01*
X127839500Y-106805389D01*
X127839500Y-106819991D01*
X127839513Y-106820022D01*
X127839524Y-106832207D01*
X127839368Y-106832737D01*
X127840898Y-106843054D01*
X127842088Y-106855135D01*
X127842657Y-106866692D01*
X127844717Y-106880581D01*
X127847519Y-106891769D01*
X127848546Y-106896216D01*
X127849337Y-106899954D01*
X127851206Y-106912555D01*
X127852440Y-106914614D01*
X127854897Y-106926222D01*
X127854772Y-106927832D01*
X127854996Y-106928727D01*
X127858881Y-106939582D01*
X127862414Y-106951225D01*
X127864709Y-106960388D01*
X127866526Y-106964556D01*
X127870932Y-106975573D01*
X127871051Y-106977970D01*
X127876503Y-106989498D01*
X127877916Y-106993031D01*
X127877961Y-106993504D01*
X127879535Y-106997304D01*
X127883429Y-107008186D01*
X127889424Y-107020860D01*
X127895362Y-107030769D01*
X127901094Y-107041495D01*
X127905131Y-107050030D01*
X127907725Y-107053762D01*
X127914198Y-107063709D01*
X127914782Y-107066038D01*
X127922381Y-107076285D01*
X127924456Y-107079473D01*
X127924593Y-107079929D01*
X127926883Y-107083357D01*
X127932826Y-107093273D01*
X127941172Y-107104525D01*
X127948928Y-107113083D01*
X127951933Y-107116523D01*
X127954380Y-107119431D01*
X127961982Y-107129681D01*
X127964043Y-107130916D01*
X127971679Y-107139992D01*
X127972330Y-107141474D01*
X127972939Y-107142147D01*
X127981492Y-107149898D01*
X127990100Y-107158506D01*
X127997858Y-107167066D01*
X128008250Y-107176484D01*
X128010318Y-107178018D01*
X128010319Y-107178019D01*
X128014394Y-107181041D01*
X128017519Y-107183359D01*
X128021138Y-107186148D01*
X128024110Y-107188526D01*
X128033562Y-107197094D01*
X128035824Y-107197903D01*
X128045089Y-107205319D01*
X128046016Y-107206644D01*
X128046731Y-107207175D01*
X128048956Y-107208508D01*
X128048958Y-107208511D01*
X128056655Y-107213124D01*
X128066745Y-107219866D01*
X128073962Y-107225219D01*
X128074348Y-107225505D01*
X128078390Y-107227570D01*
X128088786Y-107233290D01*
X128090401Y-107235072D01*
X128101952Y-107240535D01*
X128105271Y-107242361D01*
X128105609Y-107242701D01*
X128109248Y-107244647D01*
X128119142Y-107250578D01*
X128131806Y-107256567D01*
X128134244Y-107257439D01*
X128134246Y-107257441D01*
X128142740Y-107260480D01*
X128146968Y-107262082D01*
X128150486Y-107263489D01*
X128162030Y-107268949D01*
X128164428Y-107269066D01*
X128175444Y-107273473D01*
X128176718Y-107274474D01*
X128177565Y-107274777D01*
X128180074Y-107275405D01*
X128180075Y-107275406D01*
X128182807Y-107276090D01*
X128188757Y-107277581D01*
X128200401Y-107281113D01*
X128209298Y-107284296D01*
X128213770Y-107285100D01*
X128225381Y-107287556D01*
X128227445Y-107288794D01*
X128240078Y-107290666D01*
X128243789Y-107291452D01*
X128244212Y-107291680D01*
X128248258Y-107292485D01*
X128259438Y-107295286D01*
X128273288Y-107297341D01*
X128275890Y-107297469D01*
X128275893Y-107297470D01*
X128284877Y-107297911D01*
X128290365Y-107298304D01*
X128293652Y-107298612D01*
X128305825Y-107300418D01*
X128307746Y-107299936D01*
X128313747Y-107300500D01*
X128320009Y-107300500D01*
X128334500Y-107300500D01*
X128340587Y-107300649D01*
X128344500Y-107300842D01*
X128357002Y-107301457D01*
X128369975Y-107300500D01*
X129234487Y-107300500D01*
X129240567Y-107300649D01*
X129244009Y-107300817D01*
X129263263Y-107301763D01*
X129275370Y-107302955D01*
X129292385Y-107305479D01*
X129304316Y-107307852D01*
X129320988Y-107312028D01*
X129332621Y-107315557D01*
X129348851Y-107321364D01*
X129360060Y-107326007D01*
X129375632Y-107333372D01*
X129386342Y-107339096D01*
X129401106Y-107347946D01*
X129411201Y-107354691D01*
X129425042Y-107364956D01*
X129434441Y-107372670D01*
X129447181Y-107384217D01*
X129455784Y-107392820D01*
X129467332Y-107405561D01*
X129475048Y-107414962D01*
X129485299Y-107428785D01*
X129492054Y-107438894D01*
X129500897Y-107453648D01*
X129506633Y-107464379D01*
X129513988Y-107479931D01*
X129518637Y-107491155D01*
X129524437Y-107507365D01*
X129527963Y-107518990D01*
X129532146Y-107535686D01*
X129534523Y-107547633D01*
X129537045Y-107564641D01*
X129538236Y-107576742D01*
X129539350Y-107599407D01*
X129539500Y-107605494D01*
X129539500Y-110500024D01*
X129538543Y-110513001D01*
X129539350Y-110529410D01*
X129539500Y-110535389D01*
X129539500Y-110549991D01*
X129539513Y-110550022D01*
X129539524Y-110562207D01*
X129539368Y-110562737D01*
X129540898Y-110573054D01*
X129542088Y-110585135D01*
X129542657Y-110596692D01*
X129544717Y-110610581D01*
X129547519Y-110621769D01*
X129548546Y-110626216D01*
X129549337Y-110629954D01*
X129551206Y-110642555D01*
X129552440Y-110644614D01*
X129554897Y-110656222D01*
X129554772Y-110657832D01*
X129554996Y-110658727D01*
X129558881Y-110669582D01*
X129562414Y-110681225D01*
X129564709Y-110690388D01*
X129566526Y-110694556D01*
X129570932Y-110705573D01*
X129571051Y-110707970D01*
X129576503Y-110719498D01*
X129577916Y-110723031D01*
X129577961Y-110723504D01*
X129579535Y-110727304D01*
X129583429Y-110738186D01*
X129589424Y-110750860D01*
X129595362Y-110760769D01*
X129601094Y-110771495D01*
X129605131Y-110780030D01*
X129607725Y-110783762D01*
X129614198Y-110793709D01*
X129614782Y-110796038D01*
X129622381Y-110806285D01*
X129624456Y-110809473D01*
X129624593Y-110809929D01*
X129626883Y-110813357D01*
X129632826Y-110823273D01*
X129641172Y-110834525D01*
X129648928Y-110843083D01*
X129651933Y-110846523D01*
X129654380Y-110849431D01*
X129661982Y-110859681D01*
X129664043Y-110860916D01*
X129671679Y-110869992D01*
X129672330Y-110871474D01*
X129672939Y-110872147D01*
X129681492Y-110879898D01*
X129690100Y-110888506D01*
X129697858Y-110897066D01*
X129708250Y-110906484D01*
X129710318Y-110908018D01*
X129710319Y-110908019D01*
X129714394Y-110911041D01*
X129717519Y-110913359D01*
X129721138Y-110916148D01*
X129724110Y-110918526D01*
X129733562Y-110927094D01*
X129735824Y-110927903D01*
X129745089Y-110935319D01*
X129746016Y-110936644D01*
X129746731Y-110937175D01*
X129748956Y-110938508D01*
X129748958Y-110938511D01*
X129756655Y-110943124D01*
X129766745Y-110949866D01*
X129773961Y-110955218D01*
X129774348Y-110955505D01*
X129778390Y-110957570D01*
X129788786Y-110963290D01*
X129790401Y-110965072D01*
X129801952Y-110970535D01*
X129805271Y-110972361D01*
X129805609Y-110972701D01*
X129809248Y-110974647D01*
X129819142Y-110980578D01*
X129831806Y-110986567D01*
X129834244Y-110987439D01*
X129834246Y-110987441D01*
X129842740Y-110990480D01*
X129846968Y-110992082D01*
X129850486Y-110993489D01*
X129862030Y-110998949D01*
X129864428Y-110999066D01*
X129875444Y-111003473D01*
X129876718Y-111004474D01*
X129877565Y-111004777D01*
X129880074Y-111005405D01*
X129880075Y-111005406D01*
X129882807Y-111006090D01*
X129888757Y-111007581D01*
X129900401Y-111011113D01*
X129909298Y-111014296D01*
X129913770Y-111015100D01*
X129925381Y-111017556D01*
X129927445Y-111018794D01*
X129940078Y-111020666D01*
X129943789Y-111021452D01*
X129944212Y-111021680D01*
X129948258Y-111022485D01*
X129959438Y-111025286D01*
X129973288Y-111027341D01*
X129975890Y-111027469D01*
X129975893Y-111027470D01*
X129984877Y-111027911D01*
X129990365Y-111028304D01*
X129993652Y-111028612D01*
X130005825Y-111030418D01*
X130007746Y-111029936D01*
X130013747Y-111030500D01*
X130020009Y-111030500D01*
X130034500Y-111030500D01*
X130040587Y-111030649D01*
X130044500Y-111030842D01*
X130057002Y-111031457D01*
X130069975Y-111030500D01*
X132238528Y-111030500D01*
X132305567Y-111050185D01*
X132351322Y-111102989D01*
X132361266Y-111172147D01*
X132332241Y-111235703D01*
X132273463Y-111273477D01*
X132262719Y-111276117D01*
X132193587Y-111289868D01*
X132193579Y-111289870D01*
X132002403Y-111369058D01*
X131830342Y-111484024D01*
X131684024Y-111630342D01*
X131569058Y-111802403D01*
X131489870Y-111993579D01*
X131489868Y-111993587D01*
X131449500Y-112196530D01*
X131449500Y-112403469D01*
X131459630Y-112454394D01*
X131489870Y-112606420D01*
X131569059Y-112797598D01*
X131626541Y-112883626D01*
X131684024Y-112969657D01*
X131830342Y-113115975D01*
X131830345Y-113115977D01*
X132002402Y-113230941D01*
X132193580Y-113310130D01*
X132396530Y-113350499D01*
X132396534Y-113350500D01*
X132396535Y-113350500D01*
X132603466Y-113350500D01*
X132603467Y-113350499D01*
X132806420Y-113310130D01*
X132997598Y-113230941D01*
X133169655Y-113115977D01*
X133285987Y-112999644D01*
X133347308Y-112966161D01*
X133417000Y-112971145D01*
X133440714Y-112988897D01*
X133456320Y-112990125D01*
X134100000Y-112346445D01*
X134100000Y-112352661D01*
X134127259Y-112454394D01*
X134179920Y-112545606D01*
X134254394Y-112620080D01*
X134345606Y-112672741D01*
X134447339Y-112700000D01*
X134453553Y-112700000D01*
X133809873Y-113343677D01*
X133809873Y-113343678D01*
X133844858Y-113369096D01*
X134020164Y-113458418D01*
X134207294Y-113519221D01*
X134401618Y-113550000D01*
X134598382Y-113550000D01*
X134792705Y-113519221D01*
X134979835Y-113458418D01*
X135155143Y-113369095D01*
X135190125Y-113343678D01*
X135190126Y-113343678D01*
X134546448Y-112700000D01*
X134552661Y-112700000D01*
X134654394Y-112672741D01*
X134745606Y-112620080D01*
X134820080Y-112545606D01*
X134872741Y-112454394D01*
X134900000Y-112352661D01*
X134900000Y-112346448D01*
X135543678Y-112990126D01*
X135559120Y-112988910D01*
X135581342Y-112971775D01*
X135650955Y-112965796D01*
X135712751Y-112998401D01*
X135714012Y-112999645D01*
X135830342Y-113115975D01*
X135830345Y-113115977D01*
X136002402Y-113230941D01*
X136193580Y-113310130D01*
X136396530Y-113350499D01*
X136396534Y-113350500D01*
X136396535Y-113350500D01*
X136603466Y-113350500D01*
X136603467Y-113350499D01*
X136806420Y-113310130D01*
X136997598Y-113230941D01*
X137169655Y-113115977D01*
X137315977Y-112969655D01*
X137396898Y-112848546D01*
X137450509Y-112803742D01*
X137519834Y-112795035D01*
X137582862Y-112825189D01*
X137603100Y-112848545D01*
X137652924Y-112923112D01*
X137684024Y-112969657D01*
X137830342Y-113115975D01*
X137830345Y-113115977D01*
X138002402Y-113230941D01*
X138193580Y-113310130D01*
X138396530Y-113350499D01*
X138396534Y-113350500D01*
X138396535Y-113350500D01*
X138603466Y-113350500D01*
X138603467Y-113350499D01*
X138806420Y-113310130D01*
X138997598Y-113230941D01*
X139169655Y-113115977D01*
X139315977Y-112969655D01*
X139430941Y-112797598D01*
X139510130Y-112606420D01*
X139550500Y-112403465D01*
X139550500Y-112196535D01*
X139510130Y-111993580D01*
X139430941Y-111802402D01*
X139315977Y-111630345D01*
X139315975Y-111630342D01*
X139169657Y-111484024D01*
X139083626Y-111426541D01*
X138997598Y-111369059D01*
X138806420Y-111289870D01*
X138806412Y-111289868D01*
X138737281Y-111276117D01*
X138716828Y-111265418D01*
X138694663Y-111258963D01*
X138686451Y-111249528D01*
X138675370Y-111243732D01*
X138663948Y-111223674D01*
X138648792Y-111206261D01*
X138646984Y-111193884D01*
X138640796Y-111183017D01*
X138642031Y-111159967D01*
X138638695Y-111137124D01*
X138643865Y-111125735D01*
X138644535Y-111113247D01*
X138658037Y-111094521D01*
X138667580Y-111073505D01*
X138678084Y-111066720D01*
X138685401Y-111056575D01*
X138706881Y-111048123D01*
X138726274Y-111035600D01*
X138745964Y-111032746D01*
X138750420Y-111030994D01*
X138761198Y-111030500D01*
X138772050Y-111030476D01*
X138772132Y-111030500D01*
X138772208Y-111030500D01*
X138772208Y-111030522D01*
X138772634Y-111030646D01*
X138774173Y-111030417D01*
X138774175Y-111030418D01*
X138783049Y-111029101D01*
X138795135Y-111027910D01*
X138804106Y-111027470D01*
X138804107Y-111027469D01*
X138806713Y-111027341D01*
X138820559Y-111025287D01*
X138823062Y-111024659D01*
X138823064Y-111024660D01*
X138831748Y-111022483D01*
X138836215Y-111021452D01*
X138839935Y-111020664D01*
X138852555Y-111018794D01*
X138854616Y-111017558D01*
X138866229Y-111015101D01*
X138867843Y-111015225D01*
X138868708Y-111015009D01*
X138871147Y-111014135D01*
X138871149Y-111014136D01*
X138879585Y-111011116D01*
X138891232Y-111007584D01*
X138900383Y-111005292D01*
X138904556Y-111003472D01*
X138915568Y-110999066D01*
X138917970Y-110998949D01*
X138929519Y-110993486D01*
X138933035Y-110992080D01*
X138933512Y-110992034D01*
X138937296Y-110990466D01*
X138945754Y-110987441D01*
X138945757Y-110987438D01*
X138948203Y-110986563D01*
X138960848Y-110980583D01*
X138963076Y-110979247D01*
X138963078Y-110979247D01*
X138970760Y-110974641D01*
X138981484Y-110968909D01*
X138989599Y-110965072D01*
X138989600Y-110965070D01*
X138990033Y-110964866D01*
X138993761Y-110962274D01*
X139003706Y-110955801D01*
X139006038Y-110955218D01*
X139016296Y-110947608D01*
X139019470Y-110945544D01*
X139019930Y-110945405D01*
X139023350Y-110943120D01*
X139031042Y-110938511D01*
X139031044Y-110938508D01*
X139033275Y-110937171D01*
X139044520Y-110928831D01*
X139046435Y-110927094D01*
X139046438Y-110927094D01*
X139053106Y-110921049D01*
X139056522Y-110918066D01*
X139059422Y-110915625D01*
X139069681Y-110908018D01*
X139070917Y-110905954D01*
X139079997Y-110898316D01*
X139081481Y-110897663D01*
X139082139Y-110897067D01*
X139083878Y-110895148D01*
X139083881Y-110895147D01*
X139089902Y-110888502D01*
X139098507Y-110879898D01*
X139105147Y-110873881D01*
X139105148Y-110873878D01*
X139107075Y-110872132D01*
X139116482Y-110861753D01*
X139123351Y-110852491D01*
X139126147Y-110848862D01*
X139128524Y-110845892D01*
X139137094Y-110836438D01*
X139137903Y-110834173D01*
X139145318Y-110824911D01*
X139146649Y-110823980D01*
X139147173Y-110823272D01*
X139148508Y-110821043D01*
X139148511Y-110821042D01*
X139153117Y-110813357D01*
X139159870Y-110803249D01*
X139165219Y-110796038D01*
X139165219Y-110796035D01*
X139165505Y-110795651D01*
X139167568Y-110791614D01*
X139173291Y-110781212D01*
X139175072Y-110779599D01*
X139180532Y-110768052D01*
X139182361Y-110764729D01*
X139182701Y-110764391D01*
X139184641Y-110760760D01*
X139189247Y-110753078D01*
X139189247Y-110753076D01*
X139190583Y-110750848D01*
X139196563Y-110738203D01*
X139197438Y-110735757D01*
X139197441Y-110735754D01*
X139200482Y-110727253D01*
X139202080Y-110723035D01*
X139203486Y-110719519D01*
X139208949Y-110707970D01*
X139209066Y-110705568D01*
X139213472Y-110694556D01*
X139214477Y-110693276D01*
X139214773Y-110692450D01*
X139215405Y-110689926D01*
X139215406Y-110689925D01*
X139217585Y-110681225D01*
X139221118Y-110669582D01*
X139223106Y-110664027D01*
X139224136Y-110661149D01*
X139224135Y-110661148D01*
X139225008Y-110658711D01*
X139228414Y-110645113D01*
X139228793Y-110642556D01*
X139228794Y-110642555D01*
X139230107Y-110633692D01*
X139230863Y-110629173D01*
X139231558Y-110625440D01*
X139234659Y-110613065D01*
X139234306Y-110610685D01*
X139236479Y-110599019D01*
X139237212Y-110597574D01*
X139237343Y-110596686D01*
X139237469Y-110594106D01*
X139237471Y-110594104D01*
X139237910Y-110585144D01*
X139239102Y-110573038D01*
X139240418Y-110564175D01*
X139240417Y-110564172D01*
X139240508Y-110563562D01*
X139240476Y-110562218D01*
X139240486Y-110550021D01*
X139240499Y-110549991D01*
X139240499Y-110535414D01*
X139240501Y-110535404D01*
X139240648Y-110529436D01*
X139240813Y-110526069D01*
X139241359Y-110514964D01*
X139241358Y-110514961D01*
X139241455Y-110512989D01*
X139240499Y-110500019D01*
X139240499Y-109617011D01*
X141978543Y-109617011D01*
X141979500Y-109629980D01*
X141979500Y-110370019D01*
X141978543Y-110382989D01*
X141979351Y-110399436D01*
X141979500Y-110405414D01*
X141979500Y-110419991D01*
X141979512Y-110420021D01*
X141979523Y-110432211D01*
X141979368Y-110432740D01*
X141980896Y-110443045D01*
X141982087Y-110455142D01*
X141982654Y-110466675D01*
X141984716Y-110480582D01*
X141987518Y-110491769D01*
X141988545Y-110496216D01*
X141989336Y-110499954D01*
X141991205Y-110512555D01*
X141992439Y-110514614D01*
X141994896Y-110526222D01*
X141994771Y-110527832D01*
X141994995Y-110528727D01*
X141998880Y-110539582D01*
X142002413Y-110551225D01*
X142004708Y-110560388D01*
X142006525Y-110564556D01*
X142010931Y-110575573D01*
X142011050Y-110577970D01*
X142016502Y-110589498D01*
X142017915Y-110593031D01*
X142017960Y-110593504D01*
X142019534Y-110597304D01*
X142023428Y-110608186D01*
X142029423Y-110620860D01*
X142035361Y-110630769D01*
X142041093Y-110641495D01*
X142045130Y-110650030D01*
X142047724Y-110653762D01*
X142054197Y-110663709D01*
X142054781Y-110666038D01*
X142062380Y-110676285D01*
X142064455Y-110679473D01*
X142064592Y-110679929D01*
X142066882Y-110683357D01*
X142072825Y-110693273D01*
X142081171Y-110704525D01*
X142088927Y-110713083D01*
X142091932Y-110716523D01*
X142094379Y-110719431D01*
X142101981Y-110729681D01*
X142104042Y-110730916D01*
X142111678Y-110739992D01*
X142112329Y-110741474D01*
X142112938Y-110742147D01*
X142121491Y-110749898D01*
X142130099Y-110758506D01*
X142137857Y-110767066D01*
X142148249Y-110776484D01*
X142150317Y-110778018D01*
X142150318Y-110778019D01*
X142153030Y-110780030D01*
X142157518Y-110783359D01*
X142161137Y-110786148D01*
X142164109Y-110788526D01*
X142173561Y-110797094D01*
X142175823Y-110797903D01*
X142185088Y-110805319D01*
X142186015Y-110806644D01*
X142186730Y-110807175D01*
X142188955Y-110808508D01*
X142188957Y-110808511D01*
X142196654Y-110813124D01*
X142206744Y-110819866D01*
X142213546Y-110824911D01*
X142214347Y-110825505D01*
X142218389Y-110827570D01*
X142228785Y-110833290D01*
X142230400Y-110835072D01*
X142241951Y-110840535D01*
X142245270Y-110842361D01*
X142245608Y-110842701D01*
X142249243Y-110844645D01*
X142253302Y-110847078D01*
X142259141Y-110850578D01*
X142271805Y-110856567D01*
X142274243Y-110857439D01*
X142274245Y-110857441D01*
X142282739Y-110860480D01*
X142286967Y-110862082D01*
X142290485Y-110863489D01*
X142302029Y-110868949D01*
X142304427Y-110869066D01*
X142315443Y-110873473D01*
X142316717Y-110874474D01*
X142317564Y-110874777D01*
X142320073Y-110875405D01*
X142320074Y-110875406D01*
X142322806Y-110876090D01*
X142328756Y-110877581D01*
X142340400Y-110881113D01*
X142349297Y-110884296D01*
X142353769Y-110885100D01*
X142365380Y-110887556D01*
X142367444Y-110888794D01*
X142380077Y-110890666D01*
X142383788Y-110891452D01*
X142384211Y-110891680D01*
X142388257Y-110892485D01*
X142399425Y-110895283D01*
X142413315Y-110897343D01*
X142415892Y-110897469D01*
X142415893Y-110897470D01*
X142417703Y-110897559D01*
X142424856Y-110897911D01*
X142430362Y-110898304D01*
X142433654Y-110898613D01*
X142445824Y-110900418D01*
X142447745Y-110899936D01*
X142453745Y-110900500D01*
X142460009Y-110900500D01*
X142474500Y-110900500D01*
X142480587Y-110900649D01*
X142484500Y-110900842D01*
X142497002Y-110901457D01*
X142509975Y-110900500D01*
X143662563Y-110900500D01*
X143664967Y-110901360D01*
X143682463Y-110900500D01*
X143699991Y-110900500D01*
X143712209Y-110900500D01*
X143712209Y-110900709D01*
X143714173Y-110900417D01*
X143714175Y-110900418D01*
X143723049Y-110899101D01*
X143735135Y-110897910D01*
X143744106Y-110897470D01*
X143744107Y-110897469D01*
X143746713Y-110897341D01*
X143760559Y-110895287D01*
X143763062Y-110894659D01*
X143763064Y-110894660D01*
X143771748Y-110892483D01*
X143776215Y-110891452D01*
X143779935Y-110890664D01*
X143792555Y-110888794D01*
X143794616Y-110887558D01*
X143806229Y-110885101D01*
X143807843Y-110885225D01*
X143808708Y-110885009D01*
X143811147Y-110884135D01*
X143811149Y-110884136D01*
X143819585Y-110881116D01*
X143831232Y-110877584D01*
X143840383Y-110875292D01*
X143844556Y-110873472D01*
X143855568Y-110869066D01*
X143857970Y-110868949D01*
X143869519Y-110863486D01*
X143873035Y-110862080D01*
X143873512Y-110862034D01*
X143877296Y-110860466D01*
X143885754Y-110857441D01*
X143885757Y-110857438D01*
X143888203Y-110856563D01*
X143900848Y-110850583D01*
X143903076Y-110849247D01*
X143903078Y-110849247D01*
X143910760Y-110844641D01*
X143921484Y-110838909D01*
X143929599Y-110835072D01*
X143929600Y-110835070D01*
X143930033Y-110834866D01*
X143933761Y-110832274D01*
X143943706Y-110825801D01*
X143946038Y-110825218D01*
X143956296Y-110817608D01*
X143959470Y-110815544D01*
X143959930Y-110815405D01*
X143963350Y-110813120D01*
X143971042Y-110808511D01*
X143971044Y-110808508D01*
X143973275Y-110807171D01*
X143984520Y-110798831D01*
X143986435Y-110797094D01*
X143986438Y-110797094D01*
X143993106Y-110791049D01*
X143996522Y-110788066D01*
X143999422Y-110785625D01*
X144009681Y-110778018D01*
X144010917Y-110775954D01*
X144019997Y-110768316D01*
X144021481Y-110767663D01*
X144022139Y-110767067D01*
X144023878Y-110765148D01*
X144023881Y-110765147D01*
X144029902Y-110758502D01*
X144038507Y-110749898D01*
X144045147Y-110743881D01*
X144045148Y-110743878D01*
X144047075Y-110742132D01*
X144056482Y-110731753D01*
X144059768Y-110727323D01*
X144062600Y-110723504D01*
X144063351Y-110722491D01*
X144066147Y-110718862D01*
X144068524Y-110715892D01*
X144077094Y-110706438D01*
X144077903Y-110704173D01*
X144085318Y-110694911D01*
X144086649Y-110693980D01*
X144087173Y-110693272D01*
X144088508Y-110691043D01*
X144088511Y-110691042D01*
X144093117Y-110683357D01*
X144099870Y-110673249D01*
X144105219Y-110666038D01*
X144105219Y-110666035D01*
X144105505Y-110665651D01*
X144107568Y-110661614D01*
X144113291Y-110651212D01*
X144115072Y-110649599D01*
X144120532Y-110638052D01*
X144122361Y-110634729D01*
X144122701Y-110634391D01*
X144124641Y-110630760D01*
X144129247Y-110623078D01*
X144129247Y-110623076D01*
X144130583Y-110620848D01*
X144136563Y-110608203D01*
X144137438Y-110605757D01*
X144137441Y-110605754D01*
X144140482Y-110597253D01*
X144142080Y-110593035D01*
X144143486Y-110589519D01*
X144148949Y-110577970D01*
X144149066Y-110575568D01*
X144153472Y-110564556D01*
X144154477Y-110563276D01*
X144154773Y-110562450D01*
X144155405Y-110559926D01*
X144155406Y-110559925D01*
X144157585Y-110551225D01*
X144161118Y-110539582D01*
X144164136Y-110531149D01*
X144164135Y-110531148D01*
X144165008Y-110528711D01*
X144168414Y-110515113D01*
X144168793Y-110512556D01*
X144168794Y-110512555D01*
X144170107Y-110503692D01*
X144170863Y-110499172D01*
X144171557Y-110495442D01*
X144174659Y-110483065D01*
X144174306Y-110480686D01*
X144176479Y-110469020D01*
X144177214Y-110467571D01*
X144177341Y-110466714D01*
X144177469Y-110464108D01*
X144177470Y-110464107D01*
X144177910Y-110455136D01*
X144179102Y-110443045D01*
X144180418Y-110434175D01*
X144180417Y-110434172D01*
X144180508Y-110433560D01*
X144180476Y-110432214D01*
X144180486Y-110420022D01*
X144180500Y-110419991D01*
X144180500Y-110405389D01*
X144180502Y-110405378D01*
X144180650Y-110399410D01*
X144180742Y-110397533D01*
X144181360Y-110384967D01*
X144181359Y-110384965D01*
X144181456Y-110383001D01*
X144180500Y-110370024D01*
X144180500Y-109617436D01*
X144181360Y-109615033D01*
X144180500Y-109597536D01*
X144180500Y-109580009D01*
X144180500Y-109567796D01*
X144180710Y-109567796D01*
X144179103Y-109556960D01*
X144177911Y-109544856D01*
X144177446Y-109535415D01*
X144176480Y-109530981D01*
X144174306Y-109519310D01*
X144174659Y-109516934D01*
X144171559Y-109504562D01*
X144170863Y-109500824D01*
X144170911Y-109500347D01*
X144170107Y-109496302D01*
X144168794Y-109487444D01*
X144168793Y-109487442D01*
X144168415Y-109484891D01*
X144165006Y-109471282D01*
X144161113Y-109460400D01*
X144159654Y-109456072D01*
X144158503Y-109452438D01*
X144155406Y-109440074D01*
X144153975Y-109438145D01*
X144150392Y-109426832D01*
X144150357Y-109425211D01*
X144150061Y-109424382D01*
X144148949Y-109422031D01*
X144148949Y-109422029D01*
X144145109Y-109413910D01*
X144140467Y-109402703D01*
X144137441Y-109394245D01*
X144137439Y-109394243D01*
X144137277Y-109393789D01*
X144135067Y-109389832D01*
X144129598Y-109379295D01*
X144129247Y-109376921D01*
X144122684Y-109365972D01*
X144120940Y-109362611D01*
X144120848Y-109362141D01*
X144118913Y-109358522D01*
X144115072Y-109350400D01*
X144115070Y-109350398D01*
X144113961Y-109348053D01*
X144106763Y-109336044D01*
X144105219Y-109333962D01*
X144105219Y-109333961D01*
X144099853Y-109326726D01*
X144097214Y-109323026D01*
X144095071Y-109319902D01*
X144088511Y-109308957D01*
X144086582Y-109307526D01*
X144079870Y-109297740D01*
X144079368Y-109296202D01*
X144078828Y-109295475D01*
X144077094Y-109293562D01*
X144077094Y-109293561D01*
X144071074Y-109286920D01*
X144063359Y-109277518D01*
X144057734Y-109269933D01*
X144054462Y-109266781D01*
X144046173Y-109258288D01*
X144045147Y-109256118D01*
X144035686Y-109247543D01*
X144033038Y-109244830D01*
X144032813Y-109244406D01*
X144029898Y-109241491D01*
X144022147Y-109232938D01*
X144011749Y-109223515D01*
X144002483Y-109216642D01*
X143993083Y-109208927D01*
X143986082Y-109202582D01*
X143982258Y-109200128D01*
X143972470Y-109193414D01*
X143971042Y-109191488D01*
X143960097Y-109184927D01*
X143956966Y-109182780D01*
X143956664Y-109182409D01*
X143953239Y-109180121D01*
X143943968Y-109173245D01*
X143931924Y-109166025D01*
X143921495Y-109161093D01*
X143917396Y-109159062D01*
X143914017Y-109157308D01*
X143903078Y-109150752D01*
X143900703Y-109150399D01*
X143890173Y-109144935D01*
X143889005Y-109143815D01*
X143888186Y-109143428D01*
X143877304Y-109139534D01*
X143866069Y-109134880D01*
X143855640Y-109129947D01*
X143842419Y-109125217D01*
X143831225Y-109122413D01*
X143826812Y-109121220D01*
X143823157Y-109120159D01*
X143811149Y-109115863D01*
X143808750Y-109115980D01*
X143797352Y-109112674D01*
X143795990Y-109111805D01*
X143795098Y-109111581D01*
X143783699Y-109109891D01*
X143771769Y-109107518D01*
X143762603Y-109105222D01*
X143758066Y-109104860D01*
X143746273Y-109103553D01*
X143744104Y-109102528D01*
X143731359Y-109101901D01*
X143727579Y-109101483D01*
X143727138Y-109101299D01*
X143723045Y-109100896D01*
X143712201Y-109099288D01*
X143712201Y-109099500D01*
X143685521Y-109099500D01*
X143679437Y-109099351D01*
X143662989Y-109098543D01*
X143650019Y-109099500D01*
X142497440Y-109099500D01*
X142495036Y-109098640D01*
X142477531Y-109099500D01*
X142447804Y-109099500D01*
X142447804Y-109099286D01*
X142436953Y-109100895D01*
X142424858Y-109102086D01*
X142415421Y-109102550D01*
X142410971Y-109103520D01*
X142399308Y-109105691D01*
X142396934Y-109105340D01*
X142384579Y-109108434D01*
X142380818Y-109109135D01*
X142380345Y-109109086D01*
X142376314Y-109109889D01*
X142364901Y-109111582D01*
X142351277Y-109114994D01*
X142340395Y-109118887D01*
X142336077Y-109120343D01*
X142332446Y-109121493D01*
X142320074Y-109124593D01*
X142318144Y-109126023D01*
X142306836Y-109129606D01*
X142305219Y-109129640D01*
X142304363Y-109129946D01*
X142293923Y-109134883D01*
X142282706Y-109139529D01*
X142273793Y-109142719D01*
X142269830Y-109144932D01*
X142259293Y-109150399D01*
X142256921Y-109150752D01*
X142245981Y-109157308D01*
X142242606Y-109159060D01*
X142242137Y-109159151D01*
X142238511Y-109161090D01*
X142228075Y-109166026D01*
X142216032Y-109173243D01*
X142206747Y-109180129D01*
X142203034Y-109182778D01*
X142199897Y-109184929D01*
X142188957Y-109191488D01*
X142187526Y-109193416D01*
X142177747Y-109200125D01*
X142176209Y-109200626D01*
X142175464Y-109201179D01*
X142166913Y-109208929D01*
X142157522Y-109216635D01*
X142149936Y-109222261D01*
X142146779Y-109225537D01*
X142138285Y-109233826D01*
X142136118Y-109234852D01*
X142127552Y-109244301D01*
X142124829Y-109246960D01*
X142124409Y-109247182D01*
X142121498Y-109250094D01*
X142112942Y-109257848D01*
X142103506Y-109268260D01*
X142096640Y-109277517D01*
X142088935Y-109286907D01*
X142082583Y-109293916D01*
X142080127Y-109297743D01*
X142073415Y-109307526D01*
X142071488Y-109308957D01*
X142064925Y-109319904D01*
X142062779Y-109323034D01*
X142062409Y-109323335D01*
X142060125Y-109326754D01*
X142053248Y-109336026D01*
X142046025Y-109348076D01*
X142041090Y-109358511D01*
X142039060Y-109362606D01*
X142037308Y-109365981D01*
X142030752Y-109376921D01*
X142030399Y-109379293D01*
X142024932Y-109389830D01*
X142023816Y-109390993D01*
X142023424Y-109391823D01*
X142019529Y-109402706D01*
X142014883Y-109413923D01*
X142009945Y-109424366D01*
X142005215Y-109437586D01*
X142002413Y-109448772D01*
X142001220Y-109453186D01*
X142000159Y-109456841D01*
X141995863Y-109468850D01*
X141995980Y-109471246D01*
X141992674Y-109482645D01*
X141991807Y-109484002D01*
X141991580Y-109484908D01*
X141989891Y-109496302D01*
X141987518Y-109508237D01*
X141985221Y-109517404D01*
X141984860Y-109521930D01*
X141983553Y-109533726D01*
X141982528Y-109535895D01*
X141981902Y-109548627D01*
X141981482Y-109552422D01*
X141981297Y-109552862D01*
X141980895Y-109556953D01*
X141979286Y-109567804D01*
X141979500Y-109567804D01*
X141979500Y-109594479D01*
X141979351Y-109600562D01*
X141978543Y-109617011D01*
X139240499Y-109617011D01*
X139240499Y-105984963D01*
X140148639Y-105984963D01*
X140149079Y-105993925D01*
X140149079Y-106006074D01*
X140148639Y-106015038D01*
X140149953Y-106023896D01*
X140151145Y-106036002D01*
X140152426Y-106062065D01*
X140152427Y-106074231D01*
X140151987Y-106083186D01*
X140151987Y-106083187D01*
X140154196Y-106098083D01*
X140154935Y-106113112D01*
X140157105Y-106117701D01*
X140159480Y-106133713D01*
X140159483Y-106133725D01*
X140163314Y-106159548D01*
X140164506Y-106171654D01*
X140164946Y-106180608D01*
X140167124Y-106189305D01*
X140168605Y-106195218D01*
X140170814Y-106210103D01*
X140173424Y-106214458D01*
X140177360Y-106230173D01*
X140183703Y-106255494D01*
X140186077Y-106267424D01*
X140187392Y-106276290D01*
X140190412Y-106284729D01*
X140193944Y-106296372D01*
X140196122Y-106305069D01*
X140199954Y-106313170D01*
X140204611Y-106324412D01*
X140213400Y-106348975D01*
X140216932Y-106360616D01*
X140219111Y-106369314D01*
X140222942Y-106377414D01*
X140227598Y-106388656D01*
X140230616Y-106397091D01*
X140235222Y-106404775D01*
X140240957Y-106415506D01*
X140252110Y-106439086D01*
X140252112Y-106439089D01*
X140256768Y-106450331D01*
X140259789Y-106458775D01*
X140259791Y-106458778D01*
X140264392Y-106466455D01*
X140264395Y-106466459D01*
X140270130Y-106477188D01*
X140273966Y-106485298D01*
X140273967Y-106485299D01*
X140279305Y-106492497D01*
X140286064Y-106502613D01*
X140299477Y-106524990D01*
X140305215Y-106535725D01*
X140309044Y-106543821D01*
X140314385Y-106551023D01*
X140321138Y-106561129D01*
X140325753Y-106568828D01*
X140325757Y-106568831D01*
X140331767Y-106575462D01*
X140339486Y-106584869D01*
X140355033Y-106605832D01*
X140361791Y-106615945D01*
X140366399Y-106623633D01*
X140372418Y-106630274D01*
X140380135Y-106639677D01*
X140385475Y-106646877D01*
X140392114Y-106652894D01*
X140400720Y-106661500D01*
X140418239Y-106680829D01*
X140425959Y-106690235D01*
X140431299Y-106697435D01*
X140431300Y-106697437D01*
X140437934Y-106703449D01*
X140446541Y-106712056D01*
X140452560Y-106718697D01*
X140452562Y-106718699D01*
X140452563Y-106718699D01*
X140459760Y-106724037D01*
X140469168Y-106731758D01*
X140488494Y-106749274D01*
X140497099Y-106757879D01*
X140503122Y-106764524D01*
X140510322Y-106769864D01*
X140519735Y-106777589D01*
X140526367Y-106783600D01*
X140526370Y-106783601D01*
X140534043Y-106788200D01*
X140544162Y-106794961D01*
X140565127Y-106810510D01*
X140574524Y-106818222D01*
X140581168Y-106824243D01*
X140581171Y-106824246D01*
X140586648Y-106827529D01*
X140588855Y-106828852D01*
X140598970Y-106835610D01*
X140598985Y-106835621D01*
X140606175Y-106840953D01*
X140606177Y-106840953D01*
X140614251Y-106844771D01*
X140625002Y-106850517D01*
X140647382Y-106863932D01*
X140657497Y-106870690D01*
X140664701Y-106876033D01*
X140672800Y-106879863D01*
X140683539Y-106885603D01*
X140691221Y-106890208D01*
X140691222Y-106890208D01*
X140699656Y-106893225D01*
X140710906Y-106897885D01*
X140734483Y-106909036D01*
X140745218Y-106914774D01*
X140752901Y-106919379D01*
X140752902Y-106919379D01*
X140752904Y-106919381D01*
X140761345Y-106922401D01*
X140772589Y-106927059D01*
X140780682Y-106930887D01*
X140780683Y-106930887D01*
X140780687Y-106930889D01*
X140780690Y-106930889D01*
X140789378Y-106933065D01*
X140801011Y-106936594D01*
X140825593Y-106945389D01*
X140836822Y-106950041D01*
X140844930Y-106953875D01*
X140844932Y-106953877D01*
X140849052Y-106954908D01*
X140853628Y-106956055D01*
X140865277Y-106959589D01*
X140873708Y-106962606D01*
X140873709Y-106962605D01*
X140873710Y-106962606D01*
X140882566Y-106963920D01*
X140894503Y-106966294D01*
X140919811Y-106972633D01*
X140931458Y-106976166D01*
X140939893Y-106979183D01*
X140939896Y-106979185D01*
X140948766Y-106980500D01*
X140960694Y-106982873D01*
X140969391Y-106985052D01*
X140969396Y-106985051D01*
X140978334Y-106985491D01*
X140990446Y-106986684D01*
X141004050Y-106988701D01*
X141016262Y-106990513D01*
X141028194Y-106992886D01*
X141036879Y-106995060D01*
X141036886Y-106995064D01*
X141045834Y-106995503D01*
X141057943Y-106996696D01*
X141066812Y-106998012D01*
X141066816Y-106998010D01*
X141075750Y-106997572D01*
X141087923Y-106997571D01*
X141115133Y-106998907D01*
X141128030Y-107000500D01*
X141130009Y-107000500D01*
X141144479Y-107000500D01*
X141150563Y-107000649D01*
X141151121Y-107000676D01*
X141165035Y-107001360D01*
X141165037Y-107001359D01*
X141167008Y-107001456D01*
X141179979Y-107000500D01*
X141332561Y-107000500D01*
X141334965Y-107001360D01*
X141352469Y-107000500D01*
X141369991Y-107000500D01*
X141371967Y-107000500D01*
X141384866Y-106998907D01*
X141412075Y-106997571D01*
X141424246Y-106997572D01*
X141433182Y-106998010D01*
X141433187Y-106998012D01*
X141442053Y-106996696D01*
X141454164Y-106995503D01*
X141463113Y-106995064D01*
X141463116Y-106995062D01*
X141471804Y-106992887D01*
X141483731Y-106990513D01*
X141509556Y-106986682D01*
X141521662Y-106985491D01*
X141530602Y-106985051D01*
X141530608Y-106985052D01*
X141539309Y-106982872D01*
X141551230Y-106980501D01*
X141560103Y-106979185D01*
X141560105Y-106979184D01*
X141568531Y-106976169D01*
X141580177Y-106972635D01*
X141605493Y-106966294D01*
X141617429Y-106963920D01*
X141626289Y-106962606D01*
X141626289Y-106962605D01*
X141626291Y-106962606D01*
X141634727Y-106959586D01*
X141646372Y-106956054D01*
X141655067Y-106953877D01*
X141655074Y-106953871D01*
X141663163Y-106950046D01*
X141674386Y-106945396D01*
X141698991Y-106936592D01*
X141710615Y-106933067D01*
X141719305Y-106930889D01*
X141719312Y-106930889D01*
X141727412Y-106927057D01*
X141738648Y-106922402D01*
X141747095Y-106919381D01*
X141747099Y-106919376D01*
X141754765Y-106914782D01*
X141765499Y-106909043D01*
X141789101Y-106897880D01*
X141800337Y-106893227D01*
X141808771Y-106890208D01*
X141808778Y-106890208D01*
X141816469Y-106885597D01*
X141827197Y-106879863D01*
X141835298Y-106876033D01*
X141835299Y-106876032D01*
X141842496Y-106870694D01*
X141852617Y-106863931D01*
X141874987Y-106850522D01*
X141885737Y-106844776D01*
X141893817Y-106840954D01*
X141893824Y-106840953D01*
X141901028Y-106835610D01*
X141911128Y-106828860D01*
X141918828Y-106824246D01*
X141918830Y-106824242D01*
X141925468Y-106818227D01*
X141934858Y-106810519D01*
X141955844Y-106794954D01*
X141965958Y-106788198D01*
X141973625Y-106783602D01*
X141973632Y-106783600D01*
X141980273Y-106777580D01*
X141989682Y-106769859D01*
X141996878Y-106764523D01*
X141996882Y-106764515D01*
X142002893Y-106757884D01*
X142011492Y-106749284D01*
X142030832Y-106731756D01*
X142040232Y-106724042D01*
X142047431Y-106718701D01*
X142047437Y-106718699D01*
X142053457Y-106712055D01*
X142062055Y-106703457D01*
X142068699Y-106697437D01*
X142068701Y-106697431D01*
X142074042Y-106690232D01*
X142081759Y-106680829D01*
X142099284Y-106661492D01*
X142107884Y-106652893D01*
X142114515Y-106646882D01*
X142114523Y-106646878D01*
X142119863Y-106639677D01*
X142127580Y-106630273D01*
X142133600Y-106623632D01*
X142133602Y-106623625D01*
X142138198Y-106615958D01*
X142144954Y-106605844D01*
X142160519Y-106584858D01*
X142168227Y-106575468D01*
X142174242Y-106568830D01*
X142174246Y-106568828D01*
X142178860Y-106561128D01*
X142185614Y-106551022D01*
X142190953Y-106543824D01*
X142190954Y-106543817D01*
X142194776Y-106535737D01*
X142200522Y-106524987D01*
X142213931Y-106502617D01*
X142220694Y-106492496D01*
X142226032Y-106485299D01*
X142226032Y-106485298D01*
X142226033Y-106485298D01*
X142229865Y-106477195D01*
X142235597Y-106466469D01*
X142240208Y-106458778D01*
X142240208Y-106458771D01*
X142243227Y-106450337D01*
X142247886Y-106439089D01*
X142259043Y-106415499D01*
X142264782Y-106404765D01*
X142269376Y-106397099D01*
X142269381Y-106397095D01*
X142272402Y-106388648D01*
X142277057Y-106377412D01*
X142280889Y-106369312D01*
X142280889Y-106369305D01*
X142283067Y-106360615D01*
X142286592Y-106348991D01*
X142295396Y-106324386D01*
X142300046Y-106313163D01*
X142303871Y-106305074D01*
X142303877Y-106305067D01*
X142306054Y-106296372D01*
X142309586Y-106284727D01*
X142312606Y-106276291D01*
X142312606Y-106276289D01*
X142313920Y-106267429D01*
X142316295Y-106255488D01*
X142322634Y-106230182D01*
X142326169Y-106218531D01*
X142329184Y-106210105D01*
X142329184Y-106210104D01*
X142329185Y-106210103D01*
X142330501Y-106201230D01*
X142332874Y-106189301D01*
X142335052Y-106180607D01*
X142335491Y-106171664D01*
X142336684Y-106159549D01*
X142336684Y-106159548D01*
X142340515Y-106133725D01*
X142342887Y-106121802D01*
X142345060Y-106113120D01*
X142345064Y-106113114D01*
X142345503Y-106104164D01*
X142346697Y-106092047D01*
X142348012Y-106083187D01*
X142348010Y-106083182D01*
X142347572Y-106074245D01*
X142347571Y-106062071D01*
X142347571Y-106062065D01*
X142348852Y-106035995D01*
X142350045Y-106023889D01*
X142351357Y-106015043D01*
X142351360Y-106015035D01*
X142350920Y-106006074D01*
X142350920Y-105993909D01*
X142351360Y-105984965D01*
X142351357Y-105984958D01*
X142350045Y-105976108D01*
X142348852Y-105963999D01*
X142347571Y-105937924D01*
X142347572Y-105925752D01*
X142348012Y-105916813D01*
X142346697Y-105907952D01*
X142345503Y-105895831D01*
X142345064Y-105886886D01*
X142345060Y-105886879D01*
X142342886Y-105878194D01*
X142340512Y-105866256D01*
X142336684Y-105840446D01*
X142336684Y-105840444D01*
X142335491Y-105828334D01*
X142335051Y-105819396D01*
X142335052Y-105819391D01*
X142332872Y-105810687D01*
X142330500Y-105798762D01*
X142329185Y-105789896D01*
X142329183Y-105789893D01*
X142326166Y-105781458D01*
X142322633Y-105769811D01*
X142316294Y-105744503D01*
X142313920Y-105732566D01*
X142312606Y-105723710D01*
X142312605Y-105723709D01*
X142312606Y-105723708D01*
X142309585Y-105715265D01*
X142306055Y-105703628D01*
X142304908Y-105699052D01*
X142303877Y-105694932D01*
X142303875Y-105694930D01*
X142300041Y-105686822D01*
X142295389Y-105675593D01*
X142286594Y-105651011D01*
X142283065Y-105639378D01*
X142280889Y-105630690D01*
X142280889Y-105630687D01*
X142277337Y-105623178D01*
X142277059Y-105622589D01*
X142272398Y-105611338D01*
X142269381Y-105602904D01*
X142269379Y-105602902D01*
X142269379Y-105602901D01*
X142264774Y-105595218D01*
X142259036Y-105584483D01*
X142247885Y-105560906D01*
X142243225Y-105549656D01*
X142240207Y-105541219D01*
X142235606Y-105533544D01*
X142229863Y-105522800D01*
X142226033Y-105514701D01*
X142220690Y-105507497D01*
X142213932Y-105497382D01*
X142200517Y-105475002D01*
X142194771Y-105464251D01*
X142190953Y-105456177D01*
X142190953Y-105456175D01*
X142185607Y-105448966D01*
X142178852Y-105438855D01*
X142176392Y-105434752D01*
X142174246Y-105431171D01*
X142174243Y-105431168D01*
X142168222Y-105424524D01*
X142160510Y-105415127D01*
X142144959Y-105394159D01*
X142138200Y-105384043D01*
X142133601Y-105376370D01*
X142133600Y-105376367D01*
X142127589Y-105369735D01*
X142119864Y-105360322D01*
X142114524Y-105353122D01*
X142107879Y-105347099D01*
X142099274Y-105338494D01*
X142081758Y-105319168D01*
X142074037Y-105309760D01*
X142068699Y-105302563D01*
X142068699Y-105302562D01*
X142062056Y-105296541D01*
X142053453Y-105287938D01*
X142047437Y-105281300D01*
X142040235Y-105275959D01*
X142030829Y-105268239D01*
X142011500Y-105250720D01*
X142002894Y-105242114D01*
X141996877Y-105235475D01*
X141989677Y-105230135D01*
X141980274Y-105222418D01*
X141973633Y-105216399D01*
X141965945Y-105211791D01*
X141955832Y-105205033D01*
X141934869Y-105189486D01*
X141925462Y-105181767D01*
X141918831Y-105175757D01*
X141918828Y-105175753D01*
X141911129Y-105171138D01*
X141901023Y-105164385D01*
X141893821Y-105159044D01*
X141885725Y-105155215D01*
X141874990Y-105149477D01*
X141852613Y-105136064D01*
X141842497Y-105129305D01*
X141835299Y-105123967D01*
X141835298Y-105123966D01*
X141827188Y-105120130D01*
X141816459Y-105114395D01*
X141808775Y-105109789D01*
X141800331Y-105106768D01*
X141789097Y-105102115D01*
X141765506Y-105090957D01*
X141754775Y-105085222D01*
X141747096Y-105080619D01*
X141747095Y-105080618D01*
X141747093Y-105080617D01*
X141747091Y-105080616D01*
X141738656Y-105077598D01*
X141727414Y-105072942D01*
X141719314Y-105069111D01*
X141719312Y-105069110D01*
X141719309Y-105069109D01*
X141710616Y-105066932D01*
X141698978Y-105063401D01*
X141674410Y-105054610D01*
X141663170Y-105049954D01*
X141655069Y-105046122D01*
X141646372Y-105043944D01*
X141634729Y-105040412D01*
X141626290Y-105037392D01*
X141617424Y-105036077D01*
X141605494Y-105033703D01*
X141580173Y-105027360D01*
X141568533Y-105023830D01*
X141560098Y-105020812D01*
X141551229Y-105019496D01*
X141539313Y-105017126D01*
X141530608Y-105014946D01*
X141521654Y-105014506D01*
X141509550Y-105013314D01*
X141502369Y-105012249D01*
X141483725Y-105009483D01*
X141471794Y-105007109D01*
X141463117Y-105004935D01*
X141460889Y-105004825D01*
X141454153Y-105004494D01*
X141442069Y-105003304D01*
X141433188Y-105001987D01*
X141433187Y-105001987D01*
X141433186Y-105001987D01*
X141424231Y-105002427D01*
X141412069Y-105002427D01*
X141406422Y-105002149D01*
X141384862Y-105001090D01*
X141371970Y-104999500D01*
X141369991Y-104999500D01*
X141355521Y-104999500D01*
X141349438Y-104999351D01*
X141347442Y-104999253D01*
X141334964Y-104998640D01*
X141334963Y-104998640D01*
X141332988Y-104998543D01*
X141320020Y-104999500D01*
X141167439Y-104999500D01*
X141165036Y-104998640D01*
X141147529Y-104999500D01*
X141128037Y-104999500D01*
X141115134Y-105001090D01*
X141087932Y-105002426D01*
X141075770Y-105002426D01*
X141066814Y-105001986D01*
X141057930Y-105003304D01*
X141057929Y-105003303D01*
X141051906Y-105004196D01*
X141036887Y-105004935D01*
X141032295Y-105007105D01*
X141016264Y-105009484D01*
X140990444Y-105013314D01*
X140978343Y-105014506D01*
X140969392Y-105014946D01*
X140960687Y-105017126D01*
X140948779Y-105019495D01*
X140939893Y-105020814D01*
X140931451Y-105023834D01*
X140919815Y-105027364D01*
X140894494Y-105033706D01*
X140882571Y-105036078D01*
X140873705Y-105037393D01*
X140865265Y-105040413D01*
X140853639Y-105043939D01*
X140844938Y-105046119D01*
X140836818Y-105049959D01*
X140825584Y-105054611D01*
X140825582Y-105054612D01*
X140801017Y-105063401D01*
X140789381Y-105066931D01*
X140780687Y-105069109D01*
X140772572Y-105072947D01*
X140761343Y-105077598D01*
X140752903Y-105080618D01*
X140745220Y-105085223D01*
X140734490Y-105090958D01*
X140710897Y-105102116D01*
X140699660Y-105106771D01*
X140691221Y-105109790D01*
X140683532Y-105114399D01*
X140672811Y-105120129D01*
X140664700Y-105123965D01*
X140657489Y-105129313D01*
X140647384Y-105136064D01*
X140647383Y-105136065D01*
X140624999Y-105149482D01*
X140614263Y-105155221D01*
X140606172Y-105159047D01*
X140598966Y-105164391D01*
X140588865Y-105171140D01*
X140581168Y-105175754D01*
X140574519Y-105181779D01*
X140565126Y-105189486D01*
X140565125Y-105189487D01*
X140544159Y-105205037D01*
X140534045Y-105211796D01*
X140526367Y-105216398D01*
X140519720Y-105222422D01*
X140510330Y-105230127D01*
X140503123Y-105235472D01*
X140497095Y-105242123D01*
X140488498Y-105250720D01*
X140469170Y-105268238D01*
X140459773Y-105275950D01*
X140452560Y-105281300D01*
X140446534Y-105287948D01*
X140437948Y-105296534D01*
X140431300Y-105302560D01*
X140425950Y-105309773D01*
X140418238Y-105319170D01*
X140400720Y-105338498D01*
X140392123Y-105347095D01*
X140385472Y-105353123D01*
X140380127Y-105360330D01*
X140372422Y-105369720D01*
X140366398Y-105376367D01*
X140361796Y-105384045D01*
X140355037Y-105394159D01*
X140339487Y-105415125D01*
X140331779Y-105424519D01*
X140325754Y-105431168D01*
X140321140Y-105438865D01*
X140314391Y-105448966D01*
X140309047Y-105456172D01*
X140305221Y-105464263D01*
X140299482Y-105474999D01*
X140286065Y-105497383D01*
X140279313Y-105507489D01*
X140273965Y-105514700D01*
X140270129Y-105522811D01*
X140264399Y-105533532D01*
X140259790Y-105541221D01*
X140256771Y-105549660D01*
X140252116Y-105560897D01*
X140240958Y-105584490D01*
X140235223Y-105595220D01*
X140230618Y-105602903D01*
X140227598Y-105611343D01*
X140222947Y-105622572D01*
X140219109Y-105630687D01*
X140216931Y-105639381D01*
X140213401Y-105651017D01*
X140204612Y-105675582D01*
X140199959Y-105686818D01*
X140196119Y-105694938D01*
X140193939Y-105703639D01*
X140190413Y-105715265D01*
X140187393Y-105723705D01*
X140186078Y-105732571D01*
X140183706Y-105744494D01*
X140177364Y-105769815D01*
X140173834Y-105781451D01*
X140170814Y-105789893D01*
X140169495Y-105798779D01*
X140167126Y-105810687D01*
X140164946Y-105819392D01*
X140164506Y-105828343D01*
X140163314Y-105840444D01*
X140159484Y-105866264D01*
X140157112Y-105878191D01*
X140154934Y-105886887D01*
X140154494Y-105895836D01*
X140153304Y-105907923D01*
X140151987Y-105916807D01*
X140152427Y-105925767D01*
X140152427Y-105937933D01*
X140151146Y-105963999D01*
X140149954Y-105976097D01*
X140148639Y-105984963D01*
X139240499Y-105984963D01*
X139240499Y-101617011D01*
X141978543Y-101617011D01*
X141979500Y-101629980D01*
X141979500Y-102382560D01*
X141978640Y-102384964D01*
X141979500Y-102402463D01*
X141979500Y-102432201D01*
X141979288Y-102432201D01*
X141980896Y-102443045D01*
X141982087Y-102455142D01*
X141982654Y-102466675D01*
X141984716Y-102480582D01*
X141987518Y-102491769D01*
X141988545Y-102496216D01*
X141989336Y-102499954D01*
X141991205Y-102512555D01*
X141992439Y-102514614D01*
X141994896Y-102526222D01*
X141994771Y-102527832D01*
X141994995Y-102528727D01*
X141998880Y-102539582D01*
X142002413Y-102551225D01*
X142004708Y-102560388D01*
X142006525Y-102564556D01*
X142010931Y-102575573D01*
X142011050Y-102577970D01*
X142016502Y-102589498D01*
X142017915Y-102593031D01*
X142017960Y-102593504D01*
X142019534Y-102597304D01*
X142023428Y-102608186D01*
X142029423Y-102620860D01*
X142035361Y-102630769D01*
X142041093Y-102641495D01*
X142045130Y-102650030D01*
X142047724Y-102653762D01*
X142054197Y-102663709D01*
X142054781Y-102666038D01*
X142062380Y-102676285D01*
X142064455Y-102679473D01*
X142064592Y-102679929D01*
X142066882Y-102683357D01*
X142072825Y-102693273D01*
X142081171Y-102704525D01*
X142088927Y-102713083D01*
X142091932Y-102716523D01*
X142094379Y-102719431D01*
X142101981Y-102729681D01*
X142104042Y-102730916D01*
X142111678Y-102739992D01*
X142112329Y-102741474D01*
X142112938Y-102742147D01*
X142121491Y-102749898D01*
X142130099Y-102758506D01*
X142137857Y-102767066D01*
X142148249Y-102776484D01*
X142150317Y-102778018D01*
X142150318Y-102778019D01*
X142154393Y-102781041D01*
X142157518Y-102783359D01*
X142161137Y-102786148D01*
X142164109Y-102788526D01*
X142173561Y-102797094D01*
X142175823Y-102797903D01*
X142185088Y-102805319D01*
X142186015Y-102806644D01*
X142186730Y-102807175D01*
X142188955Y-102808508D01*
X142188957Y-102808511D01*
X142196654Y-102813124D01*
X142206744Y-102819866D01*
X142213960Y-102825218D01*
X142214347Y-102825505D01*
X142218389Y-102827570D01*
X142228785Y-102833290D01*
X142230400Y-102835072D01*
X142241951Y-102840535D01*
X142245270Y-102842361D01*
X142245608Y-102842701D01*
X142249247Y-102844647D01*
X142259141Y-102850578D01*
X142271805Y-102856567D01*
X142274243Y-102857439D01*
X142274245Y-102857441D01*
X142282739Y-102860480D01*
X142286967Y-102862082D01*
X142290485Y-102863489D01*
X142302029Y-102868949D01*
X142304427Y-102869066D01*
X142315443Y-102873473D01*
X142316717Y-102874474D01*
X142317564Y-102874777D01*
X142320073Y-102875405D01*
X142320074Y-102875406D01*
X142322806Y-102876090D01*
X142328756Y-102877581D01*
X142340400Y-102881113D01*
X142349297Y-102884296D01*
X142353769Y-102885100D01*
X142365380Y-102887556D01*
X142367444Y-102888794D01*
X142380077Y-102890666D01*
X142383788Y-102891452D01*
X142384211Y-102891680D01*
X142388257Y-102892485D01*
X142399425Y-102895283D01*
X142413315Y-102897343D01*
X142415892Y-102897469D01*
X142415893Y-102897470D01*
X142417703Y-102897559D01*
X142424856Y-102897911D01*
X142430362Y-102898304D01*
X142433654Y-102898613D01*
X142445824Y-102900418D01*
X142447745Y-102899936D01*
X142453745Y-102900500D01*
X142460009Y-102900500D01*
X142474500Y-102900500D01*
X142480587Y-102900649D01*
X142484500Y-102900842D01*
X142497002Y-102901457D01*
X142509975Y-102900500D01*
X143662563Y-102900500D01*
X143664967Y-102901360D01*
X143682463Y-102900500D01*
X143699991Y-102900500D01*
X143712209Y-102900500D01*
X143712209Y-102900709D01*
X143714173Y-102900417D01*
X143714175Y-102900418D01*
X143723049Y-102899101D01*
X143735135Y-102897910D01*
X143744106Y-102897470D01*
X143744107Y-102897469D01*
X143746713Y-102897341D01*
X143760559Y-102895287D01*
X143763062Y-102894659D01*
X143763064Y-102894660D01*
X143771748Y-102892483D01*
X143776215Y-102891452D01*
X143779935Y-102890664D01*
X143792555Y-102888794D01*
X143794616Y-102887558D01*
X143806229Y-102885101D01*
X143807843Y-102885225D01*
X143808708Y-102885009D01*
X143811147Y-102884135D01*
X143811149Y-102884136D01*
X143819585Y-102881116D01*
X143831232Y-102877584D01*
X143840383Y-102875292D01*
X143844556Y-102873472D01*
X143855568Y-102869066D01*
X143857970Y-102868949D01*
X143869519Y-102863486D01*
X143873035Y-102862080D01*
X143873512Y-102862034D01*
X143877296Y-102860466D01*
X143885754Y-102857441D01*
X143885757Y-102857438D01*
X143888203Y-102856563D01*
X143900848Y-102850583D01*
X143903076Y-102849247D01*
X143903078Y-102849247D01*
X143910760Y-102844641D01*
X143921484Y-102838909D01*
X143929599Y-102835072D01*
X143929600Y-102835070D01*
X143930033Y-102834866D01*
X143933761Y-102832274D01*
X143943706Y-102825801D01*
X143946038Y-102825218D01*
X143956296Y-102817608D01*
X143959470Y-102815544D01*
X143959930Y-102815405D01*
X143963350Y-102813120D01*
X143971042Y-102808511D01*
X143971044Y-102808508D01*
X143973275Y-102807171D01*
X143984520Y-102798831D01*
X143986435Y-102797094D01*
X143986438Y-102797094D01*
X143993106Y-102791049D01*
X143996522Y-102788066D01*
X143999422Y-102785625D01*
X144009681Y-102778018D01*
X144010917Y-102775954D01*
X144019997Y-102768316D01*
X144021481Y-102767663D01*
X144022139Y-102767067D01*
X144023878Y-102765148D01*
X144023881Y-102765147D01*
X144029902Y-102758502D01*
X144038507Y-102749898D01*
X144045147Y-102743881D01*
X144045148Y-102743878D01*
X144047075Y-102742132D01*
X144056482Y-102731753D01*
X144063351Y-102722491D01*
X144066147Y-102718862D01*
X144068524Y-102715892D01*
X144077094Y-102706438D01*
X144077903Y-102704173D01*
X144085318Y-102694911D01*
X144086649Y-102693980D01*
X144087173Y-102693272D01*
X144088508Y-102691043D01*
X144088511Y-102691042D01*
X144093117Y-102683357D01*
X144099870Y-102673249D01*
X144105219Y-102666038D01*
X144105219Y-102666035D01*
X144105505Y-102665651D01*
X144107568Y-102661614D01*
X144113291Y-102651212D01*
X144115072Y-102649599D01*
X144120532Y-102638052D01*
X144122361Y-102634729D01*
X144122701Y-102634391D01*
X144124641Y-102630760D01*
X144129247Y-102623078D01*
X144129247Y-102623076D01*
X144130583Y-102620848D01*
X144136563Y-102608203D01*
X144137438Y-102605757D01*
X144137441Y-102605754D01*
X144140482Y-102597253D01*
X144142080Y-102593035D01*
X144143486Y-102589519D01*
X144148949Y-102577970D01*
X144149066Y-102575568D01*
X144153472Y-102564556D01*
X144154477Y-102563276D01*
X144154773Y-102562450D01*
X144155405Y-102559926D01*
X144155406Y-102559925D01*
X144157585Y-102551225D01*
X144161118Y-102539582D01*
X144165008Y-102528711D01*
X144168414Y-102515113D01*
X144168793Y-102512556D01*
X144168794Y-102512555D01*
X144170107Y-102503692D01*
X144170863Y-102499172D01*
X144171557Y-102495442D01*
X144174659Y-102483065D01*
X144174306Y-102480686D01*
X144176479Y-102469020D01*
X144177214Y-102467571D01*
X144177341Y-102466714D01*
X144177469Y-102464108D01*
X144177470Y-102464107D01*
X144177910Y-102455136D01*
X144179102Y-102443045D01*
X144180418Y-102434175D01*
X144180417Y-102434172D01*
X144180508Y-102433560D01*
X144180476Y-102432214D01*
X144180486Y-102420022D01*
X144180500Y-102419991D01*
X144180500Y-102405389D01*
X144180502Y-102405378D01*
X144180650Y-102399410D01*
X144180742Y-102397533D01*
X144181360Y-102384967D01*
X144181359Y-102384965D01*
X144181456Y-102383001D01*
X144180500Y-102370024D01*
X144180500Y-101617436D01*
X144181360Y-101615033D01*
X144180500Y-101597536D01*
X144180500Y-101580009D01*
X144180500Y-101567796D01*
X144180710Y-101567796D01*
X144179103Y-101556960D01*
X144177911Y-101544856D01*
X144177446Y-101535415D01*
X144176480Y-101530981D01*
X144174306Y-101519310D01*
X144174659Y-101516934D01*
X144171559Y-101504562D01*
X144170863Y-101500824D01*
X144170911Y-101500347D01*
X144170107Y-101496302D01*
X144168794Y-101487444D01*
X144168793Y-101487442D01*
X144168415Y-101484891D01*
X144165006Y-101471282D01*
X144161113Y-101460400D01*
X144159654Y-101456072D01*
X144158503Y-101452438D01*
X144155406Y-101440074D01*
X144153975Y-101438145D01*
X144150392Y-101426832D01*
X144150357Y-101425211D01*
X144150061Y-101424382D01*
X144148949Y-101422031D01*
X144148949Y-101422029D01*
X144145109Y-101413910D01*
X144140467Y-101402703D01*
X144137441Y-101394245D01*
X144137439Y-101394243D01*
X144137277Y-101393789D01*
X144135067Y-101389832D01*
X144129598Y-101379295D01*
X144129247Y-101376921D01*
X144122684Y-101365972D01*
X144120940Y-101362611D01*
X144120848Y-101362141D01*
X144118913Y-101358522D01*
X144115072Y-101350400D01*
X144115070Y-101350398D01*
X144113961Y-101348053D01*
X144106763Y-101336044D01*
X144105219Y-101333962D01*
X144105219Y-101333961D01*
X144099853Y-101326726D01*
X144097214Y-101323026D01*
X144095071Y-101319902D01*
X144088511Y-101308957D01*
X144086582Y-101307526D01*
X144079870Y-101297740D01*
X144079368Y-101296202D01*
X144078828Y-101295475D01*
X144077094Y-101293562D01*
X144077094Y-101293561D01*
X144071074Y-101286920D01*
X144063359Y-101277518D01*
X144057734Y-101269933D01*
X144054462Y-101266781D01*
X144046173Y-101258288D01*
X144045147Y-101256118D01*
X144035686Y-101247543D01*
X144033038Y-101244830D01*
X144032813Y-101244406D01*
X144029898Y-101241491D01*
X144022147Y-101232938D01*
X144011749Y-101223515D01*
X144002483Y-101216642D01*
X143993083Y-101208927D01*
X143986082Y-101202582D01*
X143982258Y-101200128D01*
X143972470Y-101193414D01*
X143971042Y-101191488D01*
X143960097Y-101184927D01*
X143956966Y-101182780D01*
X143956664Y-101182409D01*
X143953239Y-101180121D01*
X143943968Y-101173245D01*
X143931924Y-101166025D01*
X143921495Y-101161093D01*
X143917396Y-101159062D01*
X143914017Y-101157308D01*
X143903078Y-101150752D01*
X143900703Y-101150399D01*
X143890173Y-101144935D01*
X143889005Y-101143815D01*
X143888186Y-101143428D01*
X143877304Y-101139534D01*
X143866069Y-101134880D01*
X143855640Y-101129947D01*
X143842419Y-101125217D01*
X143831225Y-101122413D01*
X143826812Y-101121220D01*
X143823157Y-101120159D01*
X143811149Y-101115863D01*
X143808750Y-101115980D01*
X143797352Y-101112674D01*
X143795990Y-101111805D01*
X143795098Y-101111581D01*
X143783699Y-101109891D01*
X143771769Y-101107518D01*
X143762603Y-101105222D01*
X143758066Y-101104860D01*
X143746273Y-101103553D01*
X143744104Y-101102528D01*
X143731359Y-101101901D01*
X143727579Y-101101483D01*
X143727138Y-101101299D01*
X143723045Y-101100896D01*
X143712201Y-101099288D01*
X143712201Y-101099500D01*
X143685521Y-101099500D01*
X143679437Y-101099351D01*
X143662989Y-101098543D01*
X143650019Y-101099500D01*
X142497440Y-101099500D01*
X142495036Y-101098640D01*
X142477531Y-101099500D01*
X142447804Y-101099500D01*
X142447804Y-101099286D01*
X142436953Y-101100895D01*
X142424858Y-101102086D01*
X142415421Y-101102550D01*
X142410971Y-101103520D01*
X142399308Y-101105691D01*
X142396934Y-101105340D01*
X142384579Y-101108434D01*
X142380818Y-101109135D01*
X142380345Y-101109086D01*
X142376314Y-101109889D01*
X142364901Y-101111582D01*
X142351277Y-101114994D01*
X142340395Y-101118887D01*
X142336077Y-101120343D01*
X142332446Y-101121493D01*
X142320074Y-101124593D01*
X142318144Y-101126023D01*
X142306836Y-101129606D01*
X142305219Y-101129640D01*
X142304363Y-101129946D01*
X142293923Y-101134883D01*
X142282706Y-101139529D01*
X142273793Y-101142719D01*
X142269830Y-101144932D01*
X142259293Y-101150399D01*
X142256921Y-101150752D01*
X142245981Y-101157308D01*
X142242606Y-101159060D01*
X142242137Y-101159151D01*
X142238511Y-101161090D01*
X142228075Y-101166026D01*
X142216032Y-101173243D01*
X142206747Y-101180129D01*
X142203034Y-101182778D01*
X142199897Y-101184929D01*
X142188957Y-101191488D01*
X142187526Y-101193416D01*
X142177747Y-101200125D01*
X142176209Y-101200626D01*
X142175464Y-101201179D01*
X142166913Y-101208929D01*
X142157522Y-101216635D01*
X142149936Y-101222261D01*
X142146779Y-101225537D01*
X142138285Y-101233826D01*
X142136118Y-101234852D01*
X142127552Y-101244301D01*
X142124829Y-101246960D01*
X142124409Y-101247182D01*
X142121498Y-101250094D01*
X142112942Y-101257848D01*
X142103506Y-101268260D01*
X142096640Y-101277517D01*
X142088935Y-101286907D01*
X142082583Y-101293916D01*
X142080127Y-101297743D01*
X142073415Y-101307526D01*
X142071488Y-101308957D01*
X142064925Y-101319904D01*
X142062779Y-101323034D01*
X142062409Y-101323335D01*
X142060125Y-101326754D01*
X142053248Y-101336026D01*
X142046025Y-101348076D01*
X142041090Y-101358511D01*
X142039060Y-101362606D01*
X142037308Y-101365981D01*
X142030752Y-101376921D01*
X142030399Y-101379293D01*
X142024932Y-101389830D01*
X142023816Y-101390993D01*
X142023424Y-101391823D01*
X142019529Y-101402706D01*
X142014883Y-101413923D01*
X142009945Y-101424366D01*
X142005215Y-101437586D01*
X142002413Y-101448772D01*
X142001220Y-101453186D01*
X142000159Y-101456841D01*
X141995863Y-101468850D01*
X141995980Y-101471246D01*
X141992674Y-101482645D01*
X141991807Y-101484002D01*
X141991580Y-101484908D01*
X141989891Y-101496302D01*
X141987519Y-101508230D01*
X141986630Y-101511780D01*
X141985221Y-101517404D01*
X141984860Y-101521930D01*
X141983553Y-101533726D01*
X141982528Y-101535895D01*
X141981902Y-101548627D01*
X141981482Y-101552422D01*
X141981297Y-101552862D01*
X141980895Y-101556953D01*
X141979286Y-101567804D01*
X141979500Y-101567804D01*
X141979500Y-101594479D01*
X141979351Y-101600562D01*
X141978543Y-101617011D01*
X139240499Y-101617011D01*
X139240499Y-101509979D01*
X139241455Y-101497010D01*
X139241358Y-101495037D01*
X139241359Y-101495035D01*
X139240648Y-101480561D01*
X139240499Y-101474478D01*
X139240499Y-101447792D01*
X139240710Y-101447792D01*
X139239103Y-101436962D01*
X139237910Y-101424855D01*
X139237471Y-101415895D01*
X139237470Y-101415893D01*
X139237344Y-101413322D01*
X139235283Y-101399424D01*
X139232485Y-101388257D01*
X139230107Y-101376302D01*
X139228794Y-101367444D01*
X139228793Y-101367442D01*
X139228415Y-101364891D01*
X139225006Y-101351282D01*
X139221113Y-101340400D01*
X139219654Y-101336072D01*
X139218503Y-101332438D01*
X139215406Y-101320074D01*
X139213975Y-101318145D01*
X139210392Y-101306832D01*
X139210357Y-101305211D01*
X139210061Y-101304382D01*
X139208949Y-101302031D01*
X139208949Y-101302029D01*
X139205109Y-101293910D01*
X139200467Y-101282703D01*
X139197441Y-101274245D01*
X139197439Y-101274243D01*
X139197277Y-101273789D01*
X139195067Y-101269832D01*
X139189598Y-101259295D01*
X139189247Y-101256921D01*
X139182684Y-101245972D01*
X139180940Y-101242611D01*
X139180848Y-101242141D01*
X139178913Y-101238522D01*
X139175072Y-101230400D01*
X139175070Y-101230398D01*
X139173961Y-101228053D01*
X139166763Y-101216044D01*
X139165219Y-101213962D01*
X139165219Y-101213961D01*
X139159853Y-101206726D01*
X139157214Y-101203026D01*
X139155071Y-101199902D01*
X139148511Y-101188957D01*
X139146582Y-101187526D01*
X139139870Y-101177740D01*
X139139368Y-101176202D01*
X139138828Y-101175475D01*
X139137094Y-101173562D01*
X139137094Y-101173561D01*
X139131074Y-101166920D01*
X139123359Y-101157518D01*
X139117734Y-101149933D01*
X139114462Y-101146781D01*
X139106173Y-101138288D01*
X139105147Y-101136118D01*
X139095686Y-101127543D01*
X139093038Y-101124830D01*
X139092813Y-101124406D01*
X139089898Y-101121491D01*
X139082147Y-101112938D01*
X139071749Y-101103515D01*
X139062483Y-101096642D01*
X139053083Y-101088927D01*
X139046082Y-101082582D01*
X139042258Y-101080128D01*
X139032470Y-101073414D01*
X139031042Y-101071488D01*
X139020097Y-101064927D01*
X139016966Y-101062780D01*
X139016664Y-101062409D01*
X139013239Y-101060121D01*
X139003968Y-101053245D01*
X138991924Y-101046025D01*
X138981495Y-101041093D01*
X138977396Y-101039062D01*
X138974017Y-101037308D01*
X138963078Y-101030752D01*
X138960703Y-101030399D01*
X138950173Y-101024935D01*
X138949005Y-101023815D01*
X138948186Y-101023428D01*
X138937304Y-101019534D01*
X138926069Y-101014880D01*
X138915640Y-101009947D01*
X138902419Y-101005217D01*
X138891225Y-101002413D01*
X138886812Y-101001220D01*
X138883157Y-101000159D01*
X138871149Y-100995863D01*
X138868750Y-100995980D01*
X138857352Y-100992674D01*
X138855990Y-100991805D01*
X138855098Y-100991581D01*
X138843699Y-100989891D01*
X138831769Y-100987518D01*
X138822603Y-100985222D01*
X138818066Y-100984860D01*
X138806273Y-100983553D01*
X138804104Y-100982528D01*
X138791359Y-100981901D01*
X138787579Y-100981483D01*
X138787138Y-100981299D01*
X138783045Y-100980896D01*
X138772200Y-100979288D01*
X138772200Y-100979500D01*
X138745520Y-100979500D01*
X138739436Y-100979351D01*
X138722988Y-100978543D01*
X138710018Y-100979500D01*
X137711198Y-100979500D01*
X137644159Y-100959815D01*
X137598404Y-100907011D01*
X137588460Y-100837853D01*
X137617485Y-100774297D01*
X137676263Y-100736523D01*
X137687007Y-100733883D01*
X137737292Y-100723880D01*
X137806420Y-100710130D01*
X137997598Y-100630941D01*
X138169655Y-100515977D01*
X138315977Y-100369655D01*
X138430941Y-100197598D01*
X138510130Y-100006420D01*
X138550500Y-99803465D01*
X138550500Y-99596535D01*
X138510130Y-99393580D01*
X138430941Y-99202402D01*
X138315977Y-99030345D01*
X138315975Y-99030342D01*
X138169657Y-98884024D01*
X138083626Y-98826541D01*
X137997598Y-98769059D01*
X137806420Y-98689870D01*
X137806412Y-98689868D01*
X137603469Y-98649500D01*
X137603465Y-98649500D01*
X137396535Y-98649500D01*
X137396530Y-98649500D01*
X137193587Y-98689868D01*
X137193579Y-98689870D01*
X137002403Y-98769058D01*
X136830342Y-98884024D01*
X136684025Y-99030341D01*
X136684019Y-99030349D01*
X136603102Y-99151451D01*
X136549490Y-99196257D01*
X136480165Y-99204964D01*
X136417138Y-99174810D01*
X136396898Y-99151451D01*
X136315980Y-99030349D01*
X136315974Y-99030341D01*
X136169657Y-98884024D01*
X136083626Y-98826541D01*
X135997598Y-98769059D01*
X135806420Y-98689870D01*
X135806412Y-98689868D01*
X135603469Y-98649500D01*
X135603465Y-98649500D01*
X135396535Y-98649500D01*
X135396530Y-98649500D01*
X135193587Y-98689868D01*
X135193579Y-98689870D01*
X135002403Y-98769058D01*
X134830342Y-98884024D01*
X134684025Y-99030341D01*
X134684019Y-99030349D01*
X134603102Y-99151451D01*
X134549490Y-99196257D01*
X134480165Y-99204964D01*
X134417138Y-99174810D01*
X134396898Y-99151451D01*
X134315980Y-99030349D01*
X134315974Y-99030341D01*
X134169657Y-98884024D01*
X134083626Y-98826541D01*
X133997598Y-98769059D01*
X133806420Y-98689870D01*
X133806412Y-98689868D01*
X133603469Y-98649500D01*
X133603465Y-98649500D01*
X133396535Y-98649500D01*
X133396530Y-98649500D01*
X133193587Y-98689868D01*
X133193579Y-98689870D01*
X133002403Y-98769058D01*
X132830342Y-98884024D01*
X132684025Y-99030341D01*
X132684019Y-99030349D01*
X132603102Y-99151451D01*
X132549490Y-99196257D01*
X132480165Y-99204964D01*
X132417138Y-99174810D01*
X132396898Y-99151451D01*
X132315980Y-99030349D01*
X132315974Y-99030341D01*
X132169657Y-98884024D01*
X132083626Y-98826541D01*
X131997598Y-98769059D01*
X131806420Y-98689870D01*
X131806412Y-98689868D01*
X131603469Y-98649500D01*
X131603465Y-98649500D01*
X131396535Y-98649500D01*
X131396530Y-98649500D01*
X131193587Y-98689868D01*
X131193579Y-98689870D01*
X131002403Y-98769058D01*
X130830342Y-98884024D01*
X130684024Y-99030342D01*
X130569058Y-99202403D01*
X130489870Y-99393579D01*
X130489868Y-99393587D01*
X130449500Y-99596530D01*
X130449500Y-99803469D01*
X130489868Y-100006412D01*
X130489870Y-100006420D01*
X130569059Y-100197598D01*
X130626541Y-100283626D01*
X130684024Y-100369657D01*
X130830342Y-100515975D01*
X130830345Y-100515977D01*
X131002402Y-100630941D01*
X131193580Y-100710130D01*
X131250546Y-100721461D01*
X131312993Y-100733883D01*
X131374904Y-100766268D01*
X131409478Y-100826983D01*
X131405739Y-100896753D01*
X131364873Y-100953425D01*
X131299854Y-100979006D01*
X131288802Y-100979500D01*
X130057440Y-100979500D01*
X130055036Y-100978640D01*
X130037531Y-100979500D01*
X130007804Y-100979500D01*
X130007804Y-100979286D01*
X129996954Y-100980895D01*
X129984859Y-100982086D01*
X129975422Y-100982550D01*
X129970972Y-100983520D01*
X129959309Y-100985691D01*
X129956935Y-100985340D01*
X129944580Y-100988434D01*
X129940819Y-100989135D01*
X129940346Y-100989086D01*
X129936315Y-100989889D01*
X129924902Y-100991582D01*
X129911278Y-100994994D01*
X129900396Y-100998887D01*
X129896078Y-101000343D01*
X129892447Y-101001493D01*
X129880075Y-101004593D01*
X129878145Y-101006023D01*
X129866837Y-101009606D01*
X129865220Y-101009640D01*
X129864364Y-101009946D01*
X129853924Y-101014883D01*
X129842707Y-101019529D01*
X129833794Y-101022719D01*
X129829831Y-101024932D01*
X129819294Y-101030399D01*
X129816922Y-101030752D01*
X129805982Y-101037308D01*
X129802607Y-101039060D01*
X129802138Y-101039151D01*
X129798512Y-101041090D01*
X129788076Y-101046026D01*
X129776033Y-101053243D01*
X129766748Y-101060129D01*
X129763035Y-101062778D01*
X129759898Y-101064929D01*
X129748958Y-101071488D01*
X129747527Y-101073416D01*
X129737748Y-101080125D01*
X129736210Y-101080626D01*
X129735465Y-101081179D01*
X129726914Y-101088929D01*
X129717523Y-101096635D01*
X129709937Y-101102261D01*
X129706780Y-101105537D01*
X129698286Y-101113826D01*
X129696119Y-101114852D01*
X129687553Y-101124301D01*
X129684830Y-101126960D01*
X129684410Y-101127182D01*
X129681499Y-101130094D01*
X129672943Y-101137848D01*
X129663507Y-101148260D01*
X129656641Y-101157517D01*
X129648936Y-101166907D01*
X129642584Y-101173916D01*
X129640128Y-101177743D01*
X129633416Y-101187526D01*
X129631489Y-101188957D01*
X129624926Y-101199904D01*
X129622780Y-101203034D01*
X129622410Y-101203335D01*
X129620126Y-101206754D01*
X129613249Y-101216026D01*
X129606026Y-101228076D01*
X129601091Y-101238511D01*
X129599061Y-101242606D01*
X129597309Y-101245981D01*
X129590753Y-101256921D01*
X129590400Y-101259293D01*
X129584933Y-101269830D01*
X129583817Y-101270993D01*
X129583425Y-101271823D01*
X129579530Y-101282706D01*
X129574884Y-101293923D01*
X129569946Y-101304366D01*
X129565216Y-101317586D01*
X129562414Y-101328772D01*
X129561221Y-101333186D01*
X129560160Y-101336841D01*
X129555864Y-101348850D01*
X129555981Y-101351246D01*
X129552675Y-101362645D01*
X129551808Y-101364002D01*
X129551581Y-101364908D01*
X129549892Y-101376302D01*
X129547520Y-101388230D01*
X129546128Y-101393789D01*
X129545223Y-101397403D01*
X129544861Y-101401935D01*
X129543554Y-101413724D01*
X129542530Y-101415893D01*
X129541902Y-101428638D01*
X129541485Y-101432409D01*
X129541301Y-101432847D01*
X129540899Y-101436936D01*
X129539288Y-101447806D01*
X129539500Y-101447806D01*
X129539500Y-101474499D01*
X129539350Y-101480588D01*
X129538542Y-101497006D01*
X129539500Y-101509976D01*
X129539500Y-104394503D01*
X129539350Y-104400590D01*
X129538236Y-104423255D01*
X129537045Y-104435356D01*
X129534523Y-104452364D01*
X129532146Y-104464311D01*
X129527963Y-104481007D01*
X129524435Y-104492638D01*
X129518642Y-104508830D01*
X129513988Y-104520066D01*
X129506635Y-104535614D01*
X129500897Y-104546349D01*
X129492054Y-104561103D01*
X129485293Y-104571222D01*
X129475053Y-104585029D01*
X129467332Y-104594436D01*
X129455784Y-104607177D01*
X129447181Y-104615780D01*
X129434441Y-104627327D01*
X129425031Y-104635050D01*
X129411207Y-104645302D01*
X129401096Y-104652058D01*
X129386362Y-104660890D01*
X129375625Y-104666629D01*
X129360076Y-104673983D01*
X129348831Y-104678641D01*
X129332628Y-104684438D01*
X129320987Y-104687969D01*
X129304316Y-104692145D01*
X129292374Y-104694520D01*
X129275359Y-104697043D01*
X129263267Y-104698234D01*
X129246367Y-104699065D01*
X129240584Y-104699350D01*
X129234499Y-104699500D01*
X128357440Y-104699500D01*
X128355036Y-104698640D01*
X128337531Y-104699500D01*
X128307804Y-104699500D01*
X128307804Y-104699286D01*
X128296954Y-104700895D01*
X128284859Y-104702086D01*
X128275422Y-104702550D01*
X128270972Y-104703520D01*
X128259309Y-104705691D01*
X128256935Y-104705340D01*
X128244580Y-104708434D01*
X128240819Y-104709135D01*
X128240346Y-104709086D01*
X128236315Y-104709889D01*
X128224902Y-104711582D01*
X128211278Y-104714994D01*
X128200396Y-104718887D01*
X128196078Y-104720343D01*
X128192447Y-104721493D01*
X128180075Y-104724593D01*
X128178145Y-104726023D01*
X128166837Y-104729606D01*
X128165220Y-104729640D01*
X128164364Y-104729946D01*
X128153924Y-104734883D01*
X128142707Y-104739529D01*
X128133794Y-104742719D01*
X128129831Y-104744932D01*
X128119294Y-104750399D01*
X128116922Y-104750752D01*
X128105982Y-104757308D01*
X128102607Y-104759060D01*
X128102138Y-104759151D01*
X128098512Y-104761090D01*
X128088076Y-104766026D01*
X128076033Y-104773243D01*
X128066748Y-104780129D01*
X128063035Y-104782778D01*
X128059898Y-104784929D01*
X128048958Y-104791488D01*
X128047527Y-104793416D01*
X128037748Y-104800125D01*
X128036210Y-104800626D01*
X128035465Y-104801179D01*
X128026914Y-104808929D01*
X128017523Y-104816635D01*
X128009937Y-104822261D01*
X128006780Y-104825537D01*
X127998286Y-104833826D01*
X127996119Y-104834852D01*
X127987553Y-104844301D01*
X127984830Y-104846960D01*
X127984410Y-104847182D01*
X127981499Y-104850094D01*
X127972943Y-104857848D01*
X127963507Y-104868260D01*
X127956641Y-104877517D01*
X127948936Y-104886907D01*
X127942584Y-104893916D01*
X127940128Y-104897743D01*
X127933416Y-104907526D01*
X127931489Y-104908957D01*
X127924926Y-104919904D01*
X127922780Y-104923034D01*
X127922410Y-104923335D01*
X127920126Y-104926754D01*
X127913249Y-104936026D01*
X127906026Y-104948076D01*
X127901091Y-104958511D01*
X127899061Y-104962606D01*
X127897309Y-104965981D01*
X127890753Y-104976921D01*
X127890400Y-104979293D01*
X127884933Y-104989830D01*
X127883817Y-104990993D01*
X127883425Y-104991823D01*
X127879530Y-105002706D01*
X127874884Y-105013923D01*
X127872671Y-105018604D01*
X127871627Y-105020812D01*
X127869946Y-105024366D01*
X127865216Y-105037586D01*
X127862414Y-105048772D01*
X127861221Y-105053186D01*
X127860160Y-105056841D01*
X127855864Y-105068850D01*
X127855981Y-105071246D01*
X127852675Y-105082645D01*
X127851808Y-105084002D01*
X127851581Y-105084908D01*
X127849892Y-105096302D01*
X127847520Y-105108230D01*
X127845976Y-105114395D01*
X127845223Y-105117403D01*
X127844861Y-105121935D01*
X127843554Y-105133724D01*
X127842530Y-105135893D01*
X127841902Y-105148638D01*
X127841485Y-105152409D01*
X127841301Y-105152847D01*
X127840899Y-105156936D01*
X127839288Y-105167807D01*
X127839500Y-105167807D01*
X127839500Y-105194500D01*
X127839350Y-105200589D01*
X127838542Y-105217007D01*
X104100500Y-105217007D01*
X104100500Y-101958006D01*
X105650000Y-101958006D01*
X105650000Y-102201993D01*
X105688165Y-102442959D01*
X105763560Y-102674998D01*
X105874323Y-102892380D01*
X105941543Y-102984901D01*
X105941544Y-102984902D01*
X106635387Y-102291059D01*
X106640889Y-102311591D01*
X106719881Y-102448408D01*
X106831592Y-102560119D01*
X106968409Y-102639111D01*
X106988940Y-102644612D01*
X106295096Y-103338454D01*
X106295097Y-103338456D01*
X106387619Y-103405676D01*
X106605001Y-103516439D01*
X106837040Y-103591834D01*
X107078007Y-103630000D01*
X107321993Y-103630000D01*
X107562959Y-103591834D01*
X107794998Y-103516439D01*
X108012377Y-103405678D01*
X108104901Y-103338454D01*
X108104902Y-103338454D01*
X107411059Y-102644612D01*
X107431591Y-102639111D01*
X107568408Y-102560119D01*
X107680119Y-102448408D01*
X107759111Y-102311591D01*
X107764612Y-102291060D01*
X108458454Y-102984902D01*
X108458454Y-102984901D01*
X108525678Y-102892377D01*
X108636439Y-102674998D01*
X108711834Y-102442959D01*
X108750000Y-102201993D01*
X108750000Y-101958006D01*
X108711834Y-101717040D01*
X108636439Y-101485001D01*
X108525676Y-101267619D01*
X108458456Y-101175097D01*
X108458454Y-101175096D01*
X107764612Y-101868939D01*
X107759111Y-101848409D01*
X107680119Y-101711592D01*
X107568408Y-101599881D01*
X107431591Y-101520889D01*
X107411058Y-101515387D01*
X108104902Y-100821544D01*
X108104901Y-100821543D01*
X108012380Y-100754323D01*
X107794998Y-100643560D01*
X107562959Y-100568165D01*
X107321993Y-100530000D01*
X107078007Y-100530000D01*
X106837040Y-100568165D01*
X106605001Y-100643560D01*
X106387626Y-100754319D01*
X106295097Y-100821544D01*
X106988941Y-101515387D01*
X106968409Y-101520889D01*
X106831592Y-101599881D01*
X106719881Y-101711592D01*
X106640889Y-101848409D01*
X106635387Y-101868940D01*
X105941544Y-101175097D01*
X105874319Y-101267626D01*
X105763560Y-101485001D01*
X105688165Y-101717040D01*
X105650000Y-101958006D01*
X104100500Y-101958006D01*
X104100500Y-96893713D01*
X105849500Y-96893713D01*
X105849500Y-97106286D01*
X105882753Y-97316239D01*
X105948444Y-97518414D01*
X106044951Y-97707820D01*
X106169890Y-97879786D01*
X106320213Y-98030109D01*
X106492179Y-98155048D01*
X106492181Y-98155049D01*
X106492184Y-98155051D01*
X106681588Y-98251557D01*
X106883757Y-98317246D01*
X107093713Y-98350500D01*
X107093714Y-98350500D01*
X107306286Y-98350500D01*
X107306287Y-98350500D01*
X107516243Y-98317246D01*
X107718412Y-98251557D01*
X107907816Y-98155051D01*
X107929789Y-98139086D01*
X108079786Y-98030109D01*
X108079788Y-98030106D01*
X108079792Y-98030104D01*
X108230104Y-97879792D01*
X108230106Y-97879788D01*
X108230109Y-97879786D01*
X108355048Y-97707820D01*
X108355047Y-97707820D01*
X108355051Y-97707816D01*
X108451557Y-97518412D01*
X108517246Y-97316243D01*
X108550500Y-97106287D01*
X108550500Y-96893713D01*
X108517246Y-96683757D01*
X108451557Y-96481588D01*
X108355051Y-96292184D01*
X108355049Y-96292181D01*
X108355048Y-96292179D01*
X108230109Y-96120213D01*
X108079786Y-95969890D01*
X107907820Y-95844951D01*
X107718414Y-95748444D01*
X107718413Y-95748443D01*
X107718412Y-95748443D01*
X107516243Y-95682754D01*
X107516241Y-95682753D01*
X107516240Y-95682753D01*
X107354957Y-95657208D01*
X107306287Y-95649500D01*
X107093713Y-95649500D01*
X107045042Y-95657208D01*
X106883760Y-95682753D01*
X106681585Y-95748444D01*
X106492179Y-95844951D01*
X106320213Y-95969890D01*
X106169890Y-96120213D01*
X106044951Y-96292179D01*
X105948444Y-96481585D01*
X105882753Y-96683760D01*
X105849500Y-96893713D01*
X104100500Y-96893713D01*
X104100500Y-96016310D01*
X104101665Y-96012816D01*
X104100500Y-95996427D01*
X104100500Y-95980009D01*
X104100500Y-95980008D01*
X104100209Y-95978547D01*
X104099922Y-95976412D01*
X104099222Y-95974368D01*
X104098830Y-95972936D01*
X104093460Y-95962196D01*
X104089808Y-95954195D01*
X104085200Y-95943072D01*
X104085200Y-95943071D01*
X104085197Y-95943068D01*
X104084350Y-95941799D01*
X104076543Y-95928362D01*
X102044510Y-91864295D01*
X102019219Y-91813713D01*
X105849500Y-91813713D01*
X105849500Y-92026286D01*
X105882753Y-92236239D01*
X105948444Y-92438414D01*
X106044951Y-92627820D01*
X106169890Y-92799786D01*
X106320213Y-92950109D01*
X106492179Y-93075048D01*
X106492181Y-93075049D01*
X106492184Y-93075051D01*
X106681588Y-93171557D01*
X106883757Y-93237246D01*
X107093713Y-93270500D01*
X107093714Y-93270500D01*
X107306286Y-93270500D01*
X107306287Y-93270500D01*
X107516243Y-93237246D01*
X107718412Y-93171557D01*
X107907816Y-93075051D01*
X107929789Y-93059086D01*
X108079786Y-92950109D01*
X108079788Y-92950106D01*
X108079792Y-92950104D01*
X108230104Y-92799792D01*
X108230106Y-92799788D01*
X108230109Y-92799786D01*
X108355048Y-92627820D01*
X108355047Y-92627820D01*
X108355051Y-92627816D01*
X108451557Y-92438412D01*
X108517246Y-92236243D01*
X108550500Y-92026287D01*
X108550500Y-91813713D01*
X108517246Y-91603757D01*
X108451557Y-91401588D01*
X108355051Y-91212184D01*
X108355049Y-91212181D01*
X108355048Y-91212179D01*
X108230109Y-91040213D01*
X108079786Y-90889890D01*
X107907820Y-90764951D01*
X107718414Y-90668444D01*
X107718413Y-90668443D01*
X107718412Y-90668443D01*
X107516243Y-90602754D01*
X107516241Y-90602753D01*
X107516240Y-90602753D01*
X107354957Y-90577208D01*
X107306287Y-90569500D01*
X107093713Y-90569500D01*
X107045042Y-90577208D01*
X106883760Y-90602753D01*
X106681585Y-90668444D01*
X106492179Y-90764951D01*
X106320213Y-90889890D01*
X106169890Y-91040213D01*
X106044951Y-91212179D01*
X105948444Y-91401585D01*
X105882753Y-91603760D01*
X105849500Y-91813713D01*
X102019219Y-91813713D01*
X100113591Y-88002457D01*
X100100500Y-87947003D01*
X100100500Y-86958006D01*
X104450000Y-86958006D01*
X104450000Y-87201993D01*
X104488165Y-87442959D01*
X104563560Y-87674998D01*
X104674323Y-87892380D01*
X104741543Y-87984901D01*
X104741544Y-87984902D01*
X105435387Y-87291059D01*
X105440889Y-87311591D01*
X105519881Y-87448408D01*
X105631592Y-87560119D01*
X105768409Y-87639111D01*
X105788940Y-87644612D01*
X105095096Y-88338454D01*
X105095097Y-88338456D01*
X105187619Y-88405676D01*
X105405001Y-88516439D01*
X105637040Y-88591834D01*
X105878007Y-88630000D01*
X106121993Y-88630000D01*
X106362959Y-88591834D01*
X106594998Y-88516439D01*
X106812377Y-88405678D01*
X106904901Y-88338454D01*
X106904902Y-88338454D01*
X106211059Y-87644612D01*
X106231591Y-87639111D01*
X106368408Y-87560119D01*
X106480119Y-87448408D01*
X106559111Y-87311591D01*
X106564612Y-87291060D01*
X107258454Y-87984902D01*
X107258454Y-87984901D01*
X107325678Y-87892377D01*
X107436439Y-87674998D01*
X107511834Y-87442959D01*
X107550000Y-87201993D01*
X107550000Y-86958006D01*
X107511834Y-86717040D01*
X107436439Y-86485001D01*
X107325676Y-86267619D01*
X107258456Y-86175097D01*
X107258454Y-86175096D01*
X106564612Y-86868939D01*
X106559111Y-86848409D01*
X106480119Y-86711592D01*
X106368408Y-86599881D01*
X106231591Y-86520889D01*
X106211058Y-86515387D01*
X106904902Y-85821544D01*
X106904901Y-85821543D01*
X106812380Y-85754323D01*
X106594998Y-85643560D01*
X106362959Y-85568165D01*
X106121993Y-85530000D01*
X105878007Y-85530000D01*
X105637040Y-85568165D01*
X105405001Y-85643560D01*
X105187626Y-85754319D01*
X105095097Y-85821544D01*
X105788941Y-86515387D01*
X105768409Y-86520889D01*
X105631592Y-86599881D01*
X105519881Y-86711592D01*
X105440889Y-86848409D01*
X105435387Y-86868940D01*
X104741544Y-86175097D01*
X104674319Y-86267626D01*
X104563560Y-86485001D01*
X104488165Y-86717040D01*
X104450000Y-86958006D01*
X100100500Y-86958006D01*
X100100500Y-81893713D01*
X104649500Y-81893713D01*
X104649500Y-82106286D01*
X104682753Y-82316239D01*
X104748444Y-82518414D01*
X104844951Y-82707820D01*
X104969890Y-82879786D01*
X105120213Y-83030109D01*
X105292179Y-83155048D01*
X105292181Y-83155049D01*
X105292184Y-83155051D01*
X105481588Y-83251557D01*
X105683757Y-83317246D01*
X105893713Y-83350500D01*
X105893714Y-83350500D01*
X106106286Y-83350500D01*
X106106287Y-83350500D01*
X106316243Y-83317246D01*
X106518412Y-83251557D01*
X106707816Y-83155051D01*
X106729789Y-83139086D01*
X106879786Y-83030109D01*
X106879788Y-83030106D01*
X106879792Y-83030104D01*
X107030104Y-82879792D01*
X107030106Y-82879788D01*
X107030109Y-82879786D01*
X107155048Y-82707820D01*
X107155047Y-82707820D01*
X107155051Y-82707816D01*
X107251557Y-82518412D01*
X107317246Y-82316243D01*
X107350500Y-82106287D01*
X107350500Y-81893713D01*
X107317246Y-81683757D01*
X107251557Y-81481588D01*
X107155051Y-81292184D01*
X107155049Y-81292181D01*
X107155048Y-81292179D01*
X107030109Y-81120213D01*
X106879786Y-80969890D01*
X106707820Y-80844951D01*
X106518414Y-80748444D01*
X106518413Y-80748443D01*
X106518412Y-80748443D01*
X106316243Y-80682754D01*
X106316241Y-80682753D01*
X106316240Y-80682753D01*
X106154957Y-80657208D01*
X106106287Y-80649500D01*
X105893713Y-80649500D01*
X105845042Y-80657208D01*
X105683760Y-80682753D01*
X105481585Y-80748444D01*
X105292179Y-80844951D01*
X105120213Y-80969890D01*
X104969890Y-81120213D01*
X104844951Y-81292179D01*
X104748444Y-81481585D01*
X104682753Y-81683760D01*
X104649500Y-81893713D01*
X100100500Y-81893713D01*
X100100500Y-76813713D01*
X104649500Y-76813713D01*
X104649500Y-77026286D01*
X104682753Y-77236239D01*
X104748444Y-77438414D01*
X104844951Y-77627820D01*
X104969890Y-77799786D01*
X105120213Y-77950109D01*
X105292179Y-78075048D01*
X105292181Y-78075049D01*
X105292184Y-78075051D01*
X105481588Y-78171557D01*
X105683757Y-78237246D01*
X105893713Y-78270500D01*
X105893714Y-78270500D01*
X106106286Y-78270500D01*
X106106287Y-78270500D01*
X106316243Y-78237246D01*
X106518412Y-78171557D01*
X106707816Y-78075051D01*
X106783603Y-78019989D01*
X106879786Y-77950109D01*
X106879788Y-77950106D01*
X106879792Y-77950104D01*
X107030104Y-77799792D01*
X107030106Y-77799788D01*
X107030109Y-77799786D01*
X107155048Y-77627820D01*
X107155047Y-77627820D01*
X107155051Y-77627816D01*
X107251557Y-77438412D01*
X107317246Y-77236243D01*
X107350500Y-77026287D01*
X107350500Y-76813713D01*
X107317246Y-76603757D01*
X107251557Y-76401588D01*
X107155051Y-76212184D01*
X107155049Y-76212181D01*
X107155048Y-76212179D01*
X107030109Y-76040213D01*
X106879786Y-75889890D01*
X106707820Y-75764951D01*
X106518414Y-75668444D01*
X106518413Y-75668443D01*
X106518412Y-75668443D01*
X106316243Y-75602754D01*
X106316241Y-75602753D01*
X106316240Y-75602753D01*
X106154957Y-75577208D01*
X106106287Y-75569500D01*
X105893713Y-75569500D01*
X105845042Y-75577208D01*
X105683760Y-75602753D01*
X105481585Y-75668444D01*
X105292179Y-75764951D01*
X105120213Y-75889890D01*
X104969890Y-76040213D01*
X104844951Y-76212179D01*
X104748444Y-76401585D01*
X104682753Y-76603760D01*
X104649500Y-76813713D01*
X100100500Y-76813713D01*
X100100500Y-71878711D01*
X112149500Y-71878711D01*
X112149500Y-72121288D01*
X112181161Y-72361785D01*
X112243947Y-72596104D01*
X112318986Y-72777263D01*
X112336776Y-72820212D01*
X112458064Y-73030289D01*
X112458066Y-73030292D01*
X112458067Y-73030293D01*
X112605733Y-73222736D01*
X112605739Y-73222743D01*
X112777256Y-73394260D01*
X112777263Y-73394266D01*
X112890321Y-73481018D01*
X112969711Y-73541936D01*
X113179788Y-73663224D01*
X113403900Y-73756054D01*
X113638211Y-73818838D01*
X113818586Y-73842584D01*
X113878711Y-73850500D01*
X113878712Y-73850500D01*
X114121289Y-73850500D01*
X114169388Y-73844167D01*
X114361789Y-73818838D01*
X114596100Y-73756054D01*
X114820212Y-73663224D01*
X115030289Y-73541936D01*
X115222738Y-73394265D01*
X115394265Y-73222738D01*
X115541936Y-73030289D01*
X115663224Y-72820212D01*
X115756054Y-72596100D01*
X115818838Y-72361789D01*
X115850500Y-72121288D01*
X115850500Y-71878712D01*
X115818838Y-71638211D01*
X115756054Y-71403900D01*
X115663224Y-71179788D01*
X115541936Y-70969711D01*
X115394265Y-70777262D01*
X115394260Y-70777256D01*
X115222743Y-70605739D01*
X115222736Y-70605733D01*
X115030293Y-70458067D01*
X115030292Y-70458066D01*
X115030289Y-70458064D01*
X114820212Y-70336776D01*
X114820205Y-70336773D01*
X114596104Y-70243947D01*
X114361785Y-70181161D01*
X114121289Y-70149500D01*
X114121288Y-70149500D01*
X113878712Y-70149500D01*
X113878711Y-70149500D01*
X113638214Y-70181161D01*
X113403895Y-70243947D01*
X113179794Y-70336773D01*
X113179785Y-70336777D01*
X112969706Y-70458067D01*
X112777263Y-70605733D01*
X112777256Y-70605739D01*
X112605739Y-70777256D01*
X112605733Y-70777263D01*
X112458067Y-70969706D01*
X112336777Y-71179785D01*
X112336773Y-71179794D01*
X112243947Y-71403895D01*
X112181161Y-71638214D01*
X112149500Y-71878711D01*
X100100500Y-71878711D01*
X100100500Y-66385837D01*
X112049500Y-66385837D01*
X112049500Y-66614162D01*
X112085215Y-66839660D01*
X112155770Y-67056803D01*
X112259421Y-67260228D01*
X112393621Y-67444937D01*
X112555063Y-67606379D01*
X112739772Y-67740579D01*
X112835884Y-67789550D01*
X112943196Y-67844229D01*
X112943198Y-67844229D01*
X112943201Y-67844231D01*
X113059592Y-67882049D01*
X113160339Y-67914784D01*
X113385838Y-67950500D01*
X113385843Y-67950500D01*
X113614162Y-67950500D01*
X113839660Y-67914784D01*
X114056799Y-67844231D01*
X114260228Y-67740579D01*
X114444937Y-67606379D01*
X114606379Y-67444937D01*
X114740579Y-67260228D01*
X114844231Y-67056799D01*
X114914784Y-66839660D01*
X114950500Y-66614162D01*
X114950500Y-66385837D01*
X114914784Y-66160339D01*
X114844229Y-65943196D01*
X114740578Y-65739771D01*
X114606379Y-65555063D01*
X114444937Y-65393621D01*
X114260228Y-65259421D01*
X114056803Y-65155770D01*
X113839660Y-65085215D01*
X113614162Y-65049500D01*
X113614157Y-65049500D01*
X113385843Y-65049500D01*
X113385838Y-65049500D01*
X113160339Y-65085215D01*
X112943196Y-65155770D01*
X112739771Y-65259421D01*
X112555061Y-65393622D01*
X112393622Y-65555061D01*
X112259421Y-65739771D01*
X112155770Y-65943196D01*
X112085215Y-66160339D01*
X112049500Y-66385837D01*
X100100500Y-66385837D01*
X100100500Y-60893753D01*
X115650000Y-60893753D01*
X115650000Y-61106246D01*
X115683242Y-61316127D01*
X115683242Y-61316130D01*
X115748904Y-61518217D01*
X115845375Y-61707550D01*
X115884728Y-61761716D01*
X116517037Y-61129408D01*
X116534075Y-61192993D01*
X116599901Y-61307007D01*
X116692993Y-61400099D01*
X116807007Y-61465925D01*
X116870590Y-61482962D01*
X116224019Y-62129532D01*
X116220847Y-62144636D01*
X116199275Y-62173670D01*
X116122443Y-62250502D01*
X116016006Y-62397002D01*
X115933788Y-62558360D01*
X115933787Y-62558363D01*
X115877829Y-62730589D01*
X115849500Y-62909448D01*
X115849500Y-63090551D01*
X115877829Y-63269410D01*
X115933787Y-63441636D01*
X115933788Y-63441639D01*
X116016006Y-63602997D01*
X116122441Y-63749494D01*
X116122445Y-63749499D01*
X116250500Y-63877554D01*
X116250505Y-63877558D01*
X116378287Y-63970396D01*
X116397006Y-63983996D01*
X116502484Y-64037740D01*
X116558360Y-64066211D01*
X116558363Y-64066212D01*
X116644476Y-64094191D01*
X116730591Y-64122171D01*
X116813429Y-64135291D01*
X116909449Y-64150500D01*
X116909454Y-64150500D01*
X117090551Y-64150500D01*
X117177259Y-64136765D01*
X117269409Y-64122171D01*
X117441639Y-64066211D01*
X117602994Y-63983996D01*
X117749501Y-63877553D01*
X117877553Y-63749501D01*
X117983996Y-63602994D01*
X118066211Y-63441639D01*
X118122171Y-63269409D01*
X118136765Y-63177259D01*
X118150500Y-63090551D01*
X118150500Y-62909448D01*
X118134019Y-62805397D01*
X118122171Y-62730591D01*
X118066211Y-62558361D01*
X118066211Y-62558360D01*
X118026344Y-62480119D01*
X117983996Y-62397006D01*
X117925316Y-62316239D01*
X117877558Y-62250505D01*
X117877554Y-62250500D01*
X117800724Y-62173670D01*
X117777397Y-62130950D01*
X117129408Y-61482962D01*
X117192993Y-61465925D01*
X117307007Y-61400099D01*
X117400099Y-61307007D01*
X117465925Y-61192993D01*
X117482962Y-61129409D01*
X118115270Y-61761717D01*
X118115270Y-61761716D01*
X118154622Y-61707554D01*
X118251095Y-61518217D01*
X118316757Y-61316130D01*
X118316757Y-61316127D01*
X118350000Y-61106246D01*
X118350000Y-60893753D01*
X118316757Y-60683872D01*
X118316757Y-60683869D01*
X118251095Y-60481782D01*
X118154624Y-60292449D01*
X118115270Y-60238282D01*
X118115269Y-60238282D01*
X117482962Y-60870590D01*
X117465925Y-60807007D01*
X117400099Y-60692993D01*
X117307007Y-60599901D01*
X117192993Y-60534075D01*
X117129409Y-60517037D01*
X117775975Y-59870470D01*
X117779147Y-59855369D01*
X117800718Y-59826335D01*
X117877553Y-59749501D01*
X117983996Y-59602994D01*
X118066211Y-59441639D01*
X118122171Y-59269409D01*
X118136765Y-59177259D01*
X118150500Y-59090551D01*
X118150500Y-58909448D01*
X118134019Y-58805397D01*
X118122171Y-58730591D01*
X118066211Y-58558361D01*
X118066211Y-58558360D01*
X118037740Y-58502484D01*
X117983996Y-58397006D01*
X117970396Y-58378287D01*
X117877558Y-58250505D01*
X117877554Y-58250500D01*
X117749499Y-58122445D01*
X117749494Y-58122441D01*
X117602997Y-58016006D01*
X117602996Y-58016005D01*
X117602994Y-58016004D01*
X117551300Y-57989664D01*
X117441639Y-57933788D01*
X117441636Y-57933787D01*
X117269410Y-57877829D01*
X117090551Y-57849500D01*
X117090546Y-57849500D01*
X116909454Y-57849500D01*
X116909449Y-57849500D01*
X116730589Y-57877829D01*
X116558363Y-57933787D01*
X116558360Y-57933788D01*
X116397002Y-58016006D01*
X116250505Y-58122441D01*
X116250500Y-58122445D01*
X116122445Y-58250500D01*
X116122441Y-58250505D01*
X116016006Y-58397002D01*
X115933788Y-58558360D01*
X115933787Y-58558363D01*
X115877829Y-58730589D01*
X115849500Y-58909448D01*
X115849500Y-59090551D01*
X115877829Y-59269410D01*
X115933787Y-59441636D01*
X115933788Y-59441639D01*
X116016006Y-59602997D01*
X116122441Y-59749494D01*
X116122445Y-59749499D01*
X116199274Y-59826328D01*
X116222600Y-59869047D01*
X116870591Y-60517037D01*
X116807007Y-60534075D01*
X116692993Y-60599901D01*
X116599901Y-60692993D01*
X116534075Y-60807007D01*
X116517037Y-60870591D01*
X115884728Y-60238282D01*
X115884727Y-60238282D01*
X115845380Y-60292439D01*
X115748904Y-60481782D01*
X115683242Y-60683869D01*
X115683242Y-60683872D01*
X115650000Y-60893753D01*
X100100500Y-60893753D01*
X100100500Y-55385837D01*
X112049500Y-55385837D01*
X112049500Y-55614162D01*
X112085215Y-55839660D01*
X112155770Y-56056803D01*
X112259421Y-56260228D01*
X112393621Y-56444937D01*
X112555063Y-56606379D01*
X112739772Y-56740579D01*
X112835884Y-56789550D01*
X112943196Y-56844229D01*
X112943198Y-56844229D01*
X112943201Y-56844231D01*
X113059592Y-56882049D01*
X113160339Y-56914784D01*
X113385838Y-56950500D01*
X113385843Y-56950500D01*
X113614162Y-56950500D01*
X113839660Y-56914784D01*
X114056799Y-56844231D01*
X114260228Y-56740579D01*
X114444937Y-56606379D01*
X114606379Y-56444937D01*
X114740579Y-56260228D01*
X114844231Y-56056799D01*
X114914784Y-55839660D01*
X114950500Y-55614162D01*
X114950500Y-55385837D01*
X114914784Y-55160339D01*
X114844229Y-54943196D01*
X114740578Y-54739771D01*
X114606379Y-54555063D01*
X114444937Y-54393621D01*
X114260228Y-54259421D01*
X114056803Y-54155770D01*
X113839660Y-54085215D01*
X113614162Y-54049500D01*
X113614157Y-54049500D01*
X113385843Y-54049500D01*
X113385838Y-54049500D01*
X113160339Y-54085215D01*
X112943196Y-54155770D01*
X112739771Y-54259421D01*
X112555061Y-54393622D01*
X112393622Y-54555061D01*
X112259421Y-54739771D01*
X112155770Y-54943196D01*
X112085215Y-55160339D01*
X112049500Y-55385837D01*
X100100500Y-55385837D01*
X100100500Y-47878006D01*
X102370000Y-47878006D01*
X102370000Y-48121993D01*
X102408165Y-48362959D01*
X102483560Y-48594998D01*
X102594323Y-48812380D01*
X102661543Y-48904901D01*
X102661544Y-48904902D01*
X103355387Y-48211059D01*
X103360889Y-48231591D01*
X103439881Y-48368408D01*
X103551592Y-48480119D01*
X103688409Y-48559111D01*
X103708940Y-48564612D01*
X103015096Y-49258454D01*
X103015097Y-49258456D01*
X103107619Y-49325676D01*
X103325001Y-49436439D01*
X103557040Y-49511834D01*
X103798007Y-49550000D01*
X104041993Y-49550000D01*
X104282959Y-49511834D01*
X104514998Y-49436439D01*
X104732377Y-49325678D01*
X104824901Y-49258454D01*
X104824902Y-49258454D01*
X104131059Y-48564612D01*
X104151591Y-48559111D01*
X104288408Y-48480119D01*
X104400119Y-48368408D01*
X104479111Y-48231591D01*
X104484612Y-48211060D01*
X105178454Y-48904902D01*
X105178454Y-48904901D01*
X105245678Y-48812377D01*
X105356439Y-48594998D01*
X105431834Y-48362959D01*
X105470000Y-48121993D01*
X105470000Y-47893713D01*
X107649500Y-47893713D01*
X107649500Y-48106287D01*
X107682754Y-48316243D01*
X107726214Y-48450000D01*
X107748444Y-48518414D01*
X107844951Y-48707820D01*
X107969890Y-48879786D01*
X108120213Y-49030109D01*
X108292179Y-49155048D01*
X108292181Y-49155049D01*
X108292184Y-49155051D01*
X108481588Y-49251557D01*
X108683757Y-49317246D01*
X108893713Y-49350500D01*
X108893714Y-49350500D01*
X109106286Y-49350500D01*
X109106287Y-49350500D01*
X109316243Y-49317246D01*
X109518412Y-49251557D01*
X109707816Y-49155051D01*
X109755774Y-49120208D01*
X109879786Y-49030109D01*
X109879788Y-49030106D01*
X109879792Y-49030104D01*
X110030104Y-48879792D01*
X110030106Y-48879788D01*
X110030109Y-48879786D01*
X110155048Y-48707820D01*
X110155047Y-48707820D01*
X110155051Y-48707816D01*
X110251557Y-48518412D01*
X110317246Y-48316243D01*
X110350500Y-48106287D01*
X110350500Y-47893713D01*
X112729500Y-47893713D01*
X112729500Y-48106287D01*
X112762754Y-48316243D01*
X112806214Y-48450000D01*
X112828444Y-48518414D01*
X112924951Y-48707820D01*
X113049890Y-48879786D01*
X113200213Y-49030109D01*
X113372179Y-49155048D01*
X113372181Y-49155049D01*
X113372184Y-49155051D01*
X113561588Y-49251557D01*
X113763757Y-49317246D01*
X113973713Y-49350500D01*
X113973714Y-49350500D01*
X114186286Y-49350500D01*
X114186287Y-49350500D01*
X114396243Y-49317246D01*
X114598412Y-49251557D01*
X114787816Y-49155051D01*
X114835774Y-49120208D01*
X114959786Y-49030109D01*
X114959788Y-49030106D01*
X114959792Y-49030104D01*
X115110104Y-48879792D01*
X115110106Y-48879788D01*
X115110109Y-48879786D01*
X115235048Y-48707820D01*
X115235047Y-48707820D01*
X115235051Y-48707816D01*
X115331557Y-48518412D01*
X115397246Y-48316243D01*
X115430500Y-48106287D01*
X115430500Y-47893713D01*
X115397246Y-47683757D01*
X115331557Y-47481588D01*
X115235051Y-47292184D01*
X115235049Y-47292181D01*
X115235048Y-47292179D01*
X115110109Y-47120213D01*
X114959786Y-46969890D01*
X114787820Y-46844951D01*
X114598414Y-46748444D01*
X114598413Y-46748443D01*
X114598412Y-46748443D01*
X114396243Y-46682754D01*
X114396241Y-46682753D01*
X114396240Y-46682753D01*
X114234957Y-46657208D01*
X114186287Y-46649500D01*
X113973713Y-46649500D01*
X113925042Y-46657208D01*
X113763760Y-46682753D01*
X113561585Y-46748444D01*
X113372179Y-46844951D01*
X113200213Y-46969890D01*
X113049890Y-47120213D01*
X112924951Y-47292179D01*
X112828444Y-47481585D01*
X112762753Y-47683760D01*
X112749346Y-47768409D01*
X112729500Y-47893713D01*
X110350500Y-47893713D01*
X110317246Y-47683757D01*
X110251557Y-47481588D01*
X110155051Y-47292184D01*
X110155049Y-47292181D01*
X110155048Y-47292179D01*
X110030109Y-47120213D01*
X109879786Y-46969890D01*
X109707820Y-46844951D01*
X109518414Y-46748444D01*
X109518413Y-46748443D01*
X109518412Y-46748443D01*
X109316243Y-46682754D01*
X109316241Y-46682753D01*
X109316240Y-46682753D01*
X109154957Y-46657208D01*
X109106287Y-46649500D01*
X108893713Y-46649500D01*
X108845042Y-46657208D01*
X108683760Y-46682753D01*
X108481585Y-46748444D01*
X108292179Y-46844951D01*
X108120213Y-46969890D01*
X107969890Y-47120213D01*
X107844951Y-47292179D01*
X107748444Y-47481585D01*
X107682753Y-47683760D01*
X107669346Y-47768409D01*
X107649500Y-47893713D01*
X105470000Y-47893713D01*
X105470000Y-47878006D01*
X105431834Y-47637040D01*
X105356439Y-47405001D01*
X105245676Y-47187619D01*
X105178456Y-47095097D01*
X105178454Y-47095096D01*
X104484612Y-47788939D01*
X104479111Y-47768409D01*
X104400119Y-47631592D01*
X104288408Y-47519881D01*
X104151591Y-47440889D01*
X104131058Y-47435387D01*
X104824902Y-46741544D01*
X104824901Y-46741543D01*
X104732380Y-46674323D01*
X104514998Y-46563560D01*
X104282959Y-46488165D01*
X104041993Y-46450000D01*
X103798007Y-46450000D01*
X103557040Y-46488165D01*
X103325001Y-46563560D01*
X103107626Y-46674319D01*
X103015097Y-46741544D01*
X103708941Y-47435387D01*
X103688409Y-47440889D01*
X103551592Y-47519881D01*
X103439881Y-47631592D01*
X103360889Y-47768409D01*
X103355387Y-47788940D01*
X102661544Y-47095097D01*
X102594319Y-47187626D01*
X102483560Y-47405001D01*
X102408165Y-47637040D01*
X102370000Y-47878006D01*
X100100500Y-47878006D01*
X100100500Y-44092990D01*
X100120185Y-44025951D01*
X100136819Y-44005309D01*
X104005310Y-40136819D01*
X104066633Y-40103334D01*
X104092991Y-40100500D01*
X122775500Y-40100500D01*
X122842539Y-40120185D01*
G37*
%TD.AperFunction*%
%TD*%
M02*
