%TF.GenerationSoftware,KiCad,Pcbnew,10.0.3*%
%TF.CreationDate,2026-07-10T11:23:34+05:30*%
%TF.ProjectId,hakai_mouse_final,68616b61-695f-46d6-9f75-73655f66696e,5.3*%
%TF.SameCoordinates,Original*%
%TF.FileFunction,Soldermask,Bot*%
%TF.FilePolarity,Negative*%
%FSLAX46Y46*%
G04 Gerber Fmt 4.6, Leading zero omitted, Abs format (unit mm)*
G04 Created by KiCad (PCBNEW 10.0.3) date 2026-07-10 11:23:34*
%MOMM*%
%LPD*%
G01*
G04 APERTURE LIST*
G04 Aperture macros list*
%AMRoundRect*
0 Rectangle with rounded corners*
0 $1 Rounding radius*
0 $2 $3 $4 $5 $6 $7 $8 $9 X,Y pos of 4 corners*
0 Add a 4 corners polygon primitive as box body*
4,1,4,$2,$3,$4,$5,$6,$7,$8,$9,$2,$3,0*
0 Add four circle primitives for the rounded corners*
1,1,$1+$1,$2,$3*
1,1,$1+$1,$4,$5*
1,1,$1+$1,$6,$7*
1,1,$1+$1,$8,$9*
0 Add four rect primitives between the rounded corners*
20,1,$1+$1,$2,$3,$4,$5,0*
20,1,$1+$1,$4,$5,$6,$7,0*
20,1,$1+$1,$6,$7,$8,$9,0*
20,1,$1+$1,$8,$9,$2,$3,0*%
G04 Aperture macros list end*
%ADD10RoundRect,0.250000X-0.350000X-0.625000X0.350000X-0.625000X0.350000X0.625000X-0.350000X0.625000X0*%
%ADD11O,1.200000X1.750000*%
%ADD12C,2.100000*%
%ADD13C,1.700000*%
%ADD14C,2.300000*%
%ADD15R,1.700000X1.700000*%
%ADD16C,3.200000*%
%ADD17C,1.500000*%
%ADD18C,0.650000*%
%ADD19O,1.000000X2.100000*%
%ADD20O,1.000000X1.600000*%
G04 APERTURE END LIST*
D10*
%TO.C,J2*%
X133000000Y-125000000D03*
D11*
X135000000Y-125000000D03*
%TD*%
D12*
%TO.C,SW5*%
X149920000Y-62000000D03*
X155000000Y-62000000D03*
X160080000Y-62000000D03*
%TD*%
D13*
%TO.C,EC1*%
X117000000Y-59000000D03*
X117000000Y-63000000D03*
X117000000Y-61000000D03*
D14*
X113500000Y-55500000D03*
X113500000Y-66500000D03*
%TD*%
D15*
%TO.C,J3*%
X107000000Y-133000000D03*
D13*
X107000000Y-135540000D03*
X107000000Y-138080000D03*
X107000000Y-140620000D03*
X107000000Y-143160000D03*
%TD*%
D12*
%TO.C,SW3*%
X106000000Y-87080000D03*
X106000000Y-82000000D03*
X106000000Y-76920000D03*
%TD*%
D16*
%TO.C,MH2*%
X160000000Y-74000000D03*
%TD*%
D17*
%TO.C,U5*%
X137500000Y-99700000D03*
X135500000Y-99700000D03*
X133500000Y-99700000D03*
X131500000Y-99700000D03*
X132500000Y-112300000D03*
X134500000Y-112300000D03*
X136500000Y-112300000D03*
X138500000Y-112300000D03*
%TD*%
D12*
%TO.C,SW2*%
X154920000Y-50000000D03*
X160000000Y-50000000D03*
X165080000Y-50000000D03*
%TD*%
D18*
%TO.C,J1*%
X121890000Y-147600000D03*
X116110000Y-147600000D03*
D19*
X123320000Y-148130000D03*
D20*
X123320000Y-143950000D03*
D19*
X114680000Y-148130000D03*
D20*
X114680000Y-143950000D03*
%TD*%
D16*
%TO.C,MH1*%
X114000000Y-72000000D03*
%TD*%
D12*
%TO.C,SW1*%
X103920000Y-48000000D03*
X109000000Y-48000000D03*
X114080000Y-48000000D03*
%TD*%
D16*
%TO.C,MH3*%
X155000000Y-130000000D03*
%TD*%
D12*
%TO.C,SW4*%
X107200000Y-102080000D03*
X107200000Y-97000000D03*
X107200000Y-91920000D03*
%TD*%
M02*
