%TF.GenerationSoftware,KiCad,Pcbnew,10.0.5*%
%TF.CreationDate,2026-08-18T15:51:41+05:30*%
%TF.ProjectId,hakai_mouse_v6,68616b61-695f-46d6-9f75-73655f76362e,5.3*%
%TF.SameCoordinates,Original*%
%TF.FileFunction,Soldermask,Top*%
%TF.FilePolarity,Negative*%
%FSLAX46Y46*%
G04 Gerber Fmt 4.6, Leading zero omitted, Abs format (unit mm)*
G04 Created by KiCad (PCBNEW 10.0.5) date 2026-08-18 15:51:41*
%MOMM*%
%LPD*%
G01*
G04 APERTURE LIST*
G04 Aperture macros list*
%AMRoundRect*
0 Rectangle with rounded corners*
0 $1 Rounding radius*
0 $2 $3 $4 $5 $6 $7 $8 $9 X,Y pos of 4 corners*
0 Add a 4 corners polygon primitive as box body*
4,1,4,$2,$3,$4,$5,$6,$7,$8,$9,$2,$3,0*
0 Add four circle primitives for the rounded corners*
1,1,$1+$1,$2,$3*
1,1,$1+$1,$4,$5*
1,1,$1+$1,$6,$7*
1,1,$1+$1,$8,$9*
0 Add four rect primitives between the rounded corners*
20,1,$1+$1,$2,$3,$4,$5,0*
20,1,$1+$1,$4,$5,$6,$7,0*
20,1,$1+$1,$6,$7,$8,$9,0*
20,1,$1+$1,$8,$9,$2,$3,0*%
G04 Aperture macros list end*
%ADD10RoundRect,0.140000X0.170000X-0.140000X0.170000X0.140000X-0.170000X0.140000X-0.170000X-0.140000X0*%
%ADD11RoundRect,0.135000X0.185000X-0.135000X0.185000X0.135000X-0.185000X0.135000X-0.185000X-0.135000X0*%
%ADD12RoundRect,0.225000X0.250000X-0.225000X0.250000X0.225000X-0.250000X0.225000X-0.250000X-0.225000X0*%
%ADD13RoundRect,0.250000X-0.350000X-0.625000X0.350000X-0.625000X0.350000X0.625000X-0.350000X0.625000X0*%
%ADD14O,1.200000X1.750000*%
%ADD15R,1.000000X1.000000*%
%ADD16RoundRect,0.147500X0.172500X-0.147500X0.172500X0.147500X-0.172500X0.147500X-0.172500X-0.147500X0*%
%ADD17RoundRect,0.140000X-0.140000X-0.170000X0.140000X-0.170000X0.140000X0.170000X-0.140000X0.170000X0*%
%ADD18R,1.000000X1.800000*%
%ADD19C,2.100000*%
%ADD20C,1.700000*%
%ADD21C,2.300000*%
%ADD22R,1.700000X1.700000*%
%ADD23C,0.250000*%
%ADD24R,4.850000X4.850000*%
%ADD25RoundRect,0.225000X-0.225000X-0.250000X0.225000X-0.250000X0.225000X0.250000X-0.225000X0.250000X0*%
%ADD26C,3.200000*%
%ADD27RoundRect,0.150000X-0.587500X-0.150000X0.587500X-0.150000X0.587500X0.150000X-0.587500X0.150000X0*%
%ADD28RoundRect,0.135000X-0.135000X-0.185000X0.135000X-0.185000X0.135000X0.185000X-0.135000X0.185000X0*%
%ADD29RoundRect,0.120000X0.580000X-0.280000X0.580000X0.280000X-0.580000X0.280000X-0.580000X-0.280000X0*%
%ADD30C,1.500000*%
%ADD31RoundRect,0.250000X0.700000X-0.275000X0.700000X0.275000X-0.700000X0.275000X-0.700000X-0.275000X0*%
%ADD32C,0.650000*%
%ADD33RoundRect,0.150000X0.150000X0.575000X-0.150000X0.575000X-0.150000X-0.575000X0.150000X-0.575000X0*%
%ADD34RoundRect,0.075000X0.075000X0.650000X-0.075000X0.650000X-0.075000X-0.650000X0.075000X-0.650000X0*%
%ADD35O,1.000000X2.100000*%
%ADD36O,1.000000X1.600000*%
%ADD37RoundRect,0.112500X-0.187500X-0.112500X0.187500X-0.112500X0.187500X0.112500X-0.187500X0.112500X0*%
%ADD38RoundRect,0.250000X-0.375000X-0.625000X0.375000X-0.625000X0.375000X0.625000X-0.375000X0.625000X0*%
%ADD39RoundRect,0.150000X-0.512500X-0.150000X0.512500X-0.150000X0.512500X0.150000X-0.512500X0.150000X0*%
%ADD40RoundRect,0.062500X-0.350000X-0.062500X0.350000X-0.062500X0.350000X0.062500X-0.350000X0.062500X0*%
%ADD41RoundRect,0.062500X-0.062500X-0.350000X0.062500X-0.350000X0.062500X0.350000X-0.062500X0.350000X0*%
%ADD42R,1.680000X1.680000*%
%ADD43RoundRect,0.200000X-0.250000X-0.200000X0.250000X-0.200000X0.250000X0.200000X-0.250000X0.200000X0*%
%ADD44RoundRect,0.218750X0.256250X-0.218750X0.256250X0.218750X-0.256250X0.218750X-0.256250X-0.218750X0*%
%ADD45RoundRect,0.250000X-0.250000X-0.475000X0.250000X-0.475000X0.250000X0.475000X-0.250000X0.475000X0*%
G04 APERTURE END LIST*
D10*
%TO.C,C4*%
X118000000Y-133480000D03*
X118000000Y-132520000D03*
%TD*%
D11*
%TO.C,R15*%
X103500000Y-58510000D03*
X103500000Y-57490000D03*
%TD*%
D12*
%TO.C,C8*%
X119500000Y-120775000D03*
X119500000Y-119225000D03*
%TD*%
D10*
%TO.C,C30*%
X115500000Y-88480000D03*
X115500000Y-87520000D03*
%TD*%
%TO.C,C22*%
X163500000Y-103480000D03*
X163500000Y-102520000D03*
%TD*%
D13*
%TO.C,J2*%
X133000000Y-125000000D03*
D14*
X135000000Y-125000000D03*
%TD*%
D15*
%TO.C,TP3*%
X156000000Y-43500000D03*
%TD*%
D11*
%TO.C,R11*%
X109800000Y-133510000D03*
X109800000Y-132490000D03*
%TD*%
D16*
%TO.C,L3*%
X163500000Y-107485000D03*
X163500000Y-106515000D03*
%TD*%
D12*
%TO.C,C26*%
X127500000Y-103775000D03*
X127500000Y-102225000D03*
%TD*%
D10*
%TO.C,C1*%
X106000000Y-126980000D03*
X106000000Y-126020000D03*
%TD*%
D11*
%TO.C,R2*%
X132000000Y-140510000D03*
X132000000Y-139490000D03*
%TD*%
D15*
%TO.C,TP5*%
X162000000Y-43500000D03*
%TD*%
D17*
%TO.C,C15*%
X156520000Y-98000000D03*
X157480000Y-98000000D03*
%TD*%
D11*
%TO.C,R24*%
X114000000Y-113510000D03*
X114000000Y-112490000D03*
%TD*%
%TO.C,R25*%
X127500000Y-137310000D03*
X127500000Y-136290000D03*
%TD*%
D10*
%TO.C,C19*%
X152500000Y-119480000D03*
X152500000Y-118520000D03*
%TD*%
%TO.C,C7*%
X116000000Y-120480000D03*
X116000000Y-119520000D03*
%TD*%
D17*
%TO.C,C14*%
X153020000Y-98000000D03*
X153980000Y-98000000D03*
%TD*%
D16*
%TO.C,L2*%
X148000000Y-116485000D03*
X148000000Y-115515000D03*
%TD*%
D15*
%TO.C,TP6*%
X165000000Y-43500000D03*
%TD*%
D11*
%TO.C,R21*%
X150000000Y-84510000D03*
X150000000Y-83490000D03*
%TD*%
D12*
%TO.C,C6*%
X124000000Y-136775000D03*
X124000000Y-135225000D03*
%TD*%
D10*
%TO.C,C34*%
X127500000Y-112480000D03*
X127500000Y-111520000D03*
%TD*%
D11*
%TO.C,R9*%
X129000000Y-133510000D03*
X129000000Y-132490000D03*
%TD*%
D10*
%TO.C,C29*%
X153000000Y-70480000D03*
X153000000Y-69520000D03*
%TD*%
D18*
%TO.C,Y2*%
X160250000Y-113000000D03*
X157750000Y-113000000D03*
%TD*%
D11*
%TO.C,R4*%
X120500000Y-127010000D03*
X120500000Y-125990000D03*
%TD*%
%TO.C,R8*%
X126000000Y-133510000D03*
X126000000Y-132490000D03*
%TD*%
D10*
%TO.C,C28*%
X106500000Y-58480000D03*
X106500000Y-57520000D03*
%TD*%
D11*
%TO.C,R17*%
X112500000Y-88510000D03*
X112500000Y-87490000D03*
%TD*%
D19*
%TO.C,SW5*%
X149920000Y-62000000D03*
X155000000Y-62000000D03*
X160080000Y-62000000D03*
%TD*%
D20*
%TO.C,EC1*%
X117000000Y-59000000D03*
X117000000Y-63000000D03*
X117000000Y-61000000D03*
D21*
X113500000Y-55500000D03*
X113500000Y-66500000D03*
%TD*%
D22*
%TO.C,J3*%
X107000000Y-133000000D03*
D20*
X107000000Y-135540000D03*
X107000000Y-138080000D03*
X107000000Y-140620000D03*
X107000000Y-143160000D03*
%TD*%
D16*
%TO.C,L4*%
X163500000Y-115485000D03*
X163500000Y-114515000D03*
%TD*%
D19*
%TO.C,SW3*%
X106000000Y-87080000D03*
X106000000Y-82000000D03*
X106000000Y-76920000D03*
%TD*%
D17*
%TO.C,C16*%
X160020000Y-98000000D03*
X160980000Y-98000000D03*
%TD*%
D23*
%TO.C,U4*%
X155750000Y-101750000D03*
X156250000Y-101750000D03*
X156750000Y-101750000D03*
X157250000Y-101750000D03*
X157750000Y-101750000D03*
X158250000Y-101750000D03*
X158750000Y-101750000D03*
X159250000Y-101750000D03*
X159750000Y-101750000D03*
X160250000Y-107250000D03*
X154250000Y-107500000D03*
X155000000Y-107750000D03*
X156000000Y-107750000D03*
X156500000Y-107750000D03*
X157000000Y-107750000D03*
X157500000Y-107750000D03*
X158000000Y-107750000D03*
X158500000Y-107750000D03*
X159000000Y-107750000D03*
X160250000Y-107750000D03*
X154250000Y-108250000D03*
X154750000Y-108250000D03*
X155250000Y-108250000D03*
X155750000Y-108250000D03*
X156250000Y-108250000D03*
X156750000Y-108250000D03*
X157250000Y-108250000D03*
X157750000Y-108250000D03*
X158250000Y-108250000D03*
X158750000Y-108250000D03*
X159250000Y-108250000D03*
X159750000Y-108250000D03*
X153750000Y-102250000D03*
X154500000Y-102250000D03*
X155000000Y-102250000D03*
X155500000Y-102250000D03*
X156000000Y-102250000D03*
X156500000Y-102250000D03*
X157000000Y-102250000D03*
X157500000Y-102250000D03*
X158000000Y-102250000D03*
X158500000Y-102250000D03*
X160250000Y-102250000D03*
X153750000Y-102750000D03*
X154250000Y-103000000D03*
X159750000Y-103000000D03*
X160250000Y-103250000D03*
D24*
X157000000Y-105000000D03*
D23*
X154250000Y-103500000D03*
X159750000Y-103500000D03*
X153750000Y-103750000D03*
X154250000Y-104000000D03*
X159750000Y-104000000D03*
X153750000Y-104250000D03*
X160250000Y-104250000D03*
X154250000Y-104500000D03*
X153750000Y-104750000D03*
X160250000Y-104750000D03*
X154250000Y-105000000D03*
X153750000Y-105250000D03*
X160250000Y-105250000D03*
X154250000Y-105500000D03*
X159750000Y-105500000D03*
X153750000Y-105750000D03*
X160250000Y-105750000D03*
X154250000Y-106000000D03*
X159750000Y-106000000D03*
X153750000Y-106250000D03*
X160250000Y-106250000D03*
X159750000Y-106500000D03*
X153750000Y-106750000D03*
X160250000Y-106750000D03*
X154250000Y-107000000D03*
X159750000Y-107000000D03*
%TD*%
D25*
%TO.C,C13*%
X149225000Y-98000000D03*
X150775000Y-98000000D03*
%TD*%
D26*
%TO.C,MH2*%
X160000000Y-74000000D03*
%TD*%
D10*
%TO.C,C12*%
X148000000Y-110480000D03*
X148000000Y-109520000D03*
%TD*%
%TO.C,C18*%
X149000000Y-119480000D03*
X149000000Y-118520000D03*
%TD*%
D15*
%TO.C,TP1*%
X150000000Y-43500000D03*
%TD*%
D11*
%TO.C,R19*%
X120000000Y-84510000D03*
X120000000Y-83490000D03*
%TD*%
D27*
%TO.C,Q3*%
X130062500Y-135850000D03*
X130062500Y-137750000D03*
X131937500Y-136800000D03*
%TD*%
D10*
%TO.C,C33*%
X157000000Y-84480000D03*
X157000000Y-83520000D03*
%TD*%
D11*
%TO.C,R20*%
X120000000Y-89010000D03*
X120000000Y-87990000D03*
%TD*%
D28*
%TO.C,R23*%
X143990000Y-115500000D03*
X145010000Y-115500000D03*
%TD*%
D29*
%TO.C,D2*%
X141250000Y-107420000D03*
X141250000Y-104580000D03*
%TD*%
D30*
%TO.C,U5*%
X137500000Y-99700000D03*
X135500000Y-99700000D03*
X133500000Y-99700000D03*
X131500000Y-99700000D03*
X132500000Y-112300000D03*
X134500000Y-112300000D03*
X136500000Y-112300000D03*
X138500000Y-112300000D03*
%TD*%
D10*
%TO.C,C5*%
X121000000Y-133480000D03*
X121000000Y-132520000D03*
%TD*%
%TO.C,C31*%
X115500000Y-103480000D03*
X115500000Y-102520000D03*
%TD*%
D11*
%TO.C,R1*%
X129000000Y-140510000D03*
X129000000Y-139490000D03*
%TD*%
D12*
%TO.C,C2*%
X109500000Y-127275000D03*
X109500000Y-125725000D03*
%TD*%
D10*
%TO.C,C25*%
X127500000Y-100480000D03*
X127500000Y-99520000D03*
%TD*%
D12*
%TO.C,C11*%
X148000000Y-107775000D03*
X148000000Y-106225000D03*
%TD*%
D31*
%TO.C,FB1*%
X110500000Y-147575000D03*
X110500000Y-144425000D03*
%TD*%
D11*
%TO.C,R5*%
X124000000Y-127010000D03*
X124000000Y-125990000D03*
%TD*%
D19*
%TO.C,SW2*%
X154920000Y-50000000D03*
X160000000Y-50000000D03*
X165080000Y-50000000D03*
%TD*%
D27*
%TO.C,Q1*%
X139562500Y-129050000D03*
X139562500Y-130950000D03*
X141437500Y-130000000D03*
%TD*%
D11*
%TO.C,R14*%
X124000000Y-116510000D03*
X124000000Y-115490000D03*
%TD*%
D10*
%TO.C,C21*%
X160500000Y-119480000D03*
X160500000Y-118520000D03*
%TD*%
D11*
%TO.C,R18*%
X112500000Y-103510000D03*
X112500000Y-102490000D03*
%TD*%
D10*
%TO.C,C9*%
X148000000Y-101480000D03*
X148000000Y-100520000D03*
%TD*%
D32*
%TO.C,J1*%
X121890000Y-147600000D03*
X116110000Y-147600000D03*
D33*
X122250000Y-149045000D03*
X121450000Y-149045000D03*
D34*
X120250000Y-149045000D03*
X119250000Y-149045000D03*
X118750000Y-149045000D03*
X117750000Y-149045000D03*
D33*
X116550000Y-149045000D03*
X115750000Y-149045000D03*
X115750000Y-149045000D03*
X116550000Y-149045000D03*
D34*
X117250000Y-149045000D03*
X118250000Y-149045000D03*
X119750000Y-149045000D03*
X120750000Y-149045000D03*
D33*
X121450000Y-149045000D03*
X122250000Y-149045000D03*
D35*
X123320000Y-148130000D03*
D36*
X123320000Y-143950000D03*
D35*
X114680000Y-148130000D03*
D36*
X114680000Y-143950000D03*
%TD*%
D37*
%TO.C,D1*%
X127950000Y-146000000D03*
X130050000Y-146000000D03*
%TD*%
D26*
%TO.C,MH1*%
X114000000Y-72000000D03*
%TD*%
D19*
%TO.C,SW1*%
X103920000Y-48000000D03*
X109000000Y-48000000D03*
X114080000Y-48000000D03*
%TD*%
D38*
%TO.C,F1*%
X105100000Y-122000000D03*
X107900000Y-122000000D03*
%TD*%
D39*
%TO.C,U3*%
X112862500Y-132050000D03*
X112862500Y-133000000D03*
X112862500Y-133950000D03*
X115137500Y-133950000D03*
X115137500Y-132050000D03*
%TD*%
D26*
%TO.C,MH3*%
X155000000Y-130000000D03*
%TD*%
D15*
%TO.C,TP2*%
X153000000Y-43500000D03*
%TD*%
D10*
%TO.C,C10*%
X148000000Y-104480000D03*
X148000000Y-103520000D03*
%TD*%
D11*
%TO.C,R12*%
X116500000Y-108510000D03*
X116500000Y-107490000D03*
%TD*%
D28*
%TO.C,R22*%
X137990000Y-115500000D03*
X139010000Y-115500000D03*
%TD*%
D11*
%TO.C,R6*%
X118000000Y-114510000D03*
X118000000Y-113490000D03*
%TD*%
D10*
%TO.C,C23*%
X163500000Y-111480000D03*
X163500000Y-110520000D03*
%TD*%
D12*
%TO.C,C27*%
X127500000Y-109775000D03*
X127500000Y-108225000D03*
%TD*%
D40*
%TO.C,U2*%
X110537500Y-119250000D03*
X110537500Y-119750000D03*
X110537500Y-120250000D03*
X110537500Y-120750000D03*
D41*
X111250000Y-121462500D03*
X111750000Y-121462500D03*
X112250000Y-121462500D03*
X112750000Y-121462500D03*
D40*
X113462500Y-120750000D03*
X113462500Y-120250000D03*
X113462500Y-119750000D03*
X113462500Y-119250000D03*
D41*
X112750000Y-118537500D03*
X112250000Y-118537500D03*
X111750000Y-118537500D03*
X111250000Y-118537500D03*
D42*
X112000000Y-120000000D03*
%TD*%
D43*
%TO.C,Y1*%
X150300000Y-113550000D03*
X151700000Y-113550000D03*
X151700000Y-112450000D03*
X150300000Y-112450000D03*
%TD*%
D44*
%TO.C,D3*%
X119500000Y-108787500D03*
X119500000Y-107212500D03*
%TD*%
D11*
%TO.C,R3*%
X117000000Y-127010000D03*
X117000000Y-125990000D03*
%TD*%
D45*
%TO.C,C35*%
X140550000Y-115500000D03*
X142450000Y-115500000D03*
%TD*%
D25*
%TO.C,C36*%
X107225000Y-117000000D03*
X108775000Y-117000000D03*
%TD*%
D11*
%TO.C,R10*%
X132000000Y-133510000D03*
X132000000Y-132490000D03*
%TD*%
D10*
%TO.C,C24*%
X163500000Y-119480000D03*
X163500000Y-118520000D03*
%TD*%
D44*
%TO.C,L1*%
X148000000Y-113787500D03*
X148000000Y-112212500D03*
%TD*%
D11*
%TO.C,R13*%
X127500000Y-116510000D03*
X127500000Y-115490000D03*
%TD*%
%TO.C,R7*%
X121500000Y-114510000D03*
X121500000Y-113490000D03*
%TD*%
D19*
%TO.C,SW4*%
X107200000Y-102080000D03*
X107200000Y-97000000D03*
X107200000Y-91920000D03*
%TD*%
D10*
%TO.C,C32*%
X153500000Y-84480000D03*
X153500000Y-83520000D03*
%TD*%
D12*
%TO.C,C3*%
X113000000Y-127275000D03*
X113000000Y-125725000D03*
%TD*%
D11*
%TO.C,R16*%
X150000000Y-70510000D03*
X150000000Y-69490000D03*
%TD*%
D10*
%TO.C,C20*%
X157000000Y-119480000D03*
X157000000Y-118520000D03*
%TD*%
D17*
%TO.C,C17*%
X163520000Y-98000000D03*
X164480000Y-98000000D03*
%TD*%
D15*
%TO.C,TP4*%
X159000000Y-43500000D03*
%TD*%
D27*
%TO.C,Q2*%
X123062500Y-111050000D03*
X123062500Y-112950000D03*
X124937500Y-112000000D03*
%TD*%
M02*
