M48
; DRILL file KiCad 10.0.5 date 2026-08-18T15:51:42
; FORMAT={-:-/ absolute / metric / decimal}
; #@! TF.CreationDate,2026-08-18T15:51:42+05:30
; #@! TF.GenerationSoftware,Kicad,Pcbnew,10.0.5
; #@! TF.FileFunction,MixedPlating,1,2
FMAT,2
METRIC
; #@! TA.AperFunction,Plated,PTH,ViaDrill
T1C0.200
; #@! TA.AperFunction,Plated,PTH,ComponentDrill
T2C0.200
; #@! TA.AperFunction,Plated,PTH,ComponentDrill
T3C0.300
; #@! TA.AperFunction,Plated,PTH,ComponentDrill
T4C0.600
; #@! TA.AperFunction,Plated,PTH,ComponentDrill
T5C0.750
; #@! TA.AperFunction,Plated,PTH,ComponentDrill
T6C0.800
; #@! TA.AperFunction,Plated,PTH,ComponentDrill
T7C1.000
; #@! TA.AperFunction,Plated,PTH,ComponentDrill
T8C1.200
; #@! TA.AperFunction,Plated,PTH,ComponentDrill
T9C1.400
; #@! TA.AperFunction,NonPlated,NPTH,ComponentDrill
T10C0.650
; #@! TA.AperFunction,NonPlated,NPTH,ComponentDrill
T11C3.200
%
G90
G05
T1
X101.0Y-45.5
X101.0Y-49.0
X101.0Y-52.5
X101.0Y-56.0
X101.0Y-59.5
X101.0Y-63.0
X101.0Y-66.5
X101.0Y-70.0
X101.0Y-73.5
X101.0Y-77.0
X101.0Y-80.5
X101.0Y-84.0
X104.5Y-45.5
X104.5Y-52.5
X104.5Y-56.0
X104.5Y-59.5
X104.5Y-63.0
X104.5Y-66.5
X104.5Y-70.0
X104.5Y-73.5
X104.5Y-77.0
X104.5Y-80.5
X104.5Y-84.0
X104.5Y-98.0
X104.5Y-101.5
X104.5Y-105.0
X104.5Y-108.5
X104.5Y-112.0
X104.5Y-115.5
X104.5Y-119.0
X104.5Y-126.0
X104.5Y-129.5
X104.5Y-133.0
X104.5Y-136.5
X104.5Y-140.0
X108.0Y-42.0
X108.0Y-45.5
X108.0Y-52.5
X108.0Y-56.0
X108.0Y-59.5
X108.0Y-63.0
X108.0Y-66.5
X108.0Y-70.0
X108.0Y-73.5
X108.0Y-77.0
X108.0Y-80.5
X108.0Y-87.5
X108.0Y-94.5
X108.0Y-105.0
X108.0Y-108.5
X108.0Y-112.0
X108.0Y-119.0
X108.0Y-126.0
X108.0Y-129.5
X109.85Y-132.45
X110.002Y-117.268
X110.221Y-126.55
X110.404Y-118.054
X111.5Y-42.0
X111.5Y-45.5
X111.5Y-49.0
X111.5Y-52.5
X111.5Y-56.0
X111.5Y-59.5
X111.5Y-63.0
X111.5Y-66.5
X111.5Y-70.0
X111.5Y-73.5
X111.5Y-77.0
X111.5Y-80.5
X111.5Y-84.0
X111.5Y-91.0
X111.5Y-94.5
X111.5Y-98.0
X111.5Y-105.0
X111.5Y-108.5
X111.5Y-115.5
X111.5Y-129.5
X111.5Y-136.5
X111.5Y-140.0
X111.765Y-119.765
X111.966Y-117.647
X112.91Y-124.648
X113.275Y-118.404
X113.751Y-121.994
X114.206Y-126.88
X115.0Y-42.0
X115.0Y-45.5
X115.0Y-52.5
X115.0Y-59.5
X115.0Y-63.0
X115.0Y-77.0
X115.0Y-80.5
X115.0Y-84.0
X115.0Y-91.0
X115.0Y-94.5
X115.0Y-98.0
X115.0Y-101.5
X115.0Y-105.0
X115.0Y-115.5
X115.0Y-136.5
X115.0Y-140.0
X115.187Y-130.804
X116.855Y-109.199
X116.879Y-120.697
X117.043Y-147.617
X117.7Y-119.931
X118.05Y-113.85
X118.5Y-42.0
X118.5Y-45.5
X118.5Y-49.0
X118.5Y-52.5
X118.5Y-56.0
X118.5Y-59.5
X118.5Y-63.0
X118.5Y-66.5
X118.5Y-70.0
X118.5Y-73.5
X118.5Y-77.0
X118.5Y-80.5
X118.5Y-84.0
X118.5Y-87.5
X118.5Y-91.0
X118.5Y-94.5
X118.5Y-105.0
X118.5Y-108.5
X118.5Y-112.0
X118.5Y-126.0
X118.5Y-136.5
X118.5Y-140.0
X118.5Y-143.5
X118.537Y-119.417
X118.552Y-86.004
X119.111Y-147.283
X119.95Y-119.225
X120.85Y-98.3
X120.9Y-96.75
X120.909Y-119.738
X121.0Y-121.35
X121.081Y-83.547
X121.2Y-120.725
X121.4Y-119.325
X122.0Y-42.0
X122.0Y-45.5
X122.0Y-49.0
X122.0Y-52.5
X122.0Y-56.0
X122.0Y-59.5
X122.0Y-63.0
X122.0Y-66.5
X122.0Y-70.0
X122.0Y-73.5
X122.0Y-80.5
X122.0Y-87.5
X122.0Y-91.0
X122.0Y-94.5
X122.0Y-101.5
X122.0Y-105.0
X122.0Y-112.0
X122.0Y-115.5
X122.0Y-122.5
X122.0Y-126.0
X122.0Y-129.5
X122.0Y-133.0
X122.0Y-136.5
X122.0Y-140.0
X122.022Y-144.341
X122.915Y-113.472
X123.082Y-146.36
X123.087Y-112.258
X125.5Y-80.5
X125.5Y-84.0
X125.5Y-87.5
X125.5Y-91.0
X125.5Y-94.5
X125.5Y-101.5
X125.5Y-105.0
X125.5Y-119.0
X125.5Y-122.5
X125.5Y-126.0
X125.5Y-129.5
X125.5Y-136.5
X125.5Y-140.0
X125.5Y-143.5
X125.5Y-147.0
X127.1Y-114.0
X127.442Y-104.755
X129.0Y-80.5
X129.0Y-84.0
X129.0Y-87.5
X129.0Y-91.0
X129.0Y-94.5
X129.0Y-98.0
X129.0Y-119.0
X129.0Y-122.5
X129.0Y-129.5
X129.0Y-136.5
X129.0Y-143.5
X129.0Y-147.0
X129.203Y-134.911
X132.5Y-80.5
X132.5Y-84.0
X132.5Y-87.5
X132.5Y-91.0
X132.5Y-94.5
X132.5Y-98.0
X132.5Y-119.0
X132.5Y-122.5
X132.5Y-129.5
X132.5Y-143.5
X132.5Y-147.0
X133.5Y-134.911
X133.5Y-139.0
X133.62Y-113.377
X133.957Y-119.62
X136.0Y-80.5
X136.0Y-84.0
X136.0Y-87.5
X136.0Y-91.0
X136.0Y-94.5
X136.0Y-119.0
X136.0Y-133.0
X136.098Y-97.234
X136.1Y-114.0
X137.5Y-114.0
X139.5Y-80.5
X139.5Y-84.0
X139.5Y-91.0
X139.5Y-94.5
X139.5Y-122.5
X140.485Y-86.134
X140.75Y-110.65
X141.2Y-114.15
X141.5Y-99.15
X142.2Y-114.15
X143.0Y-80.5
X143.0Y-84.0
X143.0Y-91.0
X143.0Y-94.5
X143.0Y-105.0
X143.0Y-119.0
X143.0Y-122.5
X143.0Y-133.0
X143.363Y-114.658
X144.194Y-100.544
X145.25Y-122.75
X145.25Y-125.75
X145.45Y-116.25
X145.9Y-103.6
X146.1Y-110.65
X146.4Y-102.026
X146.4Y-104.126
X146.5Y-80.5
X146.5Y-84.0
X146.5Y-91.0
X146.5Y-94.5
X146.5Y-105.0
X146.5Y-129.5
X146.5Y-133.0
X146.6Y-116.1
X146.6Y-121.35
X146.669Y-101.458
X146.75Y-110.0
X146.85Y-102.5
X146.85Y-110.65
X147.1Y-119.32
X147.247Y-100.734
X147.7Y-118.52
X147.75Y-106.226
X147.8Y-123.2
X147.95Y-100.7
X147.974Y-98.83
X148.0Y-109.65
X148.07Y-103.126
X148.196Y-102.318
X149.388Y-101.431
X149.485Y-94.999
X149.5Y-127.5
X149.594Y-103.995
X149.667Y-114.971
X150.0Y-42.0
X150.0Y-49.0
X150.0Y-52.5
X150.0Y-56.0
X150.0Y-59.5
X150.0Y-133.0
X150.1Y-106.45
X150.1Y-109.1
X150.204Y-96.686
X150.52Y-105.84
X150.55Y-106.9
X150.55Y-110.18
X150.675Y-98.5
X151.243Y-86.033
X151.413Y-119.546
X151.446Y-115.937
X151.533Y-83.829
X151.55Y-108.55
X151.571Y-106.592
X151.6Y-109.58
X151.892Y-116.783
X151.898Y-94.495
X152.1Y-108.55
X152.5Y-118.52
X152.642Y-109.48
X152.87Y-84.062
X152.995Y-85.303
X153.029Y-101.719
X153.25Y-105.85
X153.327Y-103.392
X153.35Y-107.65
X153.35Y-109.0
X153.5Y-42.0
X153.5Y-45.5
X153.5Y-49.0
X153.5Y-52.5
X153.5Y-56.0
X153.5Y-59.5
X153.5Y-66.5
X153.5Y-73.5
X153.5Y-77.0
X153.5Y-80.5
X153.5Y-87.5
X153.5Y-91.0
X153.5Y-126.0
X153.5Y-133.0
X153.648Y-96.907
X153.778Y-118.469
X153.95Y-70.6
X153.95Y-78.7
X153.971Y-101.463
X154.15Y-109.45
X154.2Y-105.0
X154.57Y-100.984
X154.602Y-100.091
X155.1Y-98.55
X155.37Y-97.984
X155.4Y-100.05
X155.435Y-108.996
X155.606Y-114.662
X155.792Y-110.694
X155.92Y-116.5
X155.92Y-119.5
X156.75Y-114.25
X156.95Y-107.75
X157.0Y-42.0
X157.0Y-45.5
X157.0Y-49.0
X157.0Y-52.5
X157.0Y-56.0
X157.0Y-63.0
X157.0Y-66.5
X157.0Y-70.0
X157.0Y-73.5
X157.0Y-77.0
X157.0Y-80.5
X157.0Y-87.5
X157.0Y-91.0
X157.0Y-122.5
X157.0Y-126.0
X157.0Y-133.0
X157.475Y-108.895
X157.65Y-111.55
X157.8Y-121.8
X158.601Y-108.927
X158.757Y-96.626
X158.766Y-112.463
X158.85Y-99.8
X159.25Y-108.25
X159.45Y-111.55
X159.643Y-107.789
X159.65Y-119.8
X159.662Y-118.467
X160.4Y-84.65
X160.4Y-95.4
X160.422Y-97.195
X160.5Y-42.0
X160.5Y-52.5
X160.5Y-56.0
X160.5Y-59.5
X160.5Y-66.5
X160.5Y-70.0
X160.5Y-77.0
X160.5Y-80.5
X160.5Y-84.0
X160.5Y-122.5
X160.5Y-126.0
X160.5Y-129.5
X160.5Y-133.0
X160.61Y-102.97
X160.75Y-104.3
X160.9Y-101.5
X160.904Y-102.432
X161.5Y-78.7
X161.5Y-121.8
X161.7Y-101.45
X161.7Y-104.3
X162.173Y-112.372
X162.55Y-106.75
X162.6Y-99.9
X163.013Y-98.786
X163.1Y-101.45
X163.1Y-105.8
X163.213Y-108.674
X163.5Y-99.2
X164.0Y-42.0
X164.0Y-77.0
X164.0Y-80.5
X164.0Y-84.0
X164.0Y-87.5
X164.0Y-91.0
X164.0Y-94.5
X164.0Y-122.5
X164.0Y-126.0
X164.0Y-129.5
X164.0Y-133.0
X164.5Y-101.45
X164.511Y-105.078
X164.617Y-74.758
X167.5Y-45.5
X167.5Y-49.0
X167.5Y-52.5
X167.5Y-56.0
X167.5Y-59.5
X167.5Y-63.0
X167.5Y-66.5
X167.5Y-70.0
X167.5Y-73.5
X167.5Y-77.0
X167.5Y-80.5
X167.5Y-84.0
T2
X111.41Y-119.41
X111.41Y-120.59
X112.59Y-119.41
X112.59Y-120.59
T3
X135.9Y-140.0
T5
X133.0Y-125.0
X135.0Y-125.0
T6
X131.5Y-99.7
X132.5Y-112.3
X133.5Y-99.7
X134.5Y-112.3
X135.5Y-99.7
X136.5Y-112.3
X137.5Y-99.7
X138.5Y-112.3
T7
X107.0Y-133.0
X107.0Y-135.54
X107.0Y-138.08
X107.0Y-140.62
X107.0Y-143.16
X117.0Y-59.0
X117.0Y-61.0
X117.0Y-63.0
T8
X103.92Y-48.0
X106.0Y-76.92
X106.0Y-82.0
X106.0Y-87.08
X107.2Y-91.92
X107.2Y-97.0
X107.2Y-102.08
X109.0Y-48.0
X114.08Y-48.0
X149.92Y-62.0
X154.92Y-50.0
X155.0Y-62.0
X160.0Y-50.0
X160.08Y-62.0
X165.08Y-50.0
T9
X113.5Y-55.5
X113.5Y-66.5
T10
X116.11Y-147.6
X121.89Y-147.6
T11
X114.0Y-72.0
X155.0Y-130.0
X160.0Y-74.0
T4
X114.68Y-144.25G85X114.68Y-143.65
G05
X114.68Y-148.68G85X114.68Y-147.58
G05
X123.32Y-144.25G85X123.32Y-143.65
G05
X123.32Y-148.68G85X123.32Y-147.58
G05
M30
