%TF.GenerationSoftware,KiCad,Pcbnew,10.0.5*%
%TF.CreationDate,2026-08-13T17:58:49+05:30*%
%TF.ProjectId,hakai_mouse_v6,68616b61-695f-46d6-9f75-73655f76362e,5.3*%
%TF.SameCoordinates,Original*%
%TF.FileFunction,Drillmap*%
%TF.FilePolarity,Positive*%
%FSLAX45Y45*%
G04 Gerber Fmt 4.5, Leading zero omitted, Abs format (unit mm)*
G04 Created by KiCad (PCBNEW 10.0.5) date 2026-08-13 17:58:49*
%MOMM*%
%LPD*%
G01*
G04 APERTURE LIST*
%ADD10C,0.100000*%
%ADD11C,0.200000*%
%ADD12C,0.320000*%
G04 APERTURE END LIST*
D10*
X10000000Y-4400000D02*
X10400000Y-4000000D01*
X10000000Y-8800000D02*
X10000000Y-4400000D01*
X10400000Y-4000000D02*
X12300000Y-4000000D01*
X10400000Y-9600000D02*
X10000000Y-8800000D01*
X10400000Y-14400000D02*
X10400000Y-9600000D01*
X11000000Y-15000000D02*
X10400000Y-14400000D01*
X12300000Y-4000000D02*
X12300000Y-7800000D01*
X12300000Y-7800000D02*
X14700000Y-7800000D01*
X14700000Y-4000000D02*
X16600000Y-4000000D01*
X14700000Y-7800000D02*
X14700000Y-4000000D01*
X16000000Y-15000000D02*
X11000000Y-15000000D01*
X16600000Y-4000000D02*
X17000000Y-4400000D01*
X16600000Y-9600000D02*
X16600000Y-14400000D01*
X16600000Y-14400000D02*
X16000000Y-15000000D01*
X17000000Y-4400000D02*
X17000000Y-8800000D01*
X17000000Y-8800000D02*
X16600000Y-9600000D01*
X12794000Y-10520000D02*
X12794193Y-10516079D01*
X12794000Y-10680000D02*
X12794000Y-10520000D01*
X12794193Y-10516079D02*
X12794769Y-10512196D01*
X12794193Y-10683921D02*
X12794000Y-10680000D01*
X12794769Y-10512196D02*
X12795722Y-10508389D01*
X12794769Y-10687804D02*
X12794193Y-10683921D01*
X12795722Y-10508389D02*
X12797045Y-10504693D01*
X12795722Y-10691611D02*
X12794769Y-10687804D01*
X12797045Y-10504693D02*
X12798723Y-10501144D01*
X12797045Y-10695307D02*
X12795722Y-10691611D01*
X12798723Y-10501144D02*
X12800741Y-10497777D01*
X12798723Y-10698856D02*
X12797045Y-10695307D01*
X12800741Y-10497777D02*
X12803080Y-10494624D01*
X12800741Y-10702223D02*
X12798723Y-10698856D01*
X12803080Y-10494624D02*
X12805716Y-10491716D01*
X12803080Y-10705376D02*
X12800741Y-10702223D01*
X12805716Y-10491716D02*
X12808624Y-10489080D01*
X12805716Y-10708284D02*
X12803080Y-10705376D01*
X12808624Y-10489080D02*
X12811777Y-10486741D01*
X12808624Y-10710920D02*
X12805716Y-10708284D01*
X12811777Y-10486741D02*
X12815144Y-10484723D01*
X12811777Y-10713259D02*
X12808624Y-10710920D01*
X12815144Y-10484723D02*
X12818693Y-10483045D01*
X12815144Y-10715277D02*
X12811777Y-10713259D01*
X12818693Y-10483045D02*
X12822389Y-10481722D01*
X12818693Y-10716955D02*
X12815144Y-10715277D01*
X12822389Y-10481722D02*
X12826196Y-10480769D01*
X12822389Y-10718278D02*
X12818693Y-10716955D01*
X12826196Y-10480769D02*
X12830079Y-10480193D01*
X12826196Y-10719231D02*
X12822389Y-10718278D01*
X12830079Y-10480193D02*
X12834000Y-10480000D01*
X12830079Y-10719807D02*
X12826196Y-10719231D01*
X12834000Y-10480000D02*
X12924000Y-10480000D01*
X12834000Y-10720000D02*
X12830079Y-10719807D01*
X12924000Y-10480000D02*
X12927921Y-10479807D01*
X12924000Y-10720000D02*
X12834000Y-10720000D01*
X12927921Y-10479807D02*
X12931804Y-10479231D01*
X12927921Y-10720193D02*
X12924000Y-10720000D01*
X12931804Y-10479231D02*
X12935611Y-10478278D01*
X12931804Y-10720769D02*
X12927921Y-10720193D01*
X12935611Y-10478278D02*
X12939307Y-10476955D01*
X12935611Y-10721722D02*
X12931804Y-10720769D01*
X12939307Y-10476955D02*
X12942856Y-10475277D01*
X12939307Y-10723045D02*
X12935611Y-10721722D01*
X12942856Y-10475277D02*
X12946223Y-10473259D01*
X12942856Y-10724723D02*
X12939307Y-10723045D01*
X12946223Y-10473259D02*
X12949376Y-10470920D01*
X12946223Y-10726741D02*
X12942856Y-10724723D01*
X12949376Y-10470920D02*
X12952284Y-10468284D01*
X12949376Y-10729080D02*
X12946223Y-10726741D01*
X12952284Y-10468284D02*
X12954920Y-10465376D01*
X12952284Y-10731716D02*
X12949376Y-10729080D01*
X12954920Y-10465376D02*
X12957259Y-10462223D01*
X12954920Y-10734624D02*
X12952284Y-10731716D01*
X12957259Y-10462223D02*
X12959277Y-10458856D01*
X12957259Y-10737777D02*
X12954920Y-10734624D01*
X12959277Y-10458856D02*
X12960955Y-10455307D01*
X12959277Y-10741144D02*
X12957259Y-10737777D01*
X12960955Y-10455307D02*
X12962278Y-10451611D01*
X12960955Y-10744693D02*
X12959277Y-10741144D01*
X12962278Y-10451611D02*
X12963231Y-10447804D01*
X12962278Y-10748389D02*
X12960955Y-10744693D01*
X12963231Y-10447804D02*
X12963807Y-10443921D01*
X12963231Y-10752196D02*
X12962278Y-10748389D01*
X12963807Y-10443921D02*
X12964000Y-10440000D01*
X12963807Y-10756079D02*
X12963231Y-10752196D01*
X12964000Y-10148000D02*
X12964193Y-10144079D01*
X12964000Y-11053000D02*
X12964000Y-10760000D01*
X12964000Y-10440000D02*
X12964000Y-10148000D01*
X12964000Y-10760000D02*
X12963807Y-10756079D01*
X12964193Y-10144079D02*
X12964769Y-10140196D01*
X12964193Y-11056921D02*
X12964000Y-11053000D01*
X12964769Y-10140196D02*
X12965722Y-10136389D01*
X12964769Y-11060804D02*
X12964193Y-11056921D01*
X12965722Y-10136389D02*
X12967045Y-10132693D01*
X12965722Y-11064611D02*
X12964769Y-11060804D01*
X12967045Y-10132693D02*
X12968723Y-10129144D01*
X12967045Y-11068307D02*
X12965722Y-11064611D01*
X12968723Y-10129144D02*
X12970741Y-10125777D01*
X12968723Y-11071856D02*
X12967045Y-11068307D01*
X12970741Y-10125777D02*
X12973080Y-10122624D01*
X12970741Y-11075223D02*
X12968723Y-11071856D01*
X12973080Y-10122624D02*
X12975716Y-10119716D01*
X12973080Y-11078376D02*
X12970741Y-11075223D01*
X12975716Y-10119716D02*
X12978624Y-10117080D01*
X12975716Y-11081284D02*
X12973080Y-11078376D01*
X12978624Y-10117080D02*
X12981777Y-10114741D01*
X12978624Y-11083920D02*
X12975716Y-11081284D01*
X12981777Y-10114741D02*
X12985144Y-10112723D01*
X12981777Y-11086259D02*
X12978624Y-11083920D01*
X12985144Y-10112723D02*
X12988693Y-10111045D01*
X12985144Y-11088277D02*
X12981777Y-11086259D01*
X12988693Y-10111045D02*
X12992389Y-10109722D01*
X12988693Y-11089955D02*
X12985144Y-11088277D01*
X12992389Y-10109722D02*
X12996196Y-10108769D01*
X12992389Y-11091278D02*
X12988693Y-11089955D01*
X12996196Y-10108769D02*
X13000079Y-10108193D01*
X12996196Y-11092231D02*
X12992389Y-11091278D01*
X13000079Y-10108193D02*
X13004000Y-10108000D01*
X13000079Y-11092807D02*
X12996196Y-11092231D01*
X13004000Y-10108000D02*
X13874000Y-10108000D01*
X13004000Y-11093000D02*
X13000079Y-11092807D01*
X13874000Y-10108000D02*
X13877921Y-10108193D01*
X13874000Y-11093000D02*
X13004000Y-11093000D01*
X13877921Y-10108193D02*
X13881804Y-10108769D01*
X13877921Y-11092807D02*
X13874000Y-11093000D01*
X13881804Y-10108769D02*
X13885611Y-10109722D01*
X13881804Y-11092231D02*
X13877921Y-11092807D01*
X13885611Y-10109722D02*
X13889307Y-10111045D01*
X13885611Y-11091278D02*
X13881804Y-11092231D01*
X13889307Y-10111045D02*
X13892856Y-10112723D01*
X13889307Y-11089955D02*
X13885611Y-11091278D01*
X13892856Y-10112723D02*
X13896223Y-10114741D01*
X13892856Y-11088277D02*
X13889307Y-11089955D01*
X13896223Y-10114741D02*
X13899376Y-10117080D01*
X13896223Y-11086259D02*
X13892856Y-11088277D01*
X13899376Y-10117080D02*
X13902284Y-10119716D01*
X13899376Y-11083920D02*
X13896223Y-11086259D01*
X13902284Y-10119716D02*
X13904920Y-10122624D01*
X13902284Y-11081284D02*
X13899376Y-11083920D01*
X13904920Y-10122624D02*
X13907259Y-10125777D01*
X13904920Y-11078376D02*
X13902284Y-11081284D01*
X13907259Y-10125777D02*
X13909277Y-10129144D01*
X13907259Y-11075223D02*
X13904920Y-11078376D01*
X13909277Y-10129144D02*
X13910955Y-10132693D01*
X13909277Y-11071856D02*
X13907259Y-11075223D01*
X13910955Y-10132693D02*
X13912278Y-10136389D01*
X13910955Y-11068307D02*
X13909277Y-11071856D01*
X13912278Y-10136389D02*
X13913231Y-10140196D01*
X13912278Y-11064611D02*
X13910955Y-11068307D01*
X13913231Y-10140196D02*
X13913807Y-10144079D01*
X13913231Y-11060804D02*
X13912278Y-11064611D01*
X13913807Y-10144079D02*
X13914000Y-10148000D01*
X13913807Y-11056921D02*
X13913231Y-11060804D01*
X13914000Y-10148000D02*
X13914000Y-11053000D01*
X13914000Y-11053000D02*
X13913807Y-11056921D01*
X14025000Y-10600000D02*
X14025433Y-10591178D01*
X14025433Y-10591178D02*
X14026729Y-10582442D01*
X14025433Y-10608822D02*
X14025000Y-10600000D01*
X14026729Y-10582442D02*
X14028875Y-10573874D01*
X14026729Y-10617558D02*
X14025433Y-10608822D01*
X14028875Y-10573874D02*
X14031851Y-10565558D01*
X14028875Y-10626126D02*
X14026729Y-10617558D01*
X14031851Y-10565558D02*
X14035627Y-10557574D01*
X14031851Y-10634442D02*
X14028875Y-10626126D01*
X14035627Y-10557574D02*
X14040168Y-10549999D01*
X14035627Y-10642426D02*
X14031851Y-10634442D01*
X14040168Y-10549999D02*
X14045429Y-10542905D01*
X14040168Y-10650001D02*
X14035627Y-10642426D01*
X14045429Y-10542905D02*
X14051360Y-10536360D01*
X14045429Y-10657095D02*
X14040168Y-10650001D01*
X14051360Y-10536360D02*
X14057905Y-10530429D01*
X14051360Y-10663640D02*
X14045429Y-10657095D01*
X14057905Y-10530429D02*
X14064999Y-10525168D01*
X14057905Y-10669571D02*
X14051360Y-10663640D01*
X14064999Y-10525168D02*
X14072574Y-10520627D01*
X14064999Y-10674832D02*
X14057905Y-10669571D01*
X14072574Y-10520627D02*
X14080558Y-10516851D01*
X14072574Y-10679373D02*
X14064999Y-10674832D01*
X14080558Y-10516851D02*
X14088874Y-10513875D01*
X14080558Y-10683149D02*
X14072574Y-10679373D01*
X14088874Y-10513875D02*
X14097442Y-10511729D01*
X14088874Y-10686125D02*
X14080558Y-10683149D01*
X14097442Y-10511729D02*
X14106178Y-10510433D01*
X14097442Y-10688271D02*
X14088874Y-10686125D01*
X14106178Y-10510433D02*
X14115000Y-10510000D01*
X14106178Y-10689567D02*
X14097442Y-10688271D01*
X14115000Y-10510000D02*
X14135000Y-10510000D01*
X14115000Y-10690000D02*
X14106178Y-10689567D01*
X14135000Y-10510000D02*
X14143821Y-10510433D01*
X14135000Y-10690000D02*
X14115000Y-10690000D01*
X14143821Y-10510433D02*
X14152558Y-10511729D01*
X14143821Y-10689567D02*
X14135000Y-10690000D01*
X14152558Y-10511729D02*
X14161126Y-10513875D01*
X14152558Y-10688271D02*
X14143821Y-10689567D01*
X14161126Y-10513875D02*
X14169441Y-10516851D01*
X14161126Y-10686125D02*
X14152558Y-10688271D01*
X14169441Y-10516851D02*
X14177426Y-10520627D01*
X14169441Y-10683149D02*
X14161126Y-10686125D01*
X14177426Y-10520627D02*
X14185001Y-10525168D01*
X14177426Y-10679373D02*
X14169441Y-10683149D01*
X14185001Y-10525168D02*
X14192095Y-10530429D01*
X14185001Y-10674832D02*
X14177426Y-10679373D01*
X14192095Y-10530429D02*
X14198640Y-10536360D01*
X14192095Y-10669571D02*
X14185001Y-10674832D01*
X14198640Y-10536360D02*
X14204571Y-10542905D01*
X14198640Y-10663640D02*
X14192095Y-10669571D01*
X14204571Y-10542905D02*
X14209832Y-10549999D01*
X14204571Y-10657095D02*
X14198640Y-10663640D01*
X14208000Y-10160000D02*
X14208193Y-10156079D01*
X14208000Y-10240000D02*
X14208000Y-10160000D01*
X14208000Y-10960000D02*
X14208193Y-10956079D01*
X14208000Y-11040000D02*
X14208000Y-10960000D01*
X14208193Y-10156079D02*
X14208768Y-10152196D01*
X14208193Y-10243921D02*
X14208000Y-10240000D01*
X14208193Y-10956079D02*
X14208768Y-10952196D01*
X14208193Y-11043921D02*
X14208000Y-11040000D01*
X14208768Y-10152196D02*
X14209722Y-10148389D01*
X14208768Y-10247804D02*
X14208193Y-10243921D01*
X14208768Y-10952196D02*
X14209722Y-10948389D01*
X14208768Y-11047804D02*
X14208193Y-11043921D01*
X14209722Y-10148389D02*
X14211045Y-10144693D01*
X14209722Y-10251611D02*
X14208768Y-10247804D01*
X14209722Y-10948389D02*
X14211045Y-10944693D01*
X14209722Y-11051611D02*
X14208768Y-11047804D01*
X14209832Y-10549999D02*
X14214373Y-10557574D01*
X14209832Y-10650001D02*
X14204571Y-10657095D01*
X14211045Y-10144693D02*
X14212723Y-10141144D01*
X14211045Y-10255307D02*
X14209722Y-10251611D01*
X14211045Y-10944693D02*
X14212723Y-10941144D01*
X14211045Y-11055307D02*
X14209722Y-11051611D01*
X14212723Y-10141144D02*
X14214741Y-10137777D01*
X14212723Y-10258856D02*
X14211045Y-10255307D01*
X14212723Y-10941144D02*
X14214741Y-10937777D01*
X14212723Y-11058856D02*
X14211045Y-11055307D01*
X14214373Y-10557574D02*
X14218149Y-10565558D01*
X14214373Y-10642426D02*
X14209832Y-10650001D01*
X14214741Y-10137777D02*
X14217079Y-10134624D01*
X14214741Y-10262223D02*
X14212723Y-10258856D01*
X14214741Y-10937777D02*
X14217079Y-10934624D01*
X14214741Y-11062223D02*
X14212723Y-11058856D01*
X14217079Y-10134624D02*
X14219716Y-10131716D01*
X14217079Y-10265376D02*
X14214741Y-10262223D01*
X14217079Y-10934624D02*
X14219716Y-10931716D01*
X14217079Y-11065376D02*
X14214741Y-11062223D01*
X14218149Y-10565558D02*
X14221125Y-10573874D01*
X14218149Y-10634442D02*
X14214373Y-10642426D01*
X14219716Y-10131716D02*
X14222624Y-10129080D01*
X14219716Y-10268284D02*
X14217079Y-10265376D01*
X14219716Y-10931716D02*
X14222624Y-10929080D01*
X14219716Y-11068284D02*
X14217079Y-11065376D01*
X14221125Y-10573874D02*
X14223271Y-10582442D01*
X14221125Y-10626126D02*
X14218149Y-10634442D01*
X14222624Y-10129080D02*
X14225777Y-10126741D01*
X14222624Y-10270920D02*
X14219716Y-10268284D01*
X14222624Y-10929080D02*
X14225777Y-10926741D01*
X14222624Y-11070920D02*
X14219716Y-11068284D01*
X14223271Y-10582442D02*
X14224567Y-10591178D01*
X14223271Y-10617558D02*
X14221125Y-10626126D01*
X14224567Y-10591178D02*
X14225000Y-10600000D01*
X14224567Y-10608822D02*
X14223271Y-10617558D01*
X14225000Y-10600000D02*
X14224567Y-10608822D01*
X14225777Y-10126741D02*
X14229144Y-10124723D01*
X14225777Y-10273259D02*
X14222624Y-10270920D01*
X14225777Y-10926741D02*
X14229144Y-10924723D01*
X14225777Y-11073259D02*
X14222624Y-11070920D01*
X14229144Y-10124723D02*
X14232693Y-10123045D01*
X14229144Y-10275277D02*
X14225777Y-10273259D01*
X14229144Y-10924723D02*
X14232693Y-10923045D01*
X14229144Y-11075277D02*
X14225777Y-11073259D01*
X14232693Y-10123045D02*
X14236389Y-10121722D01*
X14232693Y-10276955D02*
X14229144Y-10275277D01*
X14232693Y-10923045D02*
X14236389Y-10921722D01*
X14232693Y-11076955D02*
X14229144Y-11075277D01*
X14236389Y-10121722D02*
X14240196Y-10120769D01*
X14236389Y-10278278D02*
X14232693Y-10276955D01*
X14236389Y-10921722D02*
X14240196Y-10920769D01*
X14236389Y-11078278D02*
X14232693Y-11076955D01*
X14240196Y-10120769D02*
X14244079Y-10120193D01*
X14240196Y-10279231D02*
X14236389Y-10278278D01*
X14240196Y-10920769D02*
X14244079Y-10920193D01*
X14240196Y-11079231D02*
X14236389Y-11078278D01*
X14244079Y-10120193D02*
X14248000Y-10120000D01*
X14244079Y-10279807D02*
X14240196Y-10279231D01*
X14244079Y-10920193D02*
X14248000Y-10920000D01*
X14244079Y-11079807D02*
X14240196Y-11079231D01*
X14248000Y-10120000D02*
X14368000Y-10120000D01*
X14248000Y-10280000D02*
X14244079Y-10279807D01*
X14248000Y-10920000D02*
X14368000Y-10920000D01*
X14248000Y-11080000D02*
X14244079Y-11079807D01*
X14368000Y-10120000D02*
X14371921Y-10120193D01*
X14368000Y-10280000D02*
X14248000Y-10280000D01*
X14368000Y-10920000D02*
X14371921Y-10920193D01*
X14368000Y-11080000D02*
X14248000Y-11080000D01*
X14371921Y-10120193D02*
X14375804Y-10120769D01*
X14371921Y-10279807D02*
X14368000Y-10280000D01*
X14371921Y-10920193D02*
X14375804Y-10920769D01*
X14371921Y-11079807D02*
X14368000Y-11080000D01*
X14375804Y-10120769D02*
X14379611Y-10121722D01*
X14375804Y-10279231D02*
X14371921Y-10279807D01*
X14375804Y-10920769D02*
X14379611Y-10921722D01*
X14375804Y-11079231D02*
X14371921Y-11079807D01*
X14379611Y-10121722D02*
X14383307Y-10123045D01*
X14379611Y-10278278D02*
X14375804Y-10279231D01*
X14379611Y-10921722D02*
X14383307Y-10923045D01*
X14379611Y-11078278D02*
X14375804Y-11079231D01*
X14383307Y-10123045D02*
X14386856Y-10124723D01*
X14383307Y-10276955D02*
X14379611Y-10278278D01*
X14383307Y-10923045D02*
X14386856Y-10924723D01*
X14383307Y-11076955D02*
X14379611Y-11078278D01*
X14386856Y-10124723D02*
X14390223Y-10126741D01*
X14386856Y-10275277D02*
X14383307Y-10276955D01*
X14386856Y-10924723D02*
X14390223Y-10926741D01*
X14386856Y-11075277D02*
X14383307Y-11076955D01*
X14390223Y-10126741D02*
X14393376Y-10129080D01*
X14390223Y-10273259D02*
X14386856Y-10275277D01*
X14390223Y-10926741D02*
X14393376Y-10929080D01*
X14390223Y-11073259D02*
X14386856Y-11075277D01*
X14393376Y-10129080D02*
X14396284Y-10131716D01*
X14393376Y-10270920D02*
X14390223Y-10273259D01*
X14393376Y-10929080D02*
X14396284Y-10931716D01*
X14393376Y-11070920D02*
X14390223Y-11073259D01*
X14396284Y-10131716D02*
X14398920Y-10134624D01*
X14396284Y-10268284D02*
X14393376Y-10270920D01*
X14396284Y-10931716D02*
X14398920Y-10934624D01*
X14396284Y-11068284D02*
X14393376Y-11070920D01*
X14398920Y-10134624D02*
X14401259Y-10137777D01*
X14398920Y-10265376D02*
X14396284Y-10268284D01*
X14398920Y-10934624D02*
X14401259Y-10937777D01*
X14398920Y-11065376D02*
X14396284Y-11068284D01*
X14401259Y-10137777D02*
X14403277Y-10141144D01*
X14401259Y-10262223D02*
X14398920Y-10265376D01*
X14401259Y-10937777D02*
X14403277Y-10941144D01*
X14401259Y-11062223D02*
X14398920Y-11065376D01*
X14403277Y-10141144D02*
X14404955Y-10144693D01*
X14403277Y-10258856D02*
X14401259Y-10262223D01*
X14403277Y-10941144D02*
X14404955Y-10944693D01*
X14403277Y-11058856D02*
X14401259Y-11062223D01*
X14404955Y-10144693D02*
X14406278Y-10148389D01*
X14404955Y-10255307D02*
X14403277Y-10258856D01*
X14404955Y-10944693D02*
X14406278Y-10948389D01*
X14404955Y-11055307D02*
X14403277Y-11058856D01*
X14406278Y-10148389D02*
X14407231Y-10152196D01*
X14406278Y-10251611D02*
X14404955Y-10255307D01*
X14406278Y-10948389D02*
X14407231Y-10952196D01*
X14406278Y-11051611D02*
X14404955Y-11055307D01*
X14407231Y-10152196D02*
X14407807Y-10156079D01*
X14407231Y-10247804D02*
X14406278Y-10251611D01*
X14407231Y-10952196D02*
X14407807Y-10956079D01*
X14407231Y-11047804D02*
X14406278Y-11051611D01*
X14407807Y-10156079D02*
X14408000Y-10160000D01*
X14407807Y-10243921D02*
X14407231Y-10247804D01*
X14407807Y-10956079D02*
X14408000Y-10960000D01*
X14407807Y-11043921D02*
X14407231Y-11047804D01*
X14408000Y-10160000D02*
X14408000Y-10240000D01*
X14408000Y-10240000D02*
X14407807Y-10243921D01*
X14408000Y-10960000D02*
X14408000Y-11040000D01*
X14408000Y-11040000D02*
X14407807Y-11043921D01*
D11*
D10*
X11578500Y-14727500D02*
X11643500Y-14792500D01*
X11643500Y-14727500D02*
X11578500Y-14792500D01*
X12156500Y-14727500D02*
X12221500Y-14792500D01*
X12221500Y-14727500D02*
X12156500Y-14792500D01*
D12*
X11560000Y-7200000D02*
G75*
G02*
X11240000Y-7200000I-160000J0D01*
G01*
X11240000Y-7200000D02*
G75*
G02*
X11560000Y-7200000I160000J0D01*
G01*
X15660000Y-13000000D02*
G75*
G02*
X15340000Y-13000000I-160000J0D01*
G01*
X15340000Y-13000000D02*
G75*
G02*
X15660000Y-13000000I160000J0D01*
G01*
X16160000Y-7400000D02*
G75*
G02*
X15840000Y-7400000I-160000J0D01*
G01*
X15840000Y-7400000D02*
G75*
G02*
X16160000Y-7400000I160000J0D01*
G01*
D11*
X10255777Y-15316484D02*
X10255777Y-15116484D01*
X10255777Y-15116484D02*
X10303396Y-15116484D01*
X10303396Y-15116484D02*
X10331967Y-15126008D01*
X10331967Y-15126008D02*
X10351015Y-15145055D01*
X10351015Y-15145055D02*
X10360539Y-15164103D01*
X10360539Y-15164103D02*
X10370063Y-15202198D01*
X10370063Y-15202198D02*
X10370063Y-15230769D01*
X10370063Y-15230769D02*
X10360539Y-15268865D01*
X10360539Y-15268865D02*
X10351015Y-15287912D01*
X10351015Y-15287912D02*
X10331967Y-15306960D01*
X10331967Y-15306960D02*
X10303396Y-15316484D01*
X10303396Y-15316484D02*
X10255777Y-15316484D01*
X10455777Y-15316484D02*
X10455777Y-15183150D01*
X10455777Y-15221246D02*
X10465301Y-15202198D01*
X10465301Y-15202198D02*
X10474824Y-15192674D01*
X10474824Y-15192674D02*
X10493872Y-15183150D01*
X10493872Y-15183150D02*
X10512920Y-15183150D01*
X10579586Y-15316484D02*
X10579586Y-15183150D01*
X10579586Y-15116484D02*
X10570063Y-15126008D01*
X10570063Y-15126008D02*
X10579586Y-15135531D01*
X10579586Y-15135531D02*
X10589110Y-15126008D01*
X10589110Y-15126008D02*
X10579586Y-15116484D01*
X10579586Y-15116484D02*
X10579586Y-15135531D01*
X10703396Y-15316484D02*
X10684348Y-15306960D01*
X10684348Y-15306960D02*
X10674824Y-15287912D01*
X10674824Y-15287912D02*
X10674824Y-15116484D01*
X10808158Y-15316484D02*
X10789110Y-15306960D01*
X10789110Y-15306960D02*
X10779586Y-15287912D01*
X10779586Y-15287912D02*
X10779586Y-15116484D01*
X11036729Y-15316484D02*
X11036729Y-15116484D01*
X11036729Y-15116484D02*
X11103396Y-15259341D01*
X11103396Y-15259341D02*
X11170063Y-15116484D01*
X11170063Y-15116484D02*
X11170063Y-15316484D01*
X11351015Y-15316484D02*
X11351015Y-15211722D01*
X11351015Y-15211722D02*
X11341491Y-15192674D01*
X11341491Y-15192674D02*
X11322443Y-15183150D01*
X11322443Y-15183150D02*
X11284348Y-15183150D01*
X11284348Y-15183150D02*
X11265301Y-15192674D01*
X11351015Y-15306960D02*
X11331967Y-15316484D01*
X11331967Y-15316484D02*
X11284348Y-15316484D01*
X11284348Y-15316484D02*
X11265301Y-15306960D01*
X11265301Y-15306960D02*
X11255777Y-15287912D01*
X11255777Y-15287912D02*
X11255777Y-15268865D01*
X11255777Y-15268865D02*
X11265301Y-15249817D01*
X11265301Y-15249817D02*
X11284348Y-15240293D01*
X11284348Y-15240293D02*
X11331967Y-15240293D01*
X11331967Y-15240293D02*
X11351015Y-15230769D01*
X11446253Y-15183150D02*
X11446253Y-15383150D01*
X11446253Y-15192674D02*
X11465301Y-15183150D01*
X11465301Y-15183150D02*
X11503396Y-15183150D01*
X11503396Y-15183150D02*
X11522443Y-15192674D01*
X11522443Y-15192674D02*
X11531967Y-15202198D01*
X11531967Y-15202198D02*
X11541491Y-15221246D01*
X11541491Y-15221246D02*
X11541491Y-15278388D01*
X11541491Y-15278388D02*
X11531967Y-15297436D01*
X11531967Y-15297436D02*
X11522443Y-15306960D01*
X11522443Y-15306960D02*
X11503396Y-15316484D01*
X11503396Y-15316484D02*
X11465301Y-15316484D01*
X11465301Y-15316484D02*
X11446253Y-15306960D01*
X11627205Y-15297436D02*
X11636729Y-15306960D01*
X11636729Y-15306960D02*
X11627205Y-15316484D01*
X11627205Y-15316484D02*
X11617682Y-15306960D01*
X11617682Y-15306960D02*
X11627205Y-15297436D01*
X11627205Y-15297436D02*
X11627205Y-15316484D01*
X11627205Y-15192674D02*
X11636729Y-15202198D01*
X11636729Y-15202198D02*
X11627205Y-15211722D01*
X11627205Y-15211722D02*
X11617682Y-15202198D01*
X11617682Y-15202198D02*
X11627205Y-15192674D01*
X11627205Y-15192674D02*
X11627205Y-15211722D01*
D10*
X9930000Y-15612500D02*
X9995000Y-15677500D01*
X9995000Y-15612500D02*
X9930000Y-15677500D01*
D11*
X10293872Y-15536484D02*
X10312920Y-15536484D01*
X10312920Y-15536484D02*
X10331967Y-15546008D01*
X10331967Y-15546008D02*
X10341491Y-15555531D01*
X10341491Y-15555531D02*
X10351015Y-15574579D01*
X10351015Y-15574579D02*
X10360539Y-15612674D01*
X10360539Y-15612674D02*
X10360539Y-15660293D01*
X10360539Y-15660293D02*
X10351015Y-15698388D01*
X10351015Y-15698388D02*
X10341491Y-15717436D01*
X10341491Y-15717436D02*
X10331967Y-15726960D01*
X10331967Y-15726960D02*
X10312920Y-15736484D01*
X10312920Y-15736484D02*
X10293872Y-15736484D01*
X10293872Y-15736484D02*
X10274824Y-15726960D01*
X10274824Y-15726960D02*
X10265301Y-15717436D01*
X10265301Y-15717436D02*
X10255777Y-15698388D01*
X10255777Y-15698388D02*
X10246253Y-15660293D01*
X10246253Y-15660293D02*
X10246253Y-15612674D01*
X10246253Y-15612674D02*
X10255777Y-15574579D01*
X10255777Y-15574579D02*
X10265301Y-15555531D01*
X10265301Y-15555531D02*
X10274824Y-15546008D01*
X10274824Y-15546008D02*
X10293872Y-15536484D01*
X10446253Y-15717436D02*
X10455777Y-15726960D01*
X10455777Y-15726960D02*
X10446253Y-15736484D01*
X10446253Y-15736484D02*
X10436729Y-15726960D01*
X10436729Y-15726960D02*
X10446253Y-15717436D01*
X10446253Y-15717436D02*
X10446253Y-15736484D01*
X10627205Y-15536484D02*
X10589110Y-15536484D01*
X10589110Y-15536484D02*
X10570063Y-15546008D01*
X10570063Y-15546008D02*
X10560539Y-15555531D01*
X10560539Y-15555531D02*
X10541491Y-15584103D01*
X10541491Y-15584103D02*
X10531967Y-15622198D01*
X10531967Y-15622198D02*
X10531967Y-15698388D01*
X10531967Y-15698388D02*
X10541491Y-15717436D01*
X10541491Y-15717436D02*
X10551015Y-15726960D01*
X10551015Y-15726960D02*
X10570063Y-15736484D01*
X10570063Y-15736484D02*
X10608158Y-15736484D01*
X10608158Y-15736484D02*
X10627205Y-15726960D01*
X10627205Y-15726960D02*
X10636729Y-15717436D01*
X10636729Y-15717436D02*
X10646253Y-15698388D01*
X10646253Y-15698388D02*
X10646253Y-15650769D01*
X10646253Y-15650769D02*
X10636729Y-15631722D01*
X10636729Y-15631722D02*
X10627205Y-15622198D01*
X10627205Y-15622198D02*
X10608158Y-15612674D01*
X10608158Y-15612674D02*
X10570063Y-15612674D01*
X10570063Y-15612674D02*
X10551015Y-15622198D01*
X10551015Y-15622198D02*
X10541491Y-15631722D01*
X10541491Y-15631722D02*
X10531967Y-15650769D01*
X10827205Y-15536484D02*
X10731967Y-15536484D01*
X10731967Y-15536484D02*
X10722444Y-15631722D01*
X10722444Y-15631722D02*
X10731967Y-15622198D01*
X10731967Y-15622198D02*
X10751015Y-15612674D01*
X10751015Y-15612674D02*
X10798634Y-15612674D01*
X10798634Y-15612674D02*
X10817682Y-15622198D01*
X10817682Y-15622198D02*
X10827205Y-15631722D01*
X10827205Y-15631722D02*
X10836729Y-15650769D01*
X10836729Y-15650769D02*
X10836729Y-15698388D01*
X10836729Y-15698388D02*
X10827205Y-15717436D01*
X10827205Y-15717436D02*
X10817682Y-15726960D01*
X10817682Y-15726960D02*
X10798634Y-15736484D01*
X10798634Y-15736484D02*
X10751015Y-15736484D01*
X10751015Y-15736484D02*
X10731967Y-15726960D01*
X10731967Y-15726960D02*
X10722444Y-15717436D01*
X10960539Y-15536484D02*
X10979586Y-15536484D01*
X10979586Y-15536484D02*
X10998634Y-15546008D01*
X10998634Y-15546008D02*
X11008158Y-15555531D01*
X11008158Y-15555531D02*
X11017682Y-15574579D01*
X11017682Y-15574579D02*
X11027205Y-15612674D01*
X11027205Y-15612674D02*
X11027205Y-15660293D01*
X11027205Y-15660293D02*
X11017682Y-15698388D01*
X11017682Y-15698388D02*
X11008158Y-15717436D01*
X11008158Y-15717436D02*
X10998634Y-15726960D01*
X10998634Y-15726960D02*
X10979586Y-15736484D01*
X10979586Y-15736484D02*
X10960539Y-15736484D01*
X10960539Y-15736484D02*
X10941491Y-15726960D01*
X10941491Y-15726960D02*
X10931967Y-15717436D01*
X10931967Y-15717436D02*
X10922444Y-15698388D01*
X10922444Y-15698388D02*
X10912920Y-15660293D01*
X10912920Y-15660293D02*
X10912920Y-15612674D01*
X10912920Y-15612674D02*
X10922444Y-15574579D01*
X10922444Y-15574579D02*
X10931967Y-15555531D01*
X10931967Y-15555531D02*
X10941491Y-15546008D01*
X10941491Y-15546008D02*
X10960539Y-15536484D01*
X11112920Y-15736484D02*
X11112920Y-15603150D01*
X11112920Y-15622198D02*
X11122444Y-15612674D01*
X11122444Y-15612674D02*
X11141491Y-15603150D01*
X11141491Y-15603150D02*
X11170063Y-15603150D01*
X11170063Y-15603150D02*
X11189110Y-15612674D01*
X11189110Y-15612674D02*
X11198634Y-15631722D01*
X11198634Y-15631722D02*
X11198634Y-15736484D01*
X11198634Y-15631722D02*
X11208158Y-15612674D01*
X11208158Y-15612674D02*
X11227205Y-15603150D01*
X11227205Y-15603150D02*
X11255777Y-15603150D01*
X11255777Y-15603150D02*
X11274824Y-15612674D01*
X11274824Y-15612674D02*
X11284348Y-15631722D01*
X11284348Y-15631722D02*
X11284348Y-15736484D01*
X11379586Y-15736484D02*
X11379586Y-15603150D01*
X11379586Y-15622198D02*
X11389110Y-15612674D01*
X11389110Y-15612674D02*
X11408158Y-15603150D01*
X11408158Y-15603150D02*
X11436729Y-15603150D01*
X11436729Y-15603150D02*
X11455777Y-15612674D01*
X11455777Y-15612674D02*
X11465301Y-15631722D01*
X11465301Y-15631722D02*
X11465301Y-15736484D01*
X11465301Y-15631722D02*
X11474824Y-15612674D01*
X11474824Y-15612674D02*
X11493872Y-15603150D01*
X11493872Y-15603150D02*
X11522443Y-15603150D01*
X11522443Y-15603150D02*
X11541491Y-15612674D01*
X11541491Y-15612674D02*
X11551015Y-15631722D01*
X11551015Y-15631722D02*
X11551015Y-15736484D01*
X11941491Y-15526960D02*
X11770063Y-15784103D01*
X12198634Y-15536484D02*
X12217682Y-15536484D01*
X12217682Y-15536484D02*
X12236729Y-15546008D01*
X12236729Y-15546008D02*
X12246253Y-15555531D01*
X12246253Y-15555531D02*
X12255777Y-15574579D01*
X12255777Y-15574579D02*
X12265301Y-15612674D01*
X12265301Y-15612674D02*
X12265301Y-15660293D01*
X12265301Y-15660293D02*
X12255777Y-15698388D01*
X12255777Y-15698388D02*
X12246253Y-15717436D01*
X12246253Y-15717436D02*
X12236729Y-15726960D01*
X12236729Y-15726960D02*
X12217682Y-15736484D01*
X12217682Y-15736484D02*
X12198634Y-15736484D01*
X12198634Y-15736484D02*
X12179586Y-15726960D01*
X12179586Y-15726960D02*
X12170063Y-15717436D01*
X12170063Y-15717436D02*
X12160539Y-15698388D01*
X12160539Y-15698388D02*
X12151015Y-15660293D01*
X12151015Y-15660293D02*
X12151015Y-15612674D01*
X12151015Y-15612674D02*
X12160539Y-15574579D01*
X12160539Y-15574579D02*
X12170063Y-15555531D01*
X12170063Y-15555531D02*
X12179586Y-15546008D01*
X12179586Y-15546008D02*
X12198634Y-15536484D01*
X12351015Y-15717436D02*
X12360539Y-15726960D01*
X12360539Y-15726960D02*
X12351015Y-15736484D01*
X12351015Y-15736484D02*
X12341491Y-15726960D01*
X12341491Y-15726960D02*
X12351015Y-15717436D01*
X12351015Y-15717436D02*
X12351015Y-15736484D01*
X12484348Y-15536484D02*
X12503396Y-15536484D01*
X12503396Y-15536484D02*
X12522444Y-15546008D01*
X12522444Y-15546008D02*
X12531967Y-15555531D01*
X12531967Y-15555531D02*
X12541491Y-15574579D01*
X12541491Y-15574579D02*
X12551015Y-15612674D01*
X12551015Y-15612674D02*
X12551015Y-15660293D01*
X12551015Y-15660293D02*
X12541491Y-15698388D01*
X12541491Y-15698388D02*
X12531967Y-15717436D01*
X12531967Y-15717436D02*
X12522444Y-15726960D01*
X12522444Y-15726960D02*
X12503396Y-15736484D01*
X12503396Y-15736484D02*
X12484348Y-15736484D01*
X12484348Y-15736484D02*
X12465301Y-15726960D01*
X12465301Y-15726960D02*
X12455777Y-15717436D01*
X12455777Y-15717436D02*
X12446253Y-15698388D01*
X12446253Y-15698388D02*
X12436729Y-15660293D01*
X12436729Y-15660293D02*
X12436729Y-15612674D01*
X12436729Y-15612674D02*
X12446253Y-15574579D01*
X12446253Y-15574579D02*
X12455777Y-15555531D01*
X12455777Y-15555531D02*
X12465301Y-15546008D01*
X12465301Y-15546008D02*
X12484348Y-15536484D01*
X12627206Y-15555531D02*
X12636729Y-15546008D01*
X12636729Y-15546008D02*
X12655777Y-15536484D01*
X12655777Y-15536484D02*
X12703396Y-15536484D01*
X12703396Y-15536484D02*
X12722444Y-15546008D01*
X12722444Y-15546008D02*
X12731967Y-15555531D01*
X12731967Y-15555531D02*
X12741491Y-15574579D01*
X12741491Y-15574579D02*
X12741491Y-15593627D01*
X12741491Y-15593627D02*
X12731967Y-15622198D01*
X12731967Y-15622198D02*
X12617682Y-15736484D01*
X12617682Y-15736484D02*
X12741491Y-15736484D01*
X12922444Y-15536484D02*
X12827206Y-15536484D01*
X12827206Y-15536484D02*
X12817682Y-15631722D01*
X12817682Y-15631722D02*
X12827206Y-15622198D01*
X12827206Y-15622198D02*
X12846253Y-15612674D01*
X12846253Y-15612674D02*
X12893872Y-15612674D01*
X12893872Y-15612674D02*
X12912920Y-15622198D01*
X12912920Y-15622198D02*
X12922444Y-15631722D01*
X12922444Y-15631722D02*
X12931967Y-15650769D01*
X12931967Y-15650769D02*
X12931967Y-15698388D01*
X12931967Y-15698388D02*
X12922444Y-15717436D01*
X12922444Y-15717436D02*
X12912920Y-15726960D01*
X12912920Y-15726960D02*
X12893872Y-15736484D01*
X12893872Y-15736484D02*
X12846253Y-15736484D01*
X12846253Y-15736484D02*
X12827206Y-15726960D01*
X12827206Y-15726960D02*
X12817682Y-15717436D01*
X13103396Y-15536484D02*
X13065301Y-15536484D01*
X13065301Y-15536484D02*
X13046253Y-15546008D01*
X13046253Y-15546008D02*
X13036729Y-15555531D01*
X13036729Y-15555531D02*
X13017682Y-15584103D01*
X13017682Y-15584103D02*
X13008158Y-15622198D01*
X13008158Y-15622198D02*
X13008158Y-15698388D01*
X13008158Y-15698388D02*
X13017682Y-15717436D01*
X13017682Y-15717436D02*
X13027206Y-15726960D01*
X13027206Y-15726960D02*
X13046253Y-15736484D01*
X13046253Y-15736484D02*
X13084348Y-15736484D01*
X13084348Y-15736484D02*
X13103396Y-15726960D01*
X13103396Y-15726960D02*
X13112920Y-15717436D01*
X13112920Y-15717436D02*
X13122444Y-15698388D01*
X13122444Y-15698388D02*
X13122444Y-15650769D01*
X13122444Y-15650769D02*
X13112920Y-15631722D01*
X13112920Y-15631722D02*
X13103396Y-15622198D01*
X13103396Y-15622198D02*
X13084348Y-15612674D01*
X13084348Y-15612674D02*
X13046253Y-15612674D01*
X13046253Y-15612674D02*
X13027206Y-15622198D01*
X13027206Y-15622198D02*
X13017682Y-15631722D01*
X13017682Y-15631722D02*
X13008158Y-15650769D01*
X13198634Y-15536484D02*
X13198634Y-15574579D01*
X13274825Y-15536484D02*
X13274825Y-15574579D01*
X13570063Y-15812674D02*
X13560539Y-15803150D01*
X13560539Y-15803150D02*
X13541491Y-15774579D01*
X13541491Y-15774579D02*
X13531968Y-15755531D01*
X13531968Y-15755531D02*
X13522444Y-15726960D01*
X13522444Y-15726960D02*
X13512920Y-15679341D01*
X13512920Y-15679341D02*
X13512920Y-15641246D01*
X13512920Y-15641246D02*
X13522444Y-15593627D01*
X13522444Y-15593627D02*
X13531968Y-15565055D01*
X13531968Y-15565055D02*
X13541491Y-15546008D01*
X13541491Y-15546008D02*
X13560539Y-15517436D01*
X13560539Y-15517436D02*
X13570063Y-15507912D01*
X13636729Y-15555531D02*
X13646253Y-15546008D01*
X13646253Y-15546008D02*
X13665301Y-15536484D01*
X13665301Y-15536484D02*
X13712920Y-15536484D01*
X13712920Y-15536484D02*
X13731968Y-15546008D01*
X13731968Y-15546008D02*
X13741491Y-15555531D01*
X13741491Y-15555531D02*
X13751015Y-15574579D01*
X13751015Y-15574579D02*
X13751015Y-15593627D01*
X13751015Y-15593627D02*
X13741491Y-15622198D01*
X13741491Y-15622198D02*
X13627206Y-15736484D01*
X13627206Y-15736484D02*
X13751015Y-15736484D01*
X13989110Y-15736484D02*
X13989110Y-15536484D01*
X14074825Y-15736484D02*
X14074825Y-15631722D01*
X14074825Y-15631722D02*
X14065301Y-15612674D01*
X14065301Y-15612674D02*
X14046253Y-15603150D01*
X14046253Y-15603150D02*
X14017682Y-15603150D01*
X14017682Y-15603150D02*
X13998634Y-15612674D01*
X13998634Y-15612674D02*
X13989110Y-15622198D01*
X14198634Y-15736484D02*
X14179587Y-15726960D01*
X14179587Y-15726960D02*
X14170063Y-15717436D01*
X14170063Y-15717436D02*
X14160539Y-15698388D01*
X14160539Y-15698388D02*
X14160539Y-15641246D01*
X14160539Y-15641246D02*
X14170063Y-15622198D01*
X14170063Y-15622198D02*
X14179587Y-15612674D01*
X14179587Y-15612674D02*
X14198634Y-15603150D01*
X14198634Y-15603150D02*
X14227206Y-15603150D01*
X14227206Y-15603150D02*
X14246253Y-15612674D01*
X14246253Y-15612674D02*
X14255777Y-15622198D01*
X14255777Y-15622198D02*
X14265301Y-15641246D01*
X14265301Y-15641246D02*
X14265301Y-15698388D01*
X14265301Y-15698388D02*
X14255777Y-15717436D01*
X14255777Y-15717436D02*
X14246253Y-15726960D01*
X14246253Y-15726960D02*
X14227206Y-15736484D01*
X14227206Y-15736484D02*
X14198634Y-15736484D01*
X14379587Y-15736484D02*
X14360539Y-15726960D01*
X14360539Y-15726960D02*
X14351015Y-15707912D01*
X14351015Y-15707912D02*
X14351015Y-15536484D01*
X14531968Y-15726960D02*
X14512920Y-15736484D01*
X14512920Y-15736484D02*
X14474825Y-15736484D01*
X14474825Y-15736484D02*
X14455777Y-15726960D01*
X14455777Y-15726960D02*
X14446253Y-15707912D01*
X14446253Y-15707912D02*
X14446253Y-15631722D01*
X14446253Y-15631722D02*
X14455777Y-15612674D01*
X14455777Y-15612674D02*
X14474825Y-15603150D01*
X14474825Y-15603150D02*
X14512920Y-15603150D01*
X14512920Y-15603150D02*
X14531968Y-15612674D01*
X14531968Y-15612674D02*
X14541491Y-15631722D01*
X14541491Y-15631722D02*
X14541491Y-15650769D01*
X14541491Y-15650769D02*
X14446253Y-15669817D01*
X14617682Y-15726960D02*
X14636730Y-15736484D01*
X14636730Y-15736484D02*
X14674825Y-15736484D01*
X14674825Y-15736484D02*
X14693872Y-15726960D01*
X14693872Y-15726960D02*
X14703396Y-15707912D01*
X14703396Y-15707912D02*
X14703396Y-15698388D01*
X14703396Y-15698388D02*
X14693872Y-15679341D01*
X14693872Y-15679341D02*
X14674825Y-15669817D01*
X14674825Y-15669817D02*
X14646253Y-15669817D01*
X14646253Y-15669817D02*
X14627206Y-15660293D01*
X14627206Y-15660293D02*
X14617682Y-15641246D01*
X14617682Y-15641246D02*
X14617682Y-15631722D01*
X14617682Y-15631722D02*
X14627206Y-15612674D01*
X14627206Y-15612674D02*
X14646253Y-15603150D01*
X14646253Y-15603150D02*
X14674825Y-15603150D01*
X14674825Y-15603150D02*
X14693872Y-15612674D01*
X14770063Y-15812674D02*
X14779587Y-15803150D01*
X14779587Y-15803150D02*
X14798634Y-15774579D01*
X14798634Y-15774579D02*
X14808158Y-15755531D01*
X14808158Y-15755531D02*
X14817682Y-15726960D01*
X14817682Y-15726960D02*
X14827206Y-15679341D01*
X14827206Y-15679341D02*
X14827206Y-15641246D01*
X14827206Y-15641246D02*
X14817682Y-15593627D01*
X14817682Y-15593627D02*
X14808158Y-15565055D01*
X14808158Y-15565055D02*
X14798634Y-15546008D01*
X14798634Y-15546008D02*
X14779587Y-15517436D01*
X14779587Y-15517436D02*
X14770063Y-15507912D01*
X15131968Y-15812674D02*
X15122444Y-15803150D01*
X15122444Y-15803150D02*
X15103396Y-15774579D01*
X15103396Y-15774579D02*
X15093872Y-15755531D01*
X15093872Y-15755531D02*
X15084349Y-15726960D01*
X15084349Y-15726960D02*
X15074825Y-15679341D01*
X15074825Y-15679341D02*
X15074825Y-15641246D01*
X15074825Y-15641246D02*
X15084349Y-15593627D01*
X15084349Y-15593627D02*
X15093872Y-15565055D01*
X15093872Y-15565055D02*
X15103396Y-15546008D01*
X15103396Y-15546008D02*
X15122444Y-15517436D01*
X15122444Y-15517436D02*
X15131968Y-15507912D01*
X15208158Y-15603150D02*
X15208158Y-15736484D01*
X15208158Y-15622198D02*
X15217682Y-15612674D01*
X15217682Y-15612674D02*
X15236730Y-15603150D01*
X15236730Y-15603150D02*
X15265301Y-15603150D01*
X15265301Y-15603150D02*
X15284349Y-15612674D01*
X15284349Y-15612674D02*
X15293872Y-15631722D01*
X15293872Y-15631722D02*
X15293872Y-15736484D01*
X15417682Y-15736484D02*
X15398634Y-15726960D01*
X15398634Y-15726960D02*
X15389111Y-15717436D01*
X15389111Y-15717436D02*
X15379587Y-15698388D01*
X15379587Y-15698388D02*
X15379587Y-15641246D01*
X15379587Y-15641246D02*
X15389111Y-15622198D01*
X15389111Y-15622198D02*
X15398634Y-15612674D01*
X15398634Y-15612674D02*
X15417682Y-15603150D01*
X15417682Y-15603150D02*
X15446253Y-15603150D01*
X15446253Y-15603150D02*
X15465301Y-15612674D01*
X15465301Y-15612674D02*
X15474825Y-15622198D01*
X15474825Y-15622198D02*
X15484349Y-15641246D01*
X15484349Y-15641246D02*
X15484349Y-15698388D01*
X15484349Y-15698388D02*
X15474825Y-15717436D01*
X15474825Y-15717436D02*
X15465301Y-15726960D01*
X15465301Y-15726960D02*
X15446253Y-15736484D01*
X15446253Y-15736484D02*
X15417682Y-15736484D01*
X15541492Y-15603150D02*
X15617682Y-15603150D01*
X15570063Y-15536484D02*
X15570063Y-15707912D01*
X15570063Y-15707912D02*
X15579587Y-15726960D01*
X15579587Y-15726960D02*
X15598634Y-15736484D01*
X15598634Y-15736484D02*
X15617682Y-15736484D01*
X15836730Y-15603150D02*
X15836730Y-15803150D01*
X15836730Y-15612674D02*
X15855777Y-15603150D01*
X15855777Y-15603150D02*
X15893873Y-15603150D01*
X15893873Y-15603150D02*
X15912920Y-15612674D01*
X15912920Y-15612674D02*
X15922444Y-15622198D01*
X15922444Y-15622198D02*
X15931968Y-15641246D01*
X15931968Y-15641246D02*
X15931968Y-15698388D01*
X15931968Y-15698388D02*
X15922444Y-15717436D01*
X15922444Y-15717436D02*
X15912920Y-15726960D01*
X15912920Y-15726960D02*
X15893873Y-15736484D01*
X15893873Y-15736484D02*
X15855777Y-15736484D01*
X15855777Y-15736484D02*
X15836730Y-15726960D01*
X16046253Y-15736484D02*
X16027206Y-15726960D01*
X16027206Y-15726960D02*
X16017682Y-15707912D01*
X16017682Y-15707912D02*
X16017682Y-15536484D01*
X16208158Y-15736484D02*
X16208158Y-15631722D01*
X16208158Y-15631722D02*
X16198634Y-15612674D01*
X16198634Y-15612674D02*
X16179587Y-15603150D01*
X16179587Y-15603150D02*
X16141492Y-15603150D01*
X16141492Y-15603150D02*
X16122444Y-15612674D01*
X16208158Y-15726960D02*
X16189111Y-15736484D01*
X16189111Y-15736484D02*
X16141492Y-15736484D01*
X16141492Y-15736484D02*
X16122444Y-15726960D01*
X16122444Y-15726960D02*
X16112920Y-15707912D01*
X16112920Y-15707912D02*
X16112920Y-15688865D01*
X16112920Y-15688865D02*
X16122444Y-15669817D01*
X16122444Y-15669817D02*
X16141492Y-15660293D01*
X16141492Y-15660293D02*
X16189111Y-15660293D01*
X16189111Y-15660293D02*
X16208158Y-15650769D01*
X16274825Y-15603150D02*
X16351015Y-15603150D01*
X16303396Y-15536484D02*
X16303396Y-15707912D01*
X16303396Y-15707912D02*
X16312920Y-15726960D01*
X16312920Y-15726960D02*
X16331968Y-15736484D01*
X16331968Y-15736484D02*
X16351015Y-15736484D01*
X16493873Y-15726960D02*
X16474825Y-15736484D01*
X16474825Y-15736484D02*
X16436730Y-15736484D01*
X16436730Y-15736484D02*
X16417682Y-15726960D01*
X16417682Y-15726960D02*
X16408158Y-15707912D01*
X16408158Y-15707912D02*
X16408158Y-15631722D01*
X16408158Y-15631722D02*
X16417682Y-15612674D01*
X16417682Y-15612674D02*
X16436730Y-15603150D01*
X16436730Y-15603150D02*
X16474825Y-15603150D01*
X16474825Y-15603150D02*
X16493873Y-15612674D01*
X16493873Y-15612674D02*
X16503396Y-15631722D01*
X16503396Y-15631722D02*
X16503396Y-15650769D01*
X16503396Y-15650769D02*
X16408158Y-15669817D01*
X16674825Y-15736484D02*
X16674825Y-15536484D01*
X16674825Y-15726960D02*
X16655777Y-15736484D01*
X16655777Y-15736484D02*
X16617682Y-15736484D01*
X16617682Y-15736484D02*
X16598634Y-15726960D01*
X16598634Y-15726960D02*
X16589111Y-15717436D01*
X16589111Y-15717436D02*
X16579587Y-15698388D01*
X16579587Y-15698388D02*
X16579587Y-15641246D01*
X16579587Y-15641246D02*
X16589111Y-15622198D01*
X16589111Y-15622198D02*
X16598634Y-15612674D01*
X16598634Y-15612674D02*
X16617682Y-15603150D01*
X16617682Y-15603150D02*
X16655777Y-15603150D01*
X16655777Y-15603150D02*
X16674825Y-15612674D01*
X16751015Y-15812674D02*
X16760539Y-15803150D01*
X16760539Y-15803150D02*
X16779587Y-15774579D01*
X16779587Y-15774579D02*
X16789111Y-15755531D01*
X16789111Y-15755531D02*
X16798635Y-15726960D01*
X16798635Y-15726960D02*
X16808158Y-15679341D01*
X16808158Y-15679341D02*
X16808158Y-15641246D01*
X16808158Y-15641246D02*
X16798635Y-15593627D01*
X16798635Y-15593627D02*
X16789111Y-15565055D01*
X16789111Y-15565055D02*
X16779587Y-15546008D01*
X16779587Y-15546008D02*
X16760539Y-15517436D01*
X16760539Y-15517436D02*
X16751015Y-15507912D01*
X9995000Y-15909000D02*
G75*
G02*
X9795000Y-15909000I-100000J0D01*
G01*
X9795000Y-15909000D02*
G75*
G02*
X9995000Y-15909000I100000J0D01*
G01*
X10236729Y-15800484D02*
X10360539Y-15800484D01*
X10360539Y-15800484D02*
X10293872Y-15876674D01*
X10293872Y-15876674D02*
X10322444Y-15876674D01*
X10322444Y-15876674D02*
X10341491Y-15886198D01*
X10341491Y-15886198D02*
X10351015Y-15895722D01*
X10351015Y-15895722D02*
X10360539Y-15914769D01*
X10360539Y-15914769D02*
X10360539Y-15962388D01*
X10360539Y-15962388D02*
X10351015Y-15981436D01*
X10351015Y-15981436D02*
X10341491Y-15990960D01*
X10341491Y-15990960D02*
X10322444Y-16000484D01*
X10322444Y-16000484D02*
X10265301Y-16000484D01*
X10265301Y-16000484D02*
X10246253Y-15990960D01*
X10246253Y-15990960D02*
X10236729Y-15981436D01*
X10446253Y-15981436D02*
X10455777Y-15990960D01*
X10455777Y-15990960D02*
X10446253Y-16000484D01*
X10446253Y-16000484D02*
X10436729Y-15990960D01*
X10436729Y-15990960D02*
X10446253Y-15981436D01*
X10446253Y-15981436D02*
X10446253Y-16000484D01*
X10531967Y-15819531D02*
X10541491Y-15810008D01*
X10541491Y-15810008D02*
X10560539Y-15800484D01*
X10560539Y-15800484D02*
X10608158Y-15800484D01*
X10608158Y-15800484D02*
X10627205Y-15810008D01*
X10627205Y-15810008D02*
X10636729Y-15819531D01*
X10636729Y-15819531D02*
X10646253Y-15838579D01*
X10646253Y-15838579D02*
X10646253Y-15857627D01*
X10646253Y-15857627D02*
X10636729Y-15886198D01*
X10636729Y-15886198D02*
X10522444Y-16000484D01*
X10522444Y-16000484D02*
X10646253Y-16000484D01*
X10770063Y-15800484D02*
X10789110Y-15800484D01*
X10789110Y-15800484D02*
X10808158Y-15810008D01*
X10808158Y-15810008D02*
X10817682Y-15819531D01*
X10817682Y-15819531D02*
X10827205Y-15838579D01*
X10827205Y-15838579D02*
X10836729Y-15876674D01*
X10836729Y-15876674D02*
X10836729Y-15924293D01*
X10836729Y-15924293D02*
X10827205Y-15962388D01*
X10827205Y-15962388D02*
X10817682Y-15981436D01*
X10817682Y-15981436D02*
X10808158Y-15990960D01*
X10808158Y-15990960D02*
X10789110Y-16000484D01*
X10789110Y-16000484D02*
X10770063Y-16000484D01*
X10770063Y-16000484D02*
X10751015Y-15990960D01*
X10751015Y-15990960D02*
X10741491Y-15981436D01*
X10741491Y-15981436D02*
X10731967Y-15962388D01*
X10731967Y-15962388D02*
X10722444Y-15924293D01*
X10722444Y-15924293D02*
X10722444Y-15876674D01*
X10722444Y-15876674D02*
X10731967Y-15838579D01*
X10731967Y-15838579D02*
X10741491Y-15819531D01*
X10741491Y-15819531D02*
X10751015Y-15810008D01*
X10751015Y-15810008D02*
X10770063Y-15800484D01*
X10960539Y-15800484D02*
X10979586Y-15800484D01*
X10979586Y-15800484D02*
X10998634Y-15810008D01*
X10998634Y-15810008D02*
X11008158Y-15819531D01*
X11008158Y-15819531D02*
X11017682Y-15838579D01*
X11017682Y-15838579D02*
X11027205Y-15876674D01*
X11027205Y-15876674D02*
X11027205Y-15924293D01*
X11027205Y-15924293D02*
X11017682Y-15962388D01*
X11017682Y-15962388D02*
X11008158Y-15981436D01*
X11008158Y-15981436D02*
X10998634Y-15990960D01*
X10998634Y-15990960D02*
X10979586Y-16000484D01*
X10979586Y-16000484D02*
X10960539Y-16000484D01*
X10960539Y-16000484D02*
X10941491Y-15990960D01*
X10941491Y-15990960D02*
X10931967Y-15981436D01*
X10931967Y-15981436D02*
X10922444Y-15962388D01*
X10922444Y-15962388D02*
X10912920Y-15924293D01*
X10912920Y-15924293D02*
X10912920Y-15876674D01*
X10912920Y-15876674D02*
X10922444Y-15838579D01*
X10922444Y-15838579D02*
X10931967Y-15819531D01*
X10931967Y-15819531D02*
X10941491Y-15810008D01*
X10941491Y-15810008D02*
X10960539Y-15800484D01*
X11112920Y-16000484D02*
X11112920Y-15867150D01*
X11112920Y-15886198D02*
X11122444Y-15876674D01*
X11122444Y-15876674D02*
X11141491Y-15867150D01*
X11141491Y-15867150D02*
X11170063Y-15867150D01*
X11170063Y-15867150D02*
X11189110Y-15876674D01*
X11189110Y-15876674D02*
X11198634Y-15895722D01*
X11198634Y-15895722D02*
X11198634Y-16000484D01*
X11198634Y-15895722D02*
X11208158Y-15876674D01*
X11208158Y-15876674D02*
X11227205Y-15867150D01*
X11227205Y-15867150D02*
X11255777Y-15867150D01*
X11255777Y-15867150D02*
X11274824Y-15876674D01*
X11274824Y-15876674D02*
X11284348Y-15895722D01*
X11284348Y-15895722D02*
X11284348Y-16000484D01*
X11379586Y-16000484D02*
X11379586Y-15867150D01*
X11379586Y-15886198D02*
X11389110Y-15876674D01*
X11389110Y-15876674D02*
X11408158Y-15867150D01*
X11408158Y-15867150D02*
X11436729Y-15867150D01*
X11436729Y-15867150D02*
X11455777Y-15876674D01*
X11455777Y-15876674D02*
X11465301Y-15895722D01*
X11465301Y-15895722D02*
X11465301Y-16000484D01*
X11465301Y-15895722D02*
X11474824Y-15876674D01*
X11474824Y-15876674D02*
X11493872Y-15867150D01*
X11493872Y-15867150D02*
X11522443Y-15867150D01*
X11522443Y-15867150D02*
X11541491Y-15876674D01*
X11541491Y-15876674D02*
X11551015Y-15895722D01*
X11551015Y-15895722D02*
X11551015Y-16000484D01*
X11941491Y-15790960D02*
X11770063Y-16048103D01*
X12198634Y-15800484D02*
X12217682Y-15800484D01*
X12217682Y-15800484D02*
X12236729Y-15810008D01*
X12236729Y-15810008D02*
X12246253Y-15819531D01*
X12246253Y-15819531D02*
X12255777Y-15838579D01*
X12255777Y-15838579D02*
X12265301Y-15876674D01*
X12265301Y-15876674D02*
X12265301Y-15924293D01*
X12265301Y-15924293D02*
X12255777Y-15962388D01*
X12255777Y-15962388D02*
X12246253Y-15981436D01*
X12246253Y-15981436D02*
X12236729Y-15990960D01*
X12236729Y-15990960D02*
X12217682Y-16000484D01*
X12217682Y-16000484D02*
X12198634Y-16000484D01*
X12198634Y-16000484D02*
X12179586Y-15990960D01*
X12179586Y-15990960D02*
X12170063Y-15981436D01*
X12170063Y-15981436D02*
X12160539Y-15962388D01*
X12160539Y-15962388D02*
X12151015Y-15924293D01*
X12151015Y-15924293D02*
X12151015Y-15876674D01*
X12151015Y-15876674D02*
X12160539Y-15838579D01*
X12160539Y-15838579D02*
X12170063Y-15819531D01*
X12170063Y-15819531D02*
X12179586Y-15810008D01*
X12179586Y-15810008D02*
X12198634Y-15800484D01*
X12351015Y-15981436D02*
X12360539Y-15990960D01*
X12360539Y-15990960D02*
X12351015Y-16000484D01*
X12351015Y-16000484D02*
X12341491Y-15990960D01*
X12341491Y-15990960D02*
X12351015Y-15981436D01*
X12351015Y-15981436D02*
X12351015Y-16000484D01*
X12551015Y-16000484D02*
X12436729Y-16000484D01*
X12493872Y-16000484D02*
X12493872Y-15800484D01*
X12493872Y-15800484D02*
X12474825Y-15829055D01*
X12474825Y-15829055D02*
X12455777Y-15848103D01*
X12455777Y-15848103D02*
X12436729Y-15857627D01*
X12627206Y-15819531D02*
X12636729Y-15810008D01*
X12636729Y-15810008D02*
X12655777Y-15800484D01*
X12655777Y-15800484D02*
X12703396Y-15800484D01*
X12703396Y-15800484D02*
X12722444Y-15810008D01*
X12722444Y-15810008D02*
X12731967Y-15819531D01*
X12731967Y-15819531D02*
X12741491Y-15838579D01*
X12741491Y-15838579D02*
X12741491Y-15857627D01*
X12741491Y-15857627D02*
X12731967Y-15886198D01*
X12731967Y-15886198D02*
X12617682Y-16000484D01*
X12617682Y-16000484D02*
X12741491Y-16000484D01*
X12912920Y-15800484D02*
X12874825Y-15800484D01*
X12874825Y-15800484D02*
X12855777Y-15810008D01*
X12855777Y-15810008D02*
X12846253Y-15819531D01*
X12846253Y-15819531D02*
X12827206Y-15848103D01*
X12827206Y-15848103D02*
X12817682Y-15886198D01*
X12817682Y-15886198D02*
X12817682Y-15962388D01*
X12817682Y-15962388D02*
X12827206Y-15981436D01*
X12827206Y-15981436D02*
X12836729Y-15990960D01*
X12836729Y-15990960D02*
X12855777Y-16000484D01*
X12855777Y-16000484D02*
X12893872Y-16000484D01*
X12893872Y-16000484D02*
X12912920Y-15990960D01*
X12912920Y-15990960D02*
X12922444Y-15981436D01*
X12922444Y-15981436D02*
X12931967Y-15962388D01*
X12931967Y-15962388D02*
X12931967Y-15914769D01*
X12931967Y-15914769D02*
X12922444Y-15895722D01*
X12922444Y-15895722D02*
X12912920Y-15886198D01*
X12912920Y-15886198D02*
X12893872Y-15876674D01*
X12893872Y-15876674D02*
X12855777Y-15876674D01*
X12855777Y-15876674D02*
X12836729Y-15886198D01*
X12836729Y-15886198D02*
X12827206Y-15895722D01*
X12827206Y-15895722D02*
X12817682Y-15914769D01*
X13055777Y-15800484D02*
X13074825Y-15800484D01*
X13074825Y-15800484D02*
X13093872Y-15810008D01*
X13093872Y-15810008D02*
X13103396Y-15819531D01*
X13103396Y-15819531D02*
X13112920Y-15838579D01*
X13112920Y-15838579D02*
X13122444Y-15876674D01*
X13122444Y-15876674D02*
X13122444Y-15924293D01*
X13122444Y-15924293D02*
X13112920Y-15962388D01*
X13112920Y-15962388D02*
X13103396Y-15981436D01*
X13103396Y-15981436D02*
X13093872Y-15990960D01*
X13093872Y-15990960D02*
X13074825Y-16000484D01*
X13074825Y-16000484D02*
X13055777Y-16000484D01*
X13055777Y-16000484D02*
X13036729Y-15990960D01*
X13036729Y-15990960D02*
X13027206Y-15981436D01*
X13027206Y-15981436D02*
X13017682Y-15962388D01*
X13017682Y-15962388D02*
X13008158Y-15924293D01*
X13008158Y-15924293D02*
X13008158Y-15876674D01*
X13008158Y-15876674D02*
X13017682Y-15838579D01*
X13017682Y-15838579D02*
X13027206Y-15819531D01*
X13027206Y-15819531D02*
X13036729Y-15810008D01*
X13036729Y-15810008D02*
X13055777Y-15800484D01*
X13198634Y-15800484D02*
X13198634Y-15838579D01*
X13274825Y-15800484D02*
X13274825Y-15838579D01*
X13570063Y-16076674D02*
X13560539Y-16067150D01*
X13560539Y-16067150D02*
X13541491Y-16038579D01*
X13541491Y-16038579D02*
X13531968Y-16019531D01*
X13531968Y-16019531D02*
X13522444Y-15990960D01*
X13522444Y-15990960D02*
X13512920Y-15943341D01*
X13512920Y-15943341D02*
X13512920Y-15905246D01*
X13512920Y-15905246D02*
X13522444Y-15857627D01*
X13522444Y-15857627D02*
X13531968Y-15829055D01*
X13531968Y-15829055D02*
X13541491Y-15810008D01*
X13541491Y-15810008D02*
X13560539Y-15781436D01*
X13560539Y-15781436D02*
X13570063Y-15771912D01*
X13627206Y-15800484D02*
X13751015Y-15800484D01*
X13751015Y-15800484D02*
X13684348Y-15876674D01*
X13684348Y-15876674D02*
X13712920Y-15876674D01*
X13712920Y-15876674D02*
X13731968Y-15886198D01*
X13731968Y-15886198D02*
X13741491Y-15895722D01*
X13741491Y-15895722D02*
X13751015Y-15914769D01*
X13751015Y-15914769D02*
X13751015Y-15962388D01*
X13751015Y-15962388D02*
X13741491Y-15981436D01*
X13741491Y-15981436D02*
X13731968Y-15990960D01*
X13731968Y-15990960D02*
X13712920Y-16000484D01*
X13712920Y-16000484D02*
X13655777Y-16000484D01*
X13655777Y-16000484D02*
X13636729Y-15990960D01*
X13636729Y-15990960D02*
X13627206Y-15981436D01*
X13989110Y-16000484D02*
X13989110Y-15800484D01*
X14074825Y-16000484D02*
X14074825Y-15895722D01*
X14074825Y-15895722D02*
X14065301Y-15876674D01*
X14065301Y-15876674D02*
X14046253Y-15867150D01*
X14046253Y-15867150D02*
X14017682Y-15867150D01*
X14017682Y-15867150D02*
X13998634Y-15876674D01*
X13998634Y-15876674D02*
X13989110Y-15886198D01*
X14198634Y-16000484D02*
X14179587Y-15990960D01*
X14179587Y-15990960D02*
X14170063Y-15981436D01*
X14170063Y-15981436D02*
X14160539Y-15962388D01*
X14160539Y-15962388D02*
X14160539Y-15905246D01*
X14160539Y-15905246D02*
X14170063Y-15886198D01*
X14170063Y-15886198D02*
X14179587Y-15876674D01*
X14179587Y-15876674D02*
X14198634Y-15867150D01*
X14198634Y-15867150D02*
X14227206Y-15867150D01*
X14227206Y-15867150D02*
X14246253Y-15876674D01*
X14246253Y-15876674D02*
X14255777Y-15886198D01*
X14255777Y-15886198D02*
X14265301Y-15905246D01*
X14265301Y-15905246D02*
X14265301Y-15962388D01*
X14265301Y-15962388D02*
X14255777Y-15981436D01*
X14255777Y-15981436D02*
X14246253Y-15990960D01*
X14246253Y-15990960D02*
X14227206Y-16000484D01*
X14227206Y-16000484D02*
X14198634Y-16000484D01*
X14379587Y-16000484D02*
X14360539Y-15990960D01*
X14360539Y-15990960D02*
X14351015Y-15971912D01*
X14351015Y-15971912D02*
X14351015Y-15800484D01*
X14531968Y-15990960D02*
X14512920Y-16000484D01*
X14512920Y-16000484D02*
X14474825Y-16000484D01*
X14474825Y-16000484D02*
X14455777Y-15990960D01*
X14455777Y-15990960D02*
X14446253Y-15971912D01*
X14446253Y-15971912D02*
X14446253Y-15895722D01*
X14446253Y-15895722D02*
X14455777Y-15876674D01*
X14455777Y-15876674D02*
X14474825Y-15867150D01*
X14474825Y-15867150D02*
X14512920Y-15867150D01*
X14512920Y-15867150D02*
X14531968Y-15876674D01*
X14531968Y-15876674D02*
X14541491Y-15895722D01*
X14541491Y-15895722D02*
X14541491Y-15914769D01*
X14541491Y-15914769D02*
X14446253Y-15933817D01*
X14617682Y-15990960D02*
X14636730Y-16000484D01*
X14636730Y-16000484D02*
X14674825Y-16000484D01*
X14674825Y-16000484D02*
X14693872Y-15990960D01*
X14693872Y-15990960D02*
X14703396Y-15971912D01*
X14703396Y-15971912D02*
X14703396Y-15962388D01*
X14703396Y-15962388D02*
X14693872Y-15943341D01*
X14693872Y-15943341D02*
X14674825Y-15933817D01*
X14674825Y-15933817D02*
X14646253Y-15933817D01*
X14646253Y-15933817D02*
X14627206Y-15924293D01*
X14627206Y-15924293D02*
X14617682Y-15905246D01*
X14617682Y-15905246D02*
X14617682Y-15895722D01*
X14617682Y-15895722D02*
X14627206Y-15876674D01*
X14627206Y-15876674D02*
X14646253Y-15867150D01*
X14646253Y-15867150D02*
X14674825Y-15867150D01*
X14674825Y-15867150D02*
X14693872Y-15876674D01*
X14770063Y-16076674D02*
X14779587Y-16067150D01*
X14779587Y-16067150D02*
X14798634Y-16038579D01*
X14798634Y-16038579D02*
X14808158Y-16019531D01*
X14808158Y-16019531D02*
X14817682Y-15990960D01*
X14817682Y-15990960D02*
X14827206Y-15943341D01*
X14827206Y-15943341D02*
X14827206Y-15905246D01*
X14827206Y-15905246D02*
X14817682Y-15857627D01*
X14817682Y-15857627D02*
X14808158Y-15829055D01*
X14808158Y-15829055D02*
X14798634Y-15810008D01*
X14798634Y-15810008D02*
X14779587Y-15781436D01*
X14779587Y-15781436D02*
X14770063Y-15771912D01*
X15131968Y-16076674D02*
X15122444Y-16067150D01*
X15122444Y-16067150D02*
X15103396Y-16038579D01*
X15103396Y-16038579D02*
X15093872Y-16019531D01*
X15093872Y-16019531D02*
X15084349Y-15990960D01*
X15084349Y-15990960D02*
X15074825Y-15943341D01*
X15074825Y-15943341D02*
X15074825Y-15905246D01*
X15074825Y-15905246D02*
X15084349Y-15857627D01*
X15084349Y-15857627D02*
X15093872Y-15829055D01*
X15093872Y-15829055D02*
X15103396Y-15810008D01*
X15103396Y-15810008D02*
X15122444Y-15781436D01*
X15122444Y-15781436D02*
X15131968Y-15771912D01*
X15208158Y-15867150D02*
X15208158Y-16000484D01*
X15208158Y-15886198D02*
X15217682Y-15876674D01*
X15217682Y-15876674D02*
X15236730Y-15867150D01*
X15236730Y-15867150D02*
X15265301Y-15867150D01*
X15265301Y-15867150D02*
X15284349Y-15876674D01*
X15284349Y-15876674D02*
X15293872Y-15895722D01*
X15293872Y-15895722D02*
X15293872Y-16000484D01*
X15417682Y-16000484D02*
X15398634Y-15990960D01*
X15398634Y-15990960D02*
X15389111Y-15981436D01*
X15389111Y-15981436D02*
X15379587Y-15962388D01*
X15379587Y-15962388D02*
X15379587Y-15905246D01*
X15379587Y-15905246D02*
X15389111Y-15886198D01*
X15389111Y-15886198D02*
X15398634Y-15876674D01*
X15398634Y-15876674D02*
X15417682Y-15867150D01*
X15417682Y-15867150D02*
X15446253Y-15867150D01*
X15446253Y-15867150D02*
X15465301Y-15876674D01*
X15465301Y-15876674D02*
X15474825Y-15886198D01*
X15474825Y-15886198D02*
X15484349Y-15905246D01*
X15484349Y-15905246D02*
X15484349Y-15962388D01*
X15484349Y-15962388D02*
X15474825Y-15981436D01*
X15474825Y-15981436D02*
X15465301Y-15990960D01*
X15465301Y-15990960D02*
X15446253Y-16000484D01*
X15446253Y-16000484D02*
X15417682Y-16000484D01*
X15541492Y-15867150D02*
X15617682Y-15867150D01*
X15570063Y-15800484D02*
X15570063Y-15971912D01*
X15570063Y-15971912D02*
X15579587Y-15990960D01*
X15579587Y-15990960D02*
X15598634Y-16000484D01*
X15598634Y-16000484D02*
X15617682Y-16000484D01*
X15836730Y-15867150D02*
X15836730Y-16067150D01*
X15836730Y-15876674D02*
X15855777Y-15867150D01*
X15855777Y-15867150D02*
X15893873Y-15867150D01*
X15893873Y-15867150D02*
X15912920Y-15876674D01*
X15912920Y-15876674D02*
X15922444Y-15886198D01*
X15922444Y-15886198D02*
X15931968Y-15905246D01*
X15931968Y-15905246D02*
X15931968Y-15962388D01*
X15931968Y-15962388D02*
X15922444Y-15981436D01*
X15922444Y-15981436D02*
X15912920Y-15990960D01*
X15912920Y-15990960D02*
X15893873Y-16000484D01*
X15893873Y-16000484D02*
X15855777Y-16000484D01*
X15855777Y-16000484D02*
X15836730Y-15990960D01*
X16046253Y-16000484D02*
X16027206Y-15990960D01*
X16027206Y-15990960D02*
X16017682Y-15971912D01*
X16017682Y-15971912D02*
X16017682Y-15800484D01*
X16208158Y-16000484D02*
X16208158Y-15895722D01*
X16208158Y-15895722D02*
X16198634Y-15876674D01*
X16198634Y-15876674D02*
X16179587Y-15867150D01*
X16179587Y-15867150D02*
X16141492Y-15867150D01*
X16141492Y-15867150D02*
X16122444Y-15876674D01*
X16208158Y-15990960D02*
X16189111Y-16000484D01*
X16189111Y-16000484D02*
X16141492Y-16000484D01*
X16141492Y-16000484D02*
X16122444Y-15990960D01*
X16122444Y-15990960D02*
X16112920Y-15971912D01*
X16112920Y-15971912D02*
X16112920Y-15952865D01*
X16112920Y-15952865D02*
X16122444Y-15933817D01*
X16122444Y-15933817D02*
X16141492Y-15924293D01*
X16141492Y-15924293D02*
X16189111Y-15924293D01*
X16189111Y-15924293D02*
X16208158Y-15914769D01*
X16274825Y-15867150D02*
X16351015Y-15867150D01*
X16303396Y-15800484D02*
X16303396Y-15971912D01*
X16303396Y-15971912D02*
X16312920Y-15990960D01*
X16312920Y-15990960D02*
X16331968Y-16000484D01*
X16331968Y-16000484D02*
X16351015Y-16000484D01*
X16493873Y-15990960D02*
X16474825Y-16000484D01*
X16474825Y-16000484D02*
X16436730Y-16000484D01*
X16436730Y-16000484D02*
X16417682Y-15990960D01*
X16417682Y-15990960D02*
X16408158Y-15971912D01*
X16408158Y-15971912D02*
X16408158Y-15895722D01*
X16408158Y-15895722D02*
X16417682Y-15876674D01*
X16417682Y-15876674D02*
X16436730Y-15867150D01*
X16436730Y-15867150D02*
X16474825Y-15867150D01*
X16474825Y-15867150D02*
X16493873Y-15876674D01*
X16493873Y-15876674D02*
X16503396Y-15895722D01*
X16503396Y-15895722D02*
X16503396Y-15914769D01*
X16503396Y-15914769D02*
X16408158Y-15933817D01*
X16674825Y-16000484D02*
X16674825Y-15800484D01*
X16674825Y-15990960D02*
X16655777Y-16000484D01*
X16655777Y-16000484D02*
X16617682Y-16000484D01*
X16617682Y-16000484D02*
X16598634Y-15990960D01*
X16598634Y-15990960D02*
X16589111Y-15981436D01*
X16589111Y-15981436D02*
X16579587Y-15962388D01*
X16579587Y-15962388D02*
X16579587Y-15905246D01*
X16579587Y-15905246D02*
X16589111Y-15886198D01*
X16589111Y-15886198D02*
X16598634Y-15876674D01*
X16598634Y-15876674D02*
X16617682Y-15867150D01*
X16617682Y-15867150D02*
X16655777Y-15867150D01*
X16655777Y-15867150D02*
X16674825Y-15876674D01*
X16751015Y-16076674D02*
X16760539Y-16067150D01*
X16760539Y-16067150D02*
X16779587Y-16038579D01*
X16779587Y-16038579D02*
X16789111Y-16019531D01*
X16789111Y-16019531D02*
X16798635Y-15990960D01*
X16798635Y-15990960D02*
X16808158Y-15943341D01*
X16808158Y-15943341D02*
X16808158Y-15905246D01*
X16808158Y-15905246D02*
X16798635Y-15857627D01*
X16798635Y-15857627D02*
X16789111Y-15829055D01*
X16789111Y-15829055D02*
X16779587Y-15810008D01*
X16779587Y-15810008D02*
X16760539Y-15781436D01*
X16760539Y-15781436D02*
X16751015Y-15771912D01*
M02*
